SplineFontDB: 3.0
FontName: Oxygen-Sans-Bold
FullName: Oxygen Sans Bold
FamilyName: Oxygen-Sans
Weight: Bold
Version: 0.4
ItalicAngle: 0
UnderlinePosition: 0
UnderlineWidth: 0
Ascent: 1638
Descent: 410
sfntRevision: 0x00010000
LayerCount: 2
Layer: 0 1 "Back"  1
Layer: 1 1 "Fore"  0
XUID: [1021 913 -2060267417 9642331]
FSType: 8
OS2Version: 1
OS2_WeightWidthSlopeOnly: 0
OS2_UseTypoMetrics: 1
CreationTime: 1378762340
ModificationTime: 1378766913
PfmFamily: 17
TTFWeight: 700
TTFWidth: 5
LineGap: 0
VLineGap: 0
Panose: 2 0 8 3 0 0 0 0 0 0
OS2TypoAscent: 2356
OS2TypoAOffset: 0
OS2TypoDescent: -664
OS2TypoDOffset: 0
OS2TypoLinegap: 0
OS2WinAscent: 2356
OS2WinAOffset: 0
OS2WinDescent: 664
OS2WinDOffset: 0
HheadAscent: 2356
HheadAOffset: 0
HheadDescent: -664
HheadDOffset: 0
OS2SubXSize: -1703
OS2SubYSize: 0
OS2SubXOff: 0
OS2SubYOff: 0
OS2SupXSize: 0
OS2SupYSize: 0
OS2SupXOff: 0
OS2SupYOff: 0
OS2StrikeYSize: 0
OS2StrikeYPos: 0
OS2Vendor: 'newt'
OS2CodePages: 20000097.00000000
OS2UnicodeRanges: a00002ef.4000204b.00000000.00000000
Lookup: 258 0 0 "'kern' Horizontal Kerning in Latin lookup 0"  {"'kern' Horizontal Kerning in Latin lookup 0 subtable"  } ['kern' ('latn' <'dflt' > ) ]
DEI: 91125
ShortTable: maxp 16
  1
  0
  605
  90
  7
  75
  5
  2
  0
  1
  1
  0
  64
  0
  3
  2
EndShort
LangName: 1033 "" "" "" "0.4;newt;Oxygen Sans Bold" "" "0.4" 
GaspTable: 1 65535 2 0
Encoding: UnicodeBmp
Compacted: 1
UnicodeInterp: none
NameList: AGL For New Fonts
DisplaySize: -48
AntiAlias: 1
FitToEm: 1
WinInfo: 0 25 11
BeginChars: 65548 605

StartChar: .notdef
Encoding: 65536 -1 0
Width: 1012
Flags: W
LayerCount: 2
UndoRedoHistory
Layer: 1
Undoes
EndUndoes
Redoes
EndRedoes
EndUndoRedoHistory
Fore
SplineSet
209 -162 m 1,0,-1
 841 -162 l 1,1,-1
 841 1236 l 1,2,-1
 209 1236 l 1,3,-1
 209 -162 l 1,0,-1
105 -267 m 1,4,-1
 105 1341 l 1,5,-1
 945 1341 l 1,6,-1
 945 -267 l 1,7,-1
 105 -267 l 1,4,-1
EndSplineSet
EndChar

StartChar: exclam
Encoding: 33 33 4
Width: 613
Flags: W
LayerCount: 2
UndoRedoHistory
Layer: 1
Undoes
EndUndoes
Redoes
EndRedoes
EndUndoRedoHistory
Fore
SplineSet
308 -10 m 128,-1,1
 246 -10 246 -10 207 31.5 c 128,-1,2
 168 73 168 73 168 130 c 128,-1,3
 168 187 168 187 207 228 c 128,-1,4
 246 269 246 269 308 269 c 128,-1,5
 370 269 370 269 408.5 228 c 128,-1,6
 447 187 447 187 447 130 c 128,-1,7
 447 73 447 73 408.5 31.5 c 128,-1,0
 370 -10 370 -10 308 -10 c 128,-1,1
263 439 m 1,8,-1
 198 1298 l 1,9,-1
 198 1480 l 1,10,-1
 419 1480 l 1,11,-1
 419 1298 l 1,12,-1
 361 439 l 1,13,-1
 263 439 l 1,8,-1
EndSplineSet
EndChar

StartChar: quotedbl
Encoding: 34 34 5
Width: 763
Flags: W
LayerCount: 2
UndoRedoHistory
Layer: 1
Undoes
EndUndoes
Redoes
EndRedoes
EndUndoRedoHistory
Fore
SplineSet
478 903 m 1,0,-1
 433 1460 l 1,1,-1
 661 1460 l 1,2,-1
 611 903 l 1,3,-1
 478 903 l 1,0,-1
146 903 m 1,4,-1
 102 1460 l 1,5,-1
 329 1460 l 1,6,-1
 280 903 l 1,7,-1
 146 903 l 1,4,-1
EndSplineSet
EndChar

StartChar: numbersign
Encoding: 35 35 6
Width: 1227
Flags: W
LayerCount: 2
UndoRedoHistory
Layer: 1
Undoes
EndUndoes
Redoes
EndRedoes
EndUndoRedoHistory
Fore
SplineSet
723 554 m 1,0,-1
 801 958 l 1,1,-1
 562 958 l 1,2,-1
 484 554 l 1,3,-1
 723 554 l 1,0,-1
616 -9 m 1,4,-1
 702 442 l 1,5,-1
 462 442 l 1,6,-1
 376 -9 l 1,7,-1
 236 -9 l 1,8,-1
 322 442 l 1,9,-1
 140 442 l 1,10,-1
 156 554 l 1,11,-1
 343 554 l 1,12,-1
 421 958 l 1,13,-1
 227 958 l 1,14,-1
 243 1070 l 1,15,-1
 442 1070 l 1,16,-1
 514 1448 l 1,17,-1
 656 1448 l 1,18,-1
 583 1070 l 1,19,-1
 823 1070 l 1,20,-1
 895 1448 l 1,21,-1
 1036 1448 l 1,22,-1
 963 1070 l 1,23,-1
 1142 1070 l 1,24,-1
 1125 958 l 1,25,-1
 942 958 l 1,26,-1
 865 554 l 1,27,-1
 1054 554 l 1,28,-1
 1038 442 l 1,29,-1
 843 442 l 1,30,-1
 756 -9 l 1,31,-1
 616 -9 l 1,4,-1
EndSplineSet
EndChar

StartChar: dollar
Encoding: 36 36 7
Width: 1167
Flags: W
LayerCount: 2
UndoRedoHistory
Layer: 1
Undoes
EndUndoes
Redoes
EndRedoes
EndUndoRedoHistory
Fore
SplineSet
613 1288 m 0,0,1
 563 1288 563 1288 506.5 1277.5 c 128,-1,2
 450 1267 450 1267 406 1220 c 128,-1,3
 362 1173 362 1173 362 1101 c 128,-1,4
 362 1029 362 1029 391 992 c 128,-1,5
 420 955 420 955 499.5 919.5 c 128,-1,6
 579 884 579 884 727 829 c 128,-1,7
 875 774 875 774 950 726.5 c 128,-1,8
 1025 679 1025 679 1063.5 598.5 c 128,-1,9
 1102 518 1102 518 1102 368 c 0,10,11
 1102 276 1102 276 1054 191 c 0,12,13
 954 16 954 16 685 -17 c 1,14,-1
 659 -278 l 1,15,-1
 573 -278 l 1,16,-1
 536 -20 l 1,17,18
 315 -3 315 -3 157 90 c 1,19,-1
 157 324 l 1,20,21
 232 267 232 267 327 228 c 128,-1,22
 422 189 422 189 489 181 c 128,-1,23
 556 173 556 173 599 173 c 128,-1,24
 642 173 642 173 703 184 c 128,-1,25
 764 195 764 195 812.5 247.5 c 128,-1,26
 861 300 861 300 861 382 c 128,-1,27
 861 464 861 464 822.5 503 c 128,-1,28
 784 542 784 542 701 578 c 128,-1,29
 618 614 618 614 552.5 639.5 c 128,-1,30
 487 665 487 665 447.5 680.5 c 128,-1,31
 408 696 408 696 342 726 c 128,-1,32
 276 756 276 756 214 816 c 0,33,34
 126 902 126 902 126 1079 c 0,35,36
 126 1292 126 1292 270 1390 c 0,37,38
 380 1465 380 1465 542 1477 c 1,39,-1
 572 1735 l 1,40,-1
 658 1735 l 1,41,-1
 691 1477 l 1,42,43
 888 1463 888 1463 1058 1379 c 1,44,-1
 979 1192 l 1,45,46
 804 1288 804 1288 613 1288 c 0,0,1
EndSplineSet
EndChar

StartChar: percent
Encoding: 37 37 8
Width: 1855
Flags: W
LayerCount: 2
UndoRedoHistory
Layer: 1
Undoes
EndUndoes
Redoes
EndRedoes
EndUndoRedoHistory
Fore
SplineSet
1687 90 m 128,-1,1
 1591 -20 1591 -20 1418.5 -20 c 128,-1,2
 1246 -20 1246 -20 1151.5 89.5 c 128,-1,3
 1057 199 1057 199 1057 370.5 c 128,-1,4
 1057 542 1057 542 1152.5 650.5 c 128,-1,5
 1248 759 1248 759 1421 759 c 128,-1,6
 1594 759 1594 759 1688.5 651.5 c 128,-1,7
 1783 544 1783 544 1783 372 c 128,-1,0
 1783 200 1783 200 1687 90 c 128,-1,1
1278 192 m 128,-1,9
 1325 124 1325 124 1421 124 c 128,-1,10
 1517 124 1517 124 1563.5 192.5 c 128,-1,11
 1610 261 1610 261 1610 374 c 128,-1,12
 1610 487 1610 487 1564 553 c 128,-1,13
 1518 619 1518 619 1421.5 619 c 128,-1,14
 1325 619 1325 619 1278 551.5 c 128,-1,15
 1231 484 1231 484 1231 372 c 128,-1,8
 1231 260 1231 260 1278 192 c 128,-1,9
293 913 m 128,-1,17
 340 845 340 845 436 845 c 128,-1,18
 532 845 532 845 578.5 913.5 c 128,-1,19
 625 982 625 982 625 1095 c 128,-1,20
 625 1208 625 1208 579 1274 c 128,-1,21
 533 1340 533 1340 436.5 1340 c 128,-1,22
 340 1340 340 1340 293 1272.5 c 128,-1,23
 246 1205 246 1205 246 1093 c 128,-1,16
 246 981 246 981 293 913 c 128,-1,17
702 811 m 128,-1,25
 606 701 606 701 433.5 701 c 128,-1,26
 261 701 261 701 166.5 810.5 c 128,-1,27
 72 920 72 920 72 1091.5 c 128,-1,28
 72 1263 72 1263 167.5 1371.5 c 128,-1,29
 263 1480 263 1480 436 1480 c 128,-1,30
 609 1480 609 1480 703.5 1372.5 c 128,-1,31
 798 1265 798 1265 798 1093 c 128,-1,24
 798 921 798 921 702 811 c 128,-1,25
412 0 m 1,32,-1
 1255 1460 l 1,33,-1
 1438 1460 l 1,34,-1
 604 0 l 1,35,-1
 412 0 l 1,32,-1
EndSplineSet
EndChar

StartChar: ampersand
Encoding: 38 38 9
Width: 1414
Flags: W
LayerCount: 2
UndoRedoHistory
Layer: 1
Undoes
EndUndoes
Redoes
EndRedoes
EndUndoRedoHistory
Fore
SplineSet
375 26 m 128,-1,1
 263 70 263 70 196 164 c 128,-1,2
 129 258 129 258 129 392 c 0,3,4
 129 469 129 469 150 532 c 0,5,6
 201 686 201 686 415 804 c 1,7,8
 265 971 265 971 265 1145 c 0,9,10
 265 1247 265 1247 319.5 1324 c 128,-1,11
 374 1401 374 1401 461.5 1438.5 c 128,-1,12
 549 1476 549 1476 677 1476 c 128,-1,13
 805 1476 805 1476 918 1401 c 128,-1,14
 1031 1326 1031 1326 1031 1168 c 0,15,16
 1031 1088 1031 1088 982.5 1009 c 128,-1,17
 934 930 934 930 864.5 874.5 c 128,-1,18
 795 819 795 819 704 771 c 1,19,-1
 1057 381 l 1,20,21
 1136 470 1136 470 1206 613 c 1,22,-1
 1359 513 l 1,23,24
 1286 360 1286 360 1182 248 c 1,25,-1
 1365 61 l 1,26,-1
 1166 -16 l 1,27,-1
 1032 111 l 1,28,29
 935 39 935 39 850 10.5 c 128,-1,30
 765 -18 765 -18 626 -18 c 128,-1,0
 487 -18 487 -18 375 26 c 128,-1,1
911 244 m 1,31,32
 523 674 l 1,33,34
 347 572 347 572 347 401 c 0,35,36
 347 281 347 281 429 218.5 c 128,-1,37
 511 156 511 156 656 156 c 128,-1,38
 801 156 801 156 911 244 c 1,31,32
658 1319 m 0,39,40
 578 1319 578 1319 525.5 1278 c 128,-1,41
 473 1237 473 1237 473 1162 c 0,42,43
 473 1021 473 1021 599 895 c 1,44,45
 697 945 697 945 762 1015 c 128,-1,46
 827 1085 827 1085 827 1163 c 0,47,48
 826 1319 826 1319 658 1319 c 0,39,40
EndSplineSet
EndChar

StartChar: quotesingle
Encoding: 39 39 10
Width: 448
Flags: W
LayerCount: 2
UndoRedoHistory
Layer: 1
Undoes
EndUndoes
Redoes
EndRedoes
EndUndoRedoHistory
Fore
SplineSet
167 925 m 1,0,-1
 140 1449 l 1,1,-1
 327 1449 l 1,2,-1
 304 925 l 1,3,-1
 167 925 l 1,0,-1
EndSplineSet
EndChar

StartChar: parenleft
Encoding: 40 40 11
Width: 727
Flags: W
LayerCount: 2
UndoRedoHistory
Layer: 1
Undoes
EndUndoes
Redoes
EndRedoes
EndUndoRedoHistory
Fore
SplineSet
459 -186 m 1,0,1
 188 195 188 195 188 689 c 0,2,3
 188 932 188 932 261 1154 c 128,-1,4
 334 1376 334 1376 458 1549 c 1,5,-1
 670 1549 l 1,6,7
 555 1377 555 1377 480.5 1149.5 c 128,-1,8
 406 922 406 922 406 692 c 0,9,10
 406 243 406 243 668 -186 c 1,11,-1
 459 -186 l 1,0,1
EndSplineSet
EndChar

StartChar: parenright
Encoding: 41 41 12
Width: 734
Flags: W
LayerCount: 2
UndoRedoHistory
Layer: 1
Undoes
EndUndoes
Redoes
EndRedoes
EndUndoRedoHistory
Fore
SplineSet
103 -186 m 1,0,1
 215 -20 215 -20 290.5 221 c 128,-1,2
 366 462 366 462 366 694 c 128,-1,3
 366 926 366 926 300.5 1130.5 c 128,-1,4
 235 1335 235 1335 104 1549 c 1,5,-1
 314 1549 l 1,6,7
 585 1160 585 1160 585 702 c 0,8,9
 585 448 585 448 510.5 213.5 c 128,-1,10
 436 -21 436 -21 314 -186 c 1,11,-1
 103 -186 l 1,0,1
EndSplineSet
EndChar

StartChar: asterisk
Encoding: 42 42 13
Width: 1148
Flags: W
LayerCount: 2
UndoRedoHistory
Layer: 1
Undoes
EndUndoes
Redoes
EndRedoes
EndUndoRedoHistory
Fore
SplineSet
933 640 m 1,0,-1
 754 534 l 1,1,-1
 571 864 l 1,2,-1
 398 535 l 1,3,-1
 216 640 l 1,4,-1
 452 948 l 1,5,-1
 109 1025 l 1,6,-1
 167 1223 l 1,7,-1
 504 1082 l 1,8,-1
 470 1469 l 1,9,-1
 678 1469 l 1,10,-1
 644 1082 l 1,11,-1
 983 1223 l 1,12,-1
 1041 1025 l 1,13,-1
 694 948 l 1,14,15
 863 729 863 729 933 640 c 1,0,-1
EndSplineSet
EndChar

StartChar: plus
Encoding: 43 43 14
Width: 1218
Flags: W
LayerCount: 2
UndoRedoHistory
Layer: 1
Undoes
EndUndoes
Redoes
EndRedoes
EndUndoRedoHistory
Fore
SplineSet
524 154 m 1,0,-1
 524 557 l 1,1,-1
 137 557 l 1,2,-1
 137 723 l 1,3,-1
 525 723 l 1,4,-1
 525 1123 l 1,5,-1
 698 1123 l 1,6,-1
 698 723 l 1,7,-1
 1081 723 l 1,8,-1
 1081 557 l 1,9,-1
 697 557 l 1,10,-1
 697 154 l 1,11,-1
 524 154 l 1,0,-1
EndSplineSet
EndChar

StartChar: comma
Encoding: 44 44 15
Width: 517
Flags: W
LayerCount: 2
UndoRedoHistory
Layer: 1
Undoes
EndUndoes
Redoes
EndRedoes
EndUndoRedoHistory
Fore
SplineSet
125 -352 m 1,0,-1
 143 -210 l 2,1,2
 197 219 197 219 197 246 c 1,3,-1
 415 246 l 1,4,-1
 410 196 l 1,5,6
 410 183 410 183 276 -352 c 1,7,-1
 125 -352 l 1,0,-1
EndSplineSet
EndChar

StartChar: hyphen
Encoding: 45 45 16
Width: 813
Flags: W
LayerCount: 2
UndoRedoHistory
Layer: 1
Undoes
EndUndoes
Redoes
EndRedoes
EndUndoRedoHistory
Fore
SplineSet
116 467 m 1,0,-1
 116 648 l 1,1,-1
 697 648 l 1,2,-1
 697 467 l 1,3,-1
 116 467 l 1,0,-1
EndSplineSet
EndChar

StartChar: period
Encoding: 46 46 17
Width: 533
Flags: W
LayerCount: 2
UndoRedoHistory
Layer: 1
Undoes
EndUndoes
Redoes
EndRedoes
EndUndoRedoHistory
Fore
SplineSet
184.5 34 m 128,-1,1
 146 74 146 74 146 130 c 128,-1,2
 146 186 146 186 184.5 227 c 128,-1,3
 223 268 223 268 283.5 268 c 128,-1,4
 344 268 344 268 382 227 c 128,-1,5
 420 186 420 186 420 130.5 c 128,-1,6
 420 75 420 75 382 34.5 c 128,-1,7
 344 -6 344 -6 283.5 -6 c 128,-1,0
 223 -6 223 -6 184.5 34 c 128,-1,1
EndSplineSet
EndChar

StartChar: slash
Encoding: 47 47 18
Width: 934
Flags: W
LayerCount: 2
UndoRedoHistory
Layer: 1
Undoes
EndUndoes
Redoes
EndRedoes
EndUndoRedoHistory
Fore
SplineSet
78 -163 m 1,0,-1
 708 1444 l 1,1,-1
 893 1444 l 1,2,-1
 259 -163 l 1,3,-1
 78 -163 l 1,0,-1
EndSplineSet
EndChar

StartChar: zero
Encoding: 48 48 19
Width: 1217
Flags: W
LayerCount: 2
UndoRedoHistory
Layer: 1
Undoes
EndUndoes
Redoes
EndRedoes
EndUndoRedoHistory
Fore
SplineSet
611 180 m 0,0,1
 756 180 756 180 825 327 c 128,-1,2
 894 474 894 474 894 736 c 0,3,4
 894 1280 894 1280 611 1280 c 0,5,6
 514 1280 514 1280 448 1211 c 0,7,8
 325 1081 325 1081 324 733 c 0,9,10
 324 730 324 730 324 727 c 0,11,12
 324 382 324 382 448 250 c 0,13,14
 514 180 514 180 611 180 c 0,0,1
624 -20 m 0,15,16
 394 -20 394 -20 262 128 c 0,17,18
 80 331 80 331 79 730 c 0,19,20
 79 992 79 992 164 1181 c 0,21,22
 298 1480 298 1480 624 1480 c 0,23,24
 744 1480 744 1480 847 1422 c 128,-1,25
 950 1364 950 1364 1012 1261 c 0,26,27
 1138 1054 1138 1054 1138 733.5 c 128,-1,28
 1138 413 1138 413 1016 204 c 0,29,30
 954 99 954 99 850.5 39.5 c 128,-1,31
 747 -20 747 -20 624 -20 c 0,15,16
EndSplineSet
EndChar

StartChar: one
Encoding: 49 49 20
Width: 1217
Flags: W
LayerCount: 2
UndoRedoHistory
Layer: 1
Undoes
EndUndoes
Redoes
EndRedoes
EndUndoRedoHistory
Fore
SplineSet
197 0 m 1,0,-1
 197 180 l 1,1,-1
 563 180 l 1,2,-1
 563 1247 l 1,3,4
 514 1220 514 1220 409.5 1183.5 c 128,-1,5
 305 1147 305 1147 202 1132 c 1,6,-1
 202 1313 l 1,7,8
 304 1338 304 1338 419.5 1379.5 c 128,-1,9
 535 1421 535 1421 590 1460 c 1,10,-1
 803 1460 l 1,11,-1
 803 180 l 1,12,-1
 1123 180 l 1,13,-1
 1123 0 l 1,14,-1
 197 0 l 1,0,-1
EndSplineSet
EndChar

StartChar: two
Encoding: 50 50 21
Width: 1217
Flags: W
LayerCount: 2
UndoRedoHistory
Layer: 1
Undoes
EndUndoes
Redoes
EndRedoes
EndUndoRedoHistory
Fore
SplineSet
200 0 m 1,0,-1
 185 194 l 1,1,-1
 646 725 l 2,2,3
 740 833 740 833 779.5 902.5 c 128,-1,4
 819 972 819 972 819 1072 c 128,-1,5
 819 1172 819 1172 748.5 1226 c 128,-1,6
 678 1280 678 1280 582 1280 c 128,-1,7
 486 1280 486 1280 392 1246.5 c 128,-1,8
 298 1213 298 1213 236 1165 c 1,9,-1
 165 1354 l 1,10,11
 246 1411 246 1411 362 1446 c 128,-1,12
 478 1481 478 1481 595 1481 c 0,13,14
 774 1481 774 1481 902 1391 c 0,15,16
 1049 1288 1049 1288 1049 1053 c 0,17,18
 1049 929 1049 929 995.5 825 c 128,-1,19
 942 721 942 721 792 558 c 1,20,-1
 439 180 l 1,21,-1
 1047 180 l 1,22,-1
 1032 0 l 1,23,-1
 200 0 l 1,0,-1
EndSplineSet
EndChar

StartChar: three
Encoding: 51 51 22
Width: 1217
Flags: W
LayerCount: 2
UndoRedoHistory
Layer: 1
Undoes
EndUndoes
Redoes
EndRedoes
EndUndoRedoHistory
Fore
SplineSet
178 101 m 1,0,1
 250 276 l 1,2,3
 412 180 412 180 610 180 c 0,4,5
 714 180 714 180 786.5 240 c 128,-1,6
 859 300 859 300 859 412.5 c 0,7,8
 859 524 859 524 786 586 c 0,9,10
 694 664 694 664 455 664 c 2,11,-1
 400 664 l 1,12,-1
 400 853 l 1,13,-1
 456 853 l 2,14,15
 522 853 522 853 574 859 c 0,16,17
 830 888 830 888 830 1083 c 0,18,19
 830 1176 830 1176 761.5 1228 c 128,-1,20
 693 1280 693 1280 573 1280 c 0,21,22
 395 1280 395 1280 251 1187 c 1,23,-1
 173 1367 l 1,24,25
 355 1480 355 1480 576.5 1480 c 128,-1,26
 798 1480 798 1480 928 1375 c 128,-1,27
 1058 1270 1058 1270 1058 1099 c 0,28,29
 1058 853 1058 853 833 777 c 1,30,31
 965 738 965 738 1030.5 638.5 c 128,-1,32
 1096 539 1096 539 1096 401 c 128,-1,33
 1096 263 1096 263 1030.5 167.5 c 128,-1,34
 965 72 965 72 855 26 c 0,35,36
 744 -20 744 -20 616 -20 c 0,37,38
 370 -20 370 -20 178 101 c 1,0,1
EndSplineSet
EndChar

StartChar: four
Encoding: 52 52 23
Width: 1217
Flags: W
LayerCount: 2
UndoRedoHistory
Layer: 1
Undoes
EndUndoes
Redoes
EndRedoes
EndUndoRedoHistory
Fore
SplineSet
742 0 m 1,0,-1
 742 342 l 1,1,-1
 107 342 l 1,2,-1
 107 520 l 1,3,-1
 700 1457 l 1,4,-1
 966 1457 l 1,5,-1
 966 522 l 1,6,-1
 1144 522 l 1,7,-1
 1130 342 l 1,8,-1
 966 342 l 1,9,-1
 966 0 l 1,10,-1
 742 0 l 1,0,-1
337 519 m 1,11,-1
 742 519 l 1,12,-1
 742 1195 l 1,13,-1
 337 519 l 1,11,-1
EndSplineSet
EndChar

StartChar: five
Encoding: 53 53 24
Width: 1217
Flags: W
LayerCount: 2
UndoRedoHistory
Layer: 1
Undoes
EndUndoes
Redoes
EndRedoes
EndUndoRedoHistory
Fore
SplineSet
589 -20 m 0,0,1
 461 -20 461 -20 338.5 24.5 c 128,-1,2
 216 69 216 69 155 111 c 1,3,-1
 234 274 l 1,4,5
 312 222 312 222 405 193.5 c 128,-1,6
 498 165 498 165 565 165 c 0,7,8
 711 165 711 165 794 245.5 c 128,-1,9
 877 326 877 326 877 456 c 128,-1,10
 877 586 877 586 810.5 661 c 128,-1,11
 744 736 744 736 615 736 c 128,-1,12
 486 736 486 736 388 632 c 1,13,14
 217 657 l 1,15,-1
 259 1460 l 1,16,-1
 1055 1460 l 1,17,-1
 1039 1280 l 1,18,-1
 467 1280 l 1,19,-1
 437 848 l 1,20,21
 534 916 534 916 683 916 c 0,22,23
 877 916 877 916 994.5 788 c 128,-1,24
 1112 660 1112 660 1112 450.5 c 128,-1,25
 1112 241 1112 241 970 110.5 c 128,-1,26
 828 -20 828 -20 589 -20 c 0,0,1
EndSplineSet
EndChar

StartChar: six
Encoding: 54 54 25
Width: 1217
Flags: W
LayerCount: 2
UndoRedoHistory
Layer: 1
Undoes
EndUndoes
Redoes
EndRedoes
EndUndoRedoHistory
Fore
SplineSet
254.5 112.5 m 128,-1,1
 115 244 115 244 115 447 c 0,2,3
 116 520 116 520 130 584 c 0,4,5
 160 719 160 719 323 945 c 1,6,-1
 687 1460 l 1,7,-1
 957 1460 l 1,8,-1
 623 988 l 2,9,10
 600 954 600 954 529 860 c 1,11,12
 596 888 596 888 662 888 c 0,13,14
 859 888 859 888 993.5 763.5 c 128,-1,15
 1128 639 1128 639 1128 439.5 c 128,-1,16
 1128 240 1128 240 986.5 110.5 c 128,-1,17
 845 -19 845 -19 619.5 -19 c 128,-1,0
 394 -19 394 -19 254.5 112.5 c 128,-1,1
822.5 238 m 128,-1,19
 897 317 897 317 897 442 c 128,-1,20
 897 567 897 567 826 642 c 128,-1,21
 755 717 755 717 625.5 717 c 128,-1,22
 496 717 496 717 420.5 645 c 128,-1,23
 345 573 345 573 345 443 c 128,-1,24
 345 313 345 313 415 236 c 128,-1,25
 485 159 485 159 616.5 159 c 128,-1,18
 748 159 748 159 822.5 238 c 128,-1,19
EndSplineSet
EndChar

StartChar: seven
Encoding: 55 55 26
Width: 1217
Flags: W
LayerCount: 2
UndoRedoHistory
Layer: 1
Undoes
EndUndoes
Redoes
EndRedoes
EndUndoRedoHistory
Fore
SplineSet
343 0 m 1,0,-1
 811 1266 l 1,1,-1
 186 1266 l 1,2,-1
 178 1457 l 1,3,-1
 1068 1457 l 1,4,-1
 1068 1298 l 1,5,-1
 588 0 l 1,6,-1
 343 0 l 1,0,-1
EndSplineSet
EndChar

StartChar: eight
Encoding: 56 56 27
Width: 1217
Flags: W
LayerCount: 2
UndoRedoHistory
Layer: 1
Undoes
EndUndoes
Redoes
EndRedoes
EndUndoRedoHistory
Fore
SplineSet
110 396 m 0,0,1
 110 512 110 512 184.5 614 c 128,-1,2
 259 716 259 716 385 769 c 1,3,4
 274 816 274 816 206.5 901.5 c 128,-1,5
 139 987 139 987 139 1106 c 0,6,7
 140 1225 140 1225 204 1311 c 0,8,9
 331 1480 331 1480 610 1480 c 128,-1,10
 889 1480 889 1480 1015 1311 c 0,11,12
 1079 1225 1079 1225 1079 1108 c 0,13,14
 1079 881 1079 881 842 770 c 1,15,16
 961 720 961 720 1034 614 c 128,-1,17
 1107 508 1107 508 1107 378.5 c 128,-1,18
 1107 249 1107 249 1037 157.5 c 128,-1,19
 967 66 967 66 856.5 23 c 128,-1,20
 746 -20 746 -20 628.5 -20 c 0,21,22
 512 -20 512 -20 422 6 c 0,23,24
 110 94 110 94 110 396 c 0,0,1
611 159 m 0,25,26
 876 159 876 159 876 395 c 0,27,28
 876 507 876 507 804.5 583 c 128,-1,29
 733 659 733 659 611 689 c 1,30,31
 487 658 487 658 414.5 583 c 128,-1,32
 342 508 342 508 342 394 c 128,-1,33
 342 280 342 280 410.5 219.5 c 128,-1,34
 479 159 479 159 611 159 c 0,25,26
611 835 m 1,35,36
 853 890 853 890 853 1109 c 0,37,38
 853 1202 853 1202 788 1255 c 128,-1,39
 723 1308 723 1308 611 1308 c 128,-1,40
 499 1308 499 1308 432 1254.5 c 128,-1,41
 365 1201 365 1201 365 1109 c 0,42,43
 365 891 365 891 611 835 c 1,35,36
EndSplineSet
EndChar

StartChar: nine
Encoding: 57 57 28
Width: 1217
Flags: W
LayerCount: 2
UndoRedoHistory
Layer: 1
Undoes
EndUndoes
Redoes
EndRedoes
EndUndoRedoHistory
Fore
SplineSet
268 0 m 1,0,-1
 645 490 l 2,1,2
 667 520 667 520 724 593 c 1,3,4
 656 565 656 565 593 565 c 0,5,6
 464 565 464 565 358 620 c 128,-1,7
 252 675 252 675 189.5 778 c 128,-1,8
 127 881 127 881 127 1012 c 0,9,10
 127 1217 127 1217 268.5 1348.5 c 128,-1,11
 410 1480 410 1480 635 1480 c 128,-1,12
 860 1480 860 1480 1000.5 1346.5 c 128,-1,13
 1141 1213 1141 1213 1141 1009 c 0,14,15
 1141 866 1141 866 1079 746 c 0,16,17
 1046 682 1046 682 1011 629 c 128,-1,18
 976 576 976 576 546 0 c 1,19,-1
 268 0 l 1,0,-1
836 810 m 128,-1,21
 912 882 912 882 912 1013 c 128,-1,22
 912 1144 912 1144 842.5 1217 c 128,-1,23
 773 1290 773 1290 640.5 1290 c 128,-1,24
 508 1290 508 1290 433 1214.5 c 128,-1,25
 358 1139 358 1139 358 1013.5 c 128,-1,26
 358 888 358 888 429.5 813 c 128,-1,27
 501 738 501 738 630.5 738 c 128,-1,20
 760 738 760 738 836 810 c 128,-1,21
EndSplineSet
EndChar

StartChar: colon
Encoding: 58 58 29
Width: 605
Flags: W
LayerCount: 2
UndoRedoHistory
Layer: 1
Undoes
EndUndoes
Redoes
EndRedoes
EndUndoRedoHistory
Fore
SplineSet
212.5 842 m 128,-1,1
 174 882 174 882 174 938 c 128,-1,2
 174 994 174 994 212.5 1035 c 128,-1,3
 251 1076 251 1076 311.5 1076 c 128,-1,4
 372 1076 372 1076 410 1035 c 128,-1,5
 448 994 448 994 448 938.5 c 128,-1,6
 448 883 448 883 410 842.5 c 128,-1,7
 372 802 372 802 311.5 802 c 128,-1,0
 251 802 251 802 212.5 842 c 128,-1,1
213.5 34 m 128,-1,9
 175 74 175 74 175 130 c 128,-1,10
 175 186 175 186 213.5 227 c 128,-1,11
 252 268 252 268 312.5 268 c 128,-1,12
 373 268 373 268 411 227 c 128,-1,13
 449 186 449 186 449 130.5 c 128,-1,14
 449 75 449 75 411 34.5 c 128,-1,15
 373 -6 373 -6 312.5 -6 c 128,-1,8
 252 -6 252 -6 213.5 34 c 128,-1,9
EndSplineSet
EndChar

StartChar: semicolon
Encoding: 59 59 30
Width: 600
Flags: W
LayerCount: 2
UndoRedoHistory
Layer: 1
Undoes
EndUndoes
Redoes
EndRedoes
EndUndoRedoHistory
Fore
SplineSet
240.5 825 m 128,-1,1
 202 865 202 865 202 921 c 128,-1,2
 202 977 202 977 240.5 1018 c 128,-1,3
 279 1059 279 1059 339.5 1059 c 128,-1,4
 400 1059 400 1059 438 1018 c 128,-1,5
 476 977 476 977 476 921.5 c 128,-1,6
 476 866 476 866 438 825.5 c 128,-1,7
 400 785 400 785 339.5 785 c 128,-1,0
 279 785 279 785 240.5 825 c 128,-1,1
184 -306 m 1,8,-1
 238 229 l 1,9,-1
 445 229 l 1,10,-1
 321 -306 l 1,11,-1
 184 -306 l 1,8,-1
EndSplineSet
EndChar

StartChar: less
Encoding: 60 60 31
Width: 1157
Flags: W
LayerCount: 2
UndoRedoHistory
Layer: 1
Undoes
EndUndoes
Redoes
EndRedoes
EndUndoRedoHistory
Fore
SplineSet
1046 162 m 1,0,1
 107 613 l 1,2,-1
 107 726 l 1,3,-1
 1047 1208 l 1,4,-1
 1047 1022 l 1,5,-1
 343 675 l 1,6,-1
 1045 355 l 2,7,8
 1046 354 1046 354 1046 162 c 1,0,1
EndSplineSet
EndChar

StartChar: equal
Encoding: 61 61 32
Width: 1217
Flags: W
LayerCount: 2
UndoRedoHistory
Layer: 1
Undoes
EndUndoes
Redoes
EndRedoes
EndUndoRedoHistory
Fore
SplineSet
143 851 m 1,0,-1
 143 1032 l 1,1,-1
 1074 1032 l 1,2,-1
 1074 851 l 1,3,-1
 143 851 l 1,0,-1
143 467 m 1,4,-1
 143 648 l 1,5,-1
 1074 648 l 1,6,-1
 1074 467 l 1,7,-1
 143 467 l 1,4,-1
EndSplineSet
EndChar

StartChar: greater
Encoding: 62 62 33
Width: 1161
Flags: W
LayerCount: 2
UndoRedoHistory
Layer: 1
Undoes
EndUndoes
Redoes
EndRedoes
EndUndoRedoHistory
Fore
SplineSet
147 166 m 1,0,-1
 147 360 l 1,1,-1
 848 675 l 1,2,-1
 148 1025 l 1,3,-1
 148 1212 l 1,4,-1
 1088 725 l 1,5,-1
 1088 613 l 1,6,-1
 147 166 l 1,0,-1
EndSplineSet
EndChar

StartChar: question
Encoding: 63 63 34
Width: 971
Flags: W
LayerCount: 2
UndoRedoHistory
Layer: 1
Undoes
EndUndoes
Redoes
EndRedoes
EndUndoRedoHistory
Fore
SplineSet
385 -10 m 128,-1,1
 324 -10 324 -10 285 31.5 c 128,-1,2
 246 73 246 73 246 130 c 128,-1,3
 246 187 246 187 284.5 228 c 128,-1,4
 323 269 323 269 384.5 269 c 128,-1,5
 446 269 446 269 483.5 228 c 128,-1,6
 521 187 521 187 521 130 c 128,-1,7
 521 73 521 73 483.5 31.5 c 128,-1,0
 446 -10 446 -10 385 -10 c 128,-1,1
433 439 m 1,8,9
 331 439 l 1,10,11
 364 624 364 624 450 766 c 0,12,13
 484 824 484 824 516.5 876 c 0,14,15
 550 928 550 928 570 982 c 0,16,17
 590 1034 590 1034 590 1099 c 0,18,19
 590 1169 590 1169 538 1216 c 0,20,21
 487 1262 487 1262 402.5 1262 c 128,-1,22
 318 1262 318 1262 177 1180 c 1,23,-1
 117 1364 l 1,24,25
 249 1480 249 1480 451 1480 c 0,26,27
 611 1480 611 1480 728 1393.5 c 128,-1,28
 845 1307 845 1307 845 1141.5 c 128,-1,29
 845 976 845 976 723 826 c 0,30,31
 670 762 670 762 614 702 c 0,32,33
 468 546 468 546 433 439 c 1,8,9
EndSplineSet
EndChar

StartChar: at
Encoding: 64 64 35
Width: 1880
Flags: W
LayerCount: 2
UndoRedoHistory
Layer: 1
Undoes
EndUndoes
Redoes
EndRedoes
EndUndoRedoHistory
Fore
SplineSet
1139 465 m 1,0,1
 1039 252 1039 252 857 252 c 0,2,3
 711 252 711 252 632 348.5 c 128,-1,4
 553 445 553 445 553 583.5 c 128,-1,5
 553 722 553 722 603 833 c 128,-1,6
 653 944 653 944 756 1017.5 c 128,-1,7
 859 1091 859 1091 995 1091 c 0,8,9
 1069 1091 1069 1091 1161 1071 c 128,-1,10
 1253 1051 1253 1051 1316 1020 c 1,11,12
 1308 963 1308 963 1288.5 840 c 128,-1,13
 1269 717 1269 717 1260 643 c 128,-1,14
 1251 569 1251 569 1251 511 c 128,-1,15
 1251 453 1251 453 1285.5 413.5 c 128,-1,16
 1320 374 1320 374 1376 374 c 0,17,18
 1471 374 1471 374 1540 481.5 c 128,-1,19
 1609 589 1609 589 1609 780 c 0,20,21
 1609 1014 1609 1014 1456 1179 c 0,22,23
 1381 1260 1381 1260 1258.5 1307.5 c 128,-1,24
 1136 1355 1136 1355 979.5 1355 c 128,-1,25
 823 1355 823 1355 690 1295.5 c 0,26,27
 556 1236 556 1236 470 1136 c 0,28,29
 288 926 288 926 288 640 c 128,-1,30
 288 354 288 354 452 170 c 0,31,32
 532 81 532 81 653.5 30 c 128,-1,33
 775 -21 775 -21 924 -21 c 0,34,35
 1186 -21 1186 -21 1390 95 c 1,36,-1
 1433 -21 l 1,37,38
 1339 -84 1339 -84 1203.5 -117.5 c 128,-1,39
 1068 -151 1068 -151 921 -151 c 0,40,41
 687 -151 687 -151 508 -56.5 c 128,-1,42
 329 38 329 38 228.5 217.5 c 128,-1,43
 128 397 128 397 128 638 c 0,44,45
 128 818 128 818 193 975.5 c 128,-1,46
 258 1133 258 1133 371 1245 c 128,-1,47
 484 1357 484 1357 644 1421.5 c 128,-1,48
 804 1486 804 1486 976 1486 c 128,-1,49
 1148 1486 1148 1486 1288 1435.5 c 128,-1,50
 1428 1385 1428 1385 1531 1294 c 128,-1,51
 1634 1203 1634 1203 1693 1068 c 128,-1,52
 1752 933 1752 933 1752 791 c 0,53,54
 1752 524 1752 524 1632 390 c 128,-1,55
 1512 256 1512 256 1376 256 c 1,56,57
 1236 297 1236 297 1139 465 c 1,0,1
752 429 m 128,-1,59
 794 369 794 369 876.5 369 c 128,-1,60
 959 369 959 369 1008.5 430 c 128,-1,61
 1058 491 1058 491 1077 574.5 c 128,-1,62
 1096 658 1096 658 1114 765.5 c 128,-1,63
 1132 873 1132 873 1139 913.5 c 128,-1,64
 1146 954 1146 954 1147 962 c 1,65,66
 1062 980 1062 980 1011 980 c 0,67,68
 921 980 921 980 851 924 c 128,-1,69
 781 868 781 868 745.5 781 c 128,-1,70
 710 694 710 694 710 591.5 c 128,-1,58
 710 489 710 489 752 429 c 128,-1,59
EndSplineSet
EndChar

StartChar: A
Encoding: 65 65 36
Width: 1365
Flags: W
LayerCount: 2
UndoRedoHistory
Layer: 1
Undoes
EndUndoes
Redoes
EndRedoes
EndUndoRedoHistory
Fore
SplineSet
890 594 m 1,0,-1
 684 1253 l 1,1,-1
 472 594 l 1,2,-1
 890 594 l 1,0,-1
28 0 m 1,3,-1
 537 1460 l 1,4,-1
 828 1460 l 1,5,-1
 1337 0 l 1,6,-1
 1097 0 l 1,7,-1
 945 424 l 1,8,-1
 417 424 l 1,9,-1
 273 0 l 1,10,-1
 28 0 l 1,3,-1
EndSplineSet
EndChar

StartChar: B
Encoding: 66 66 37
Width: 1333
Flags: W
LayerCount: 2
UndoRedoHistory
Layer: 1
Undoes
EndUndoes
Redoes
EndRedoes
EndUndoRedoHistory
Fore
SplineSet
388 684 m 1,0,-1
 388 180 l 1,1,-1
 680 180 l 2,2,3
 843 180 843 180 920.5 243.5 c 128,-1,4
 998 307 998 307 998 439 c 128,-1,5
 998 571 998 571 915 627.5 c 128,-1,6
 832 684 832 684 652 684 c 2,7,-1
 388 684 l 1,0,-1
388 1276 m 1,8,-1
 388 854 l 1,9,-1
 675 854 l 2,10,11
 814 854 814 854 882 901 c 128,-1,12
 950 948 950 948 950 1067 c 128,-1,13
 950 1186 950 1186 873.5 1231 c 128,-1,14
 797 1276 797 1276 621 1276 c 2,15,-1
 388 1276 l 1,8,-1
984 781 m 1,16,17
 1236 690 1236 690 1236 427 c 0,18,19
 1236 225 1236 225 1100 112.5 c 128,-1,20
 964 0 964 0 714 0 c 2,21,-1
 148 0 l 1,22,-1
 148 1460 l 1,23,-1
 642 1460 l 2,24,25
 920 1460 920 1460 1055.5 1375.5 c 128,-1,26
 1191 1291 1191 1291 1191 1098 c 0,27,28
 1191 878 1191 878 984 781 c 1,16,17
EndSplineSet
EndChar

StartChar: C
Encoding: 67 67 38
Width: 1288
Flags: W
LayerCount: 2
UndoRedoHistory
Layer: 1
Undoes
EndUndoes
Redoes
EndRedoes
EndUndoRedoHistory
Fore
SplineSet
527 29 m 128,-1,1
 396 78 396 78 300 171.5 c 128,-1,2
 204 265 204 265 150 409 c 128,-1,3
 96 553 96 553 96 728 c 128,-1,4
 96 903 96 903 152.5 1044 c 128,-1,5
 209 1185 209 1185 306.5 1280 c 128,-1,6
 404 1375 404 1375 535.5 1427.5 c 128,-1,7
 667 1480 667 1480 817 1480 c 0,8,9
 1047 1480 1047 1480 1219 1372 c 1,10,-1
 1146 1192 l 1,11,12
 994 1280 994 1280 816 1280 c 128,-1,13
 638 1280 638 1280 498 1146 c 0,14,15
 430 1080 430 1080 390 972 c 128,-1,16
 350 864 350 864 350 729 c 0,17,18
 350 463 350 463 473 321.5 c 128,-1,19
 596 180 596 180 835 180 c 0,20,21
 917 180 917 180 988 198.5 c 128,-1,22
 1059 217 1059 217 1168 268 c 1,23,-1
 1219 79 l 1,24,25
 1127 31 1127 31 1033.5 5.5 c 128,-1,26
 940 -20 940 -20 799 -20 c 128,-1,0
 658 -20 658 -20 527 29 c 128,-1,1
EndSplineSet
EndChar

StartChar: D
Encoding: 68 68 39
Width: 1486
Flags: W
LayerCount: 2
UndoRedoHistory
Layer: 1
Undoes
EndUndoes
Redoes
EndRedoes
EndUndoRedoHistory
Fore
SplineSet
578 1276 m 2,0,1
 388 1276 l 1,2,-1
 388 180 l 1,3,-1
 606 180 l 2,4,5
 865 180 865 180 1001.5 323.5 c 128,-1,6
 1138 467 1138 467 1138 739 c 0,7,8
 1138 1276 1138 1276 578 1276 c 2,0,1
148 0 m 1,9,-1
 148 1460 l 1,10,-1
 575 1460 l 2,11,12
 940 1460 940 1460 1165 1281.5 c 128,-1,13
 1390 1103 1390 1103 1390 710 c 0,14,15
 1390 502 1390 502 1291 335 c 0,16,17
 1092 0 1092 0 602 0 c 2,18,-1
 148 0 l 1,9,-1
EndSplineSet
EndChar

StartChar: E
Encoding: 69 69 40
Width: 1161
Flags: W
LayerCount: 2
UndoRedoHistory
Layer: 1
Undoes
EndUndoes
Redoes
EndRedoes
EndUndoRedoHistory
Fore
SplineSet
148 0 m 1,0,-1
 148 1460 l 1,1,-1
 1068 1460 l 1,2,-1
 1058 1274 l 1,3,-1
 388 1274 l 1,4,-1
 388 854 l 1,5,-1
 1015 854 l 1,6,-1
 1015 667 l 1,7,-1
 388 667 l 1,8,-1
 388 191 l 1,9,-1
 1085 191 l 1,10,-1
 1077 0 l 1,11,-1
 148 0 l 1,0,-1
EndSplineSet
EndChar

StartChar: F
Encoding: 70 70 41
Width: 1102
Flags: W
LayerCount: 2
UndoRedoHistory
Layer: 1
Undoes
EndUndoes
Redoes
EndRedoes
EndUndoRedoHistory
Fore
SplineSet
148 0 m 1,0,-1
 148 1460 l 1,1,-1
 1071 1460 l 1,2,-1
 1060 1267 l 1,3,-1
 388 1267 l 1,4,-1
 388 822 l 1,5,-1
 1004 822 l 1,6,-1
 1004 638 l 1,7,-1
 388 638 l 1,8,-1
 388 0 l 1,9,-1
 148 0 l 1,0,-1
EndSplineSet
EndChar

StartChar: G
Encoding: 71 71 42
Width: 1432
Flags: W
LayerCount: 2
UndoRedoHistory
Layer: 1
Undoes
EndUndoes
Redoes
EndRedoes
EndUndoRedoHistory
Fore
SplineSet
1273 1367 m 1,0,1
 1212 1179 l 1,2,3
 1115 1228 1115 1228 1031 1254 c 128,-1,4
 947 1280 947 1280 842 1280 c 0,5,6
 618 1280 618 1280 484 1130.5 c 128,-1,7
 350 981 350 981 350 726.5 c 128,-1,8
 350 472 350 472 465 326 c 128,-1,9
 580 180 580 180 815 180 c 0,10,11
 902 180 902 180 975.5 194.5 c 128,-1,12
 1049 209 1049 209 1078 221 c 1,13,-1
 1078 578 l 1,14,-1
 757 578 l 1,15,-1
 766 778 l 1,16,-1
 1306 778 l 1,17,-1
 1306 81 l 1,18,19
 1063 -20 1063 -20 820.5 -20 c 128,-1,20
 578 -20 578 -20 419 75 c 128,-1,21
 260 170 260 170 178 339 c 128,-1,22
 96 508 96 508 96 703 c 128,-1,23
 96 898 96 898 151 1039.5 c 128,-1,24
 206 1181 206 1181 303 1277 c 128,-1,25
 400 1373 400 1373 535 1426.5 c 128,-1,26
 670 1480 670 1480 826 1480 c 0,27,28
 1074 1480 1074 1480 1273 1367 c 1,0,1
EndSplineSet
EndChar

StartChar: H
Encoding: 72 72 43
Width: 1480
Flags: W
LayerCount: 2
UndoRedoHistory
Layer: 1
Undoes
EndUndoes
Redoes
EndRedoes
EndUndoRedoHistory
Fore
SplineSet
148 0 m 1,0,-1
 148 1460 l 1,1,-1
 388 1460 l 1,2,-1
 388 843 l 1,3,-1
 1092 843 l 1,4,-1
 1092 1460 l 1,5,-1
 1332 1460 l 1,6,-1
 1332 0 l 1,7,-1
 1092 0 l 1,8,-1
 1092 655 l 1,9,-1
 388 655 l 1,10,-1
 388 0 l 1,11,-1
 148 0 l 1,0,-1
EndSplineSet
EndChar

StartChar: I
Encoding: 73 73 44
Width: 844
Flags: W
LayerCount: 2
UndoRedoHistory
Layer: 1
Undoes
EndUndoes
Redoes
EndRedoes
EndUndoRedoHistory
Fore
SplineSet
98 1460 m 1,0,-1
 746 1460 l 1,1,-1
 746 1310 l 1,2,-1
 544 1310 l 1,3,-1
 544 150 l 1,4,-1
 746 150 l 1,5,-1
 746 0 l 1,6,-1
 98 0 l 1,7,-1
 98 150 l 1,8,-1
 304 150 l 1,9,-1
 304 1310 l 1,10,-1
 98 1310 l 1,11,-1
 98 1460 l 1,0,-1
EndSplineSet
EndChar

StartChar: J
Encoding: 74 74 45
Width: 798
Flags: W
LayerCount: 2
UndoRedoHistory
Layer: 1
Undoes
EndUndoes
Redoes
EndRedoes
EndUndoRedoHistory
Fore
SplineSet
153 -209 m 1,0,1
 41 -220 l 1,2,-1
 19 -31 l 1,3,-1
 144 -15 l 2,4,5
 290 4 290 4 350 58 c 128,-1,6
 410 112 410 112 410 258 c 2,7,8
 410 1460 l 1,9,-1
 650 1460 l 1,10,-1
 650 253 l 2,11,12
 650 58 650 58 574 -48 c 0,13,14
 480 -178 480 -178 153 -209 c 1,0,1
EndSplineSet
EndChar

StartChar: K
Encoding: 75 75 46
Width: 1316
Flags: W
LayerCount: 2
UndoRedoHistory
Layer: 1
Undoes
EndUndoes
Redoes
EndRedoes
EndUndoRedoHistory
Fore
SplineSet
148 0 m 1,0,-1
 148 1460 l 1,1,-1
 388 1460 l 1,2,-1
 388 774 l 1,3,-1
 1007 1460 l 1,4,-1
 1291 1460 l 1,5,-1
 712 806 l 1,6,-1
 1324 0 l 1,7,-1
 1036 0 l 1,8,-1
 523 680 l 1,9,-1
 388 546 l 1,10,-1
 388 0 l 1,11,-1
 148 0 l 1,0,-1
EndSplineSet
EndChar

StartChar: L
Encoding: 76 76 47
Width: 1097
Flags: W
LayerCount: 2
UndoRedoHistory
Layer: 1
Undoes
EndUndoes
Redoes
EndRedoes
EndUndoRedoHistory
Fore
SplineSet
148 0 m 1,0,-1
 148 1460 l 1,1,-1
 388 1460 l 1,2,-1
 388 180 l 1,3,-1
 1040 180 l 1,4,-1
 1028 0 l 1,5,-1
 148 0 l 1,0,-1
EndSplineSet
EndChar

StartChar: M
Encoding: 77 77 48
Width: 1811
Flags: W
LayerCount: 2
UndoRedoHistory
Layer: 1
Undoes
EndUndoes
Redoes
EndRedoes
EndUndoRedoHistory
Fore
SplineSet
144 0 m 1,0,-1
 180 1460 l 1,1,-1
 432 1460 l 1,2,-1
 906 461 l 1,3,-1
 1385 1460 l 1,4,-1
 1631 1460 l 1,5,-1
 1667 0 l 1,6,-1
 1444 0 l 1,7,-1
 1431 693 l 1,8,-1
 1429 1100 l 1,9,-1
 991 191 l 1,10,-1
 816 191 l 1,11,-1
 384 1107 l 1,12,-1
 381 690 l 1,13,-1
 369 0 l 1,14,-1
 144 0 l 1,0,-1
EndSplineSet
EndChar

StartChar: N
Encoding: 78 78 49
Width: 1526
Flags: W
LayerCount: 2
UndoRedoHistory
Layer: 1
Undoes
EndUndoes
Redoes
EndRedoes
EndUndoRedoHistory
Fore
SplineSet
148 0 m 1,0,-1
 148 1460 l 1,1,-1
 410 1460 l 1,2,-1
 1161 310 l 1,3,-1
 1150 771 l 1,4,-1
 1150 1460 l 1,5,-1
 1378 1460 l 1,6,-1
 1378 0 l 1,7,-1
 1106 0 l 1,8,-1
 361 1129 l 1,9,-1
 376 583 l 1,10,-1
 376 0 l 1,11,-1
 148 0 l 1,0,-1
EndSplineSet
EndChar

StartChar: O
Encoding: 79 79 50
Width: 1615
Flags: W
LayerCount: 2
UndoRedoHistory
Layer: 1
Undoes
EndUndoes
Redoes
EndRedoes
EndUndoRedoHistory
Fore
SplineSet
809 180 m 128,-1,1
 1024 180 1024 180 1144.5 329 c 128,-1,2
 1265 478 1265 478 1265 725.5 c 128,-1,3
 1265 973 1265 973 1143.5 1126.5 c 128,-1,4
 1022 1280 1022 1280 809.5 1280 c 128,-1,5
 597 1280 597 1280 473.5 1126.5 c 128,-1,6
 350 973 350 973 350 726 c 128,-1,7
 350 479 350 479 472 329.5 c 128,-1,0
 594 180 594 180 809 180 c 128,-1,1
289.5 181 m 128,-1,9
 96 382 96 382 96 726.5 c 128,-1,10
 96 1071 96 1071 290.5 1275.5 c 128,-1,11
 485 1480 485 1480 810 1480 c 0,12,13
 1022 1480 1022 1480 1182.5 1388 c 128,-1,14
 1343 1296 1343 1296 1431 1124 c 128,-1,15
 1519 952 1519 952 1519 723 c 0,16,17
 1519 382 1519 382 1327 181 c 128,-1,18
 1135 -20 1135 -20 809 -20 c 128,-1,8
 483 -20 483 -20 289.5 181 c 128,-1,9
EndSplineSet
EndChar

StartChar: P
Encoding: 80 80 51
Width: 1258
Flags: W
LayerCount: 2
UndoRedoHistory
Layer: 1
Undoes
EndUndoes
Redoes
EndRedoes
EndUndoRedoHistory
Fore
SplineSet
388 1280 m 1,0,-1
 388 856 l 1,1,-1
 664 856 l 2,2,3
 827 856 827 856 885 906.5 c 128,-1,4
 943 957 943 957 943 1071.5 c 128,-1,5
 943 1186 943 1186 880 1233 c 128,-1,6
 817 1280 817 1280 682 1280 c 2,7,-1
 388 1280 l 1,0,-1
148 0 m 1,8,-1
 148 1460 l 1,9,-1
 672 1460 l 2,10,11
 909 1460 909 1460 1052.5 1377.5 c 128,-1,12
 1196 1295 1196 1295 1196 1087.5 c 128,-1,13
 1196 880 1196 880 1073 774 c 128,-1,14
 950 668 950 668 671 668 c 2,15,-1
 388 668 l 1,16,-1
 388 0 l 1,17,-1
 148 0 l 1,8,-1
EndSplineSet
EndChar

StartChar: Q
Encoding: 81 81 52
Width: 1615
Flags: W
LayerCount: 2
UndoRedoHistory
Layer: 1
Undoes
EndUndoes
Redoes
EndRedoes
EndUndoRedoHistory
Fore
SplineSet
1231 -434 m 1,0,1
 1127 -340 1127 -340 1035.5 -220.5 c 128,-1,2
 944 -101 944 -101 894 -16 c 1,3,4
 853 -20 853 -20 810 -20 c 0,5,6
 483 -20 483 -20 289.5 181 c 128,-1,7
 96 382 96 382 96 726.5 c 128,-1,8
 96 1071 96 1071 290.5 1275.5 c 128,-1,9
 485 1480 485 1480 810 1480 c 0,10,11
 1022 1480 1022 1480 1182.5 1388 c 128,-1,12
 1343 1296 1343 1296 1431 1124 c 128,-1,13
 1519 952 1519 952 1519 723 c 0,14,15
 1519 382 1519 382 1327 181 c 0,16,17
 1235 85 1235 85 1113 35 c 1,18,19
 1224 -139 1224 -139 1395 -310 c 1,20,-1
 1231 -434 l 1,0,1
809 180 m 128,-1,22
 1024 180 1024 180 1144.5 329 c 128,-1,23
 1265 478 1265 478 1265 725.5 c 128,-1,24
 1265 973 1265 973 1143.5 1126.5 c 128,-1,25
 1022 1280 1022 1280 809.5 1280 c 128,-1,26
 597 1280 597 1280 473.5 1126.5 c 128,-1,27
 350 973 350 973 350 726 c 128,-1,28
 350 479 350 479 472 329.5 c 128,-1,21
 594 180 594 180 809 180 c 128,-1,22
EndSplineSet
EndChar

StartChar: R
Encoding: 82 82 53
Width: 1341
Flags: W
LayerCount: 2
UndoRedoHistory
Layer: 1
Undoes
EndUndoes
Redoes
EndRedoes
EndUndoRedoHistory
Fore
SplineSet
739 1280 m 2,0,1
 388 1280 l 1,2,-1
 388 821 l 1,3,-1
 720 821 l 2,4,5
 864 821 864 821 921.5 875.5 c 128,-1,6
 979 930 979 930 979 1056 c 0,7,8
 979 1280 979 1280 739 1280 c 2,0,1
148 0 m 1,9,-1
 148 1460 l 1,10,-1
 730 1460 l 2,11,12
 969 1460 969 1460 1100 1371 c 128,-1,13
 1231 1282 1231 1282 1231 1071 c 0,14,15
 1231 970 1231 970 1209 902 c 0,16,17
 1161 752 1161 752 983 685 c 1,18,-1
 1078 464 l 1,19,-1
 1287 0 l 1,20,-1
 1013 0 l 1,21,-1
 747 649 l 1,22,-1
 388 649 l 1,23,-1
 388 0 l 1,24,-1
 148 0 l 1,9,-1
EndSplineSet
EndChar

StartChar: S
Encoding: 83 83 54
Width: 1203
Flags: W
LayerCount: 2
UndoRedoHistory
Layer: 1
Undoes
EndUndoes
Redoes
EndRedoes
EndUndoRedoHistory
Fore
SplineSet
613 1288 m 0,0,1
 563 1288 563 1288 506.5 1277.5 c 128,-1,2
 450 1267 450 1267 406 1220 c 128,-1,3
 362 1173 362 1173 362 1101 c 128,-1,4
 362 1029 362 1029 391 992 c 128,-1,5
 420 955 420 955 499.5 919.5 c 128,-1,6
 579 884 579 884 727 829 c 128,-1,7
 875 774 875 774 950 726.5 c 128,-1,8
 1025 679 1025 679 1063.5 598.5 c 128,-1,9
 1102 518 1102 518 1102 368 c 0,10,11
 1102 276 1102 276 1053.5 191 c 0,12,13
 1004 106 1004 106 926 60 c 0,14,15
 595 -132 595 -132 595 -22 c 1,16,17
 348 -22 348 -22 157 90 c 1,18,-1
 157 324 l 1,19,20
 232 267 232 267 327 228 c 128,-1,21
 422 189 422 189 489 181 c 128,-1,22
 556 173 556 173 599 173 c 128,-1,23
 642 173 642 173 703 184 c 128,-1,24
 764 195 764 195 812.5 247.5 c 128,-1,25
 861 300 861 300 861 382 c 128,-1,26
 861 464 861 464 822.5 503 c 128,-1,27
 784 542 784 542 701 578 c 128,-1,28
 618 614 618 614 552.5 639.5 c 128,-1,29
 487 665 487 665 447.5 680.5 c 128,-1,30
 408 696 408 696 342 726 c 128,-1,31
 276 756 276 756 214 816 c 0,32,33
 126 902 126 902 126 1079 c 0,34,35
 126 1291 126 1291 265 1385.5 c 128,-1,36
 404 1480 404 1480 629.5 1480 c 128,-1,37
 855 1480 855 1480 1058 1379 c 1,38,-1
 979 1192 l 1,39,40
 804 1288 804 1288 613 1288 c 0,0,1
EndSplineSet
EndChar

StartChar: T
Encoding: 84 84 55
Width: 1165
Flags: W
LayerCount: 2
UndoRedoHistory
Layer: 1
Undoes
EndUndoes
Redoes
EndRedoes
EndUndoRedoHistory
Fore
SplineSet
462 0 m 1,0,-1
 462 1280 l 1,1,-1
 18 1280 l 1,2,-1
 18 1460 l 1,3,-1
 1147 1460 l 1,4,-1
 1147 1280 l 1,5,-1
 702 1280 l 1,6,-1
 702 0 l 1,7,-1
 462 0 l 1,0,-1
EndSplineSet
EndChar

StartChar: U
Encoding: 85 85 56
Width: 1438
Flags: W
LayerCount: 2
UndoRedoHistory
Layer: 1
Undoes
EndUndoes
Redoes
EndRedoes
EndUndoRedoHistory
Fore
SplineSet
278 127 m 128,-1,1
 122 274 122 274 122 528 c 2,2,-1
 122 1460 l 1,3,-1
 362 1460 l 1,4,-1
 362 541 l 2,5,6
 362 364 362 364 454 272 c 128,-1,7
 546 180 546 180 717 180 c 128,-1,8
 888 180 888 180 982 273 c 128,-1,9
 1076 366 1076 366 1076 542 c 2,10,-1
 1076 1460 l 1,11,-1
 1316 1460 l 1,12,-1
 1316 526 l 2,13,14
 1316 276 1316 276 1157.5 128 c 128,-1,15
 999 -20 999 -20 716.5 -20 c 128,-1,0
 434 -20 434 -20 278 127 c 128,-1,1
EndSplineSet
EndChar

StartChar: V
Encoding: 86 86 57
Width: 1334
Flags: W
LayerCount: 2
UndoRedoHistory
Layer: 1
Undoes
EndUndoes
Redoes
EndRedoes
EndUndoRedoHistory
Fore
SplineSet
525 0 m 1,0,-1
 30 1460 l 1,1,-1
 290 1460 l 1,2,-1
 573 587 l 1,3,-1
 669 280 l 1,4,-1
 1049 1460 l 1,5,-1
 1304 1460 l 1,6,-1
 793 0 l 1,7,-1
 525 0 l 1,0,-1
EndSplineSet
EndChar

StartChar: W
Encoding: 87 87 58
Width: 2048
Flags: W
LayerCount: 2
UndoRedoHistory
Layer: 1
Undoes
EndUndoes
Redoes
EndRedoes
EndUndoRedoHistory
Fore
SplineSet
445 0 m 1,0,-1
 34 1460 l 1,1,-1
 280 1460 l 1,2,-1
 573 328 l 1,3,-1
 908 1442 l 1,4,-1
 1141 1442 l 1,5,-1
 1458 323 l 1,6,-1
 1768 1460 l 1,7,-1
 2014 1460 l 1,8,-1
 1588 0 l 1,9,-1
 1341 0 l 1,10,-1
 1025 1116 l 1,11,-1
 683 0 l 1,12,-1
 445 0 l 1,0,-1
EndSplineSet
EndChar

StartChar: X
Encoding: 88 88 59
Width: 1313
Flags: W
LayerCount: 2
UndoRedoHistory
Layer: 1
Undoes
EndUndoes
Redoes
EndRedoes
EndUndoRedoHistory
Fore
SplineSet
1019 0 m 1,0,-1
 658 548 l 1,1,-1
 283 0 l 1,2,-1
 26 0 l 1,3,-1
 527 747 l 1,4,-1
 58 1460 l 1,5,-1
 330 1460 l 1,6,-1
 680 929 l 1,7,-1
 1016 1460 l 1,8,-1
 1271 1460 l 1,9,-1
 807 737 l 1,10,-1
 1292 0 l 1,11,-1
 1019 0 l 1,0,-1
EndSplineSet
EndChar

StartChar: Y
Encoding: 89 89 60
Width: 1260
Flags: W
LayerCount: 2
UndoRedoHistory
Layer: 1
Undoes
EndUndoes
Redoes
EndRedoes
EndUndoRedoHistory
Fore
SplineSet
515 0 m 1,0,-1
 515 564 l 1,1,-1
 24 1460 l 1,2,-1
 280 1460 l 1,3,-1
 634 783 l 1,4,-1
 983 1460 l 1,5,-1
 1236 1460 l 1,6,-1
 755 566 l 1,7,-1
 755 0 l 1,8,-1
 515 0 l 1,0,-1
EndSplineSet
EndChar

StartChar: Z
Encoding: 90 90 61
Width: 1242
Flags: W
LayerCount: 2
UndoRedoHistory
Layer: 1
Undoes
EndUndoes
Redoes
EndRedoes
EndUndoRedoHistory
Fore
SplineSet
143 0 m 1,0,-1
 143 160 l 1,1,-1
 852 1280 l 1,2,-1
 163 1280 l 1,3,-1
 163 1460 l 1,4,-1
 1124 1460 l 1,5,-1
 1127 1293 l 1,6,-1
 427 180 l 1,7,-1
 1140 180 l 1,8,-1
 1132 0 l 1,9,-1
 143 0 l 1,0,-1
EndSplineSet
EndChar

StartChar: bracketleft
Encoding: 91 91 62
Width: 735
Flags: W
LayerCount: 2
UndoRedoHistory
Layer: 1
Undoes
EndUndoes
Redoes
EndRedoes
EndUndoRedoHistory
Fore
SplineSet
205 -175 m 1,0,-1
 205 1460 l 1,1,-1
 660 1460 l 1,2,-1
 660 1298 l 1,3,-1
 419 1298 l 1,4,-1
 419 -13 l 1,5,-1
 660 -13 l 1,6,-1
 660 -175 l 1,7,-1
 205 -175 l 1,0,-1
EndSplineSet
EndChar

StartChar: backslash
Encoding: 92 92 63
Width: 894
Flags: W
LayerCount: 2
UndoRedoHistory
Layer: 1
Undoes
EndUndoes
Redoes
EndRedoes
EndUndoRedoHistory
Fore
SplineSet
623 0 m 1,0,-1
 115 1460 l 1,1,-1
 313 1460 l 1,2,-1
 818 0 l 1,3,-1
 623 0 l 1,0,-1
EndSplineSet
EndChar

StartChar: bracketright
Encoding: 93 93 64
Width: 736
Flags: W
LayerCount: 2
UndoRedoHistory
Layer: 1
Undoes
EndUndoes
Redoes
EndRedoes
EndUndoRedoHistory
Fore
SplineSet
106 -175 m 1,0,-1
 106 -13 l 1,1,-1
 347 -13 l 1,2,-1
 347 1297 l 1,3,-1
 106 1297 l 1,4,-1
 106 1460 l 1,5,-1
 560 1460 l 1,6,-1
 560 -175 l 1,7,-1
 106 -175 l 1,0,-1
EndSplineSet
EndChar

StartChar: asciicircum
Encoding: 94 94 65
Width: 735
Flags: W
LayerCount: 2
UndoRedoHistory
Layer: 1
Undoes
EndUndoes
Redoes
EndRedoes
EndUndoRedoHistory
Fore
SplineSet
41 1072 m 1,0,-1
 263 1460 l 1,1,-1
 465 1460 l 1,2,-1
 683 1072 l 1,3,-1
 521 1072 l 1,4,-1
 357 1311 l 1,5,-1
 201 1072 l 1,6,-1
 41 1072 l 1,0,-1
EndSplineSet
EndChar

StartChar: underscore
Encoding: 95 95 66
Width: 1051
Flags: W
LayerCount: 2
UndoRedoHistory
Layer: 1
Undoes
EndUndoes
Redoes
EndRedoes
EndUndoRedoHistory
Fore
SplineSet
66 -221 m 1,0,-1
 66 -62 l 1,1,-1
 1017 -62 l 1,2,-1
 1017 -221 l 1,3,-1
 66 -221 l 1,0,-1
EndSplineSet
EndChar

StartChar: grave
Encoding: 96 96 67
Width: 544
Flags: W
LayerCount: 2
UndoRedoHistory
Layer: 1
Undoes
EndUndoes
Redoes
EndRedoes
EndUndoRedoHistory
Fore
SplineSet
360 1058 m 1,0,-1
 51 1460 l 1,1,-1
 316 1460 l 1,2,-1
 501 1058 l 1,3,-1
 360 1058 l 1,0,-1
EndSplineSet
EndChar

StartChar: a
Encoding: 97 97 68
Width: 1042
Flags: W
LayerCount: 2
UndoRedoHistory
Layer: 1
Undoes
EndUndoes
Redoes
EndRedoes
EndUndoRedoHistory
Fore
SplineSet
419 -18 m 0,0,1
 275 -18 275 -18 181.5 62.5 c 128,-1,2
 88 143 88 143 88 302.5 c 128,-1,3
 88 462 88 462 198 537.5 c 128,-1,4
 308 613 308 613 545 613 c 2,5,-1
 706 613 l 1,6,-1
 706 682 l 2,7,8
 706 905 706 905 474 905 c 0,9,10
 362 905 362 905 193 838 c 1,11,-1
 146 999 l 1,12,13
 328 1076 328 1076 503 1076 c 0,14,15
 590 1076 590 1076 664 1054 c 0,16,17
 924 974 924 974 925 662 c 2,18,-1
 925 0 l 1,19,-1
 763 0 l 1,20,-1
 732 153 l 1,21,22
 607 -18 607 -18 419 -18 c 0,0,1
458 147 m 0,23,24
 549 147 549 147 611.5 191 c 128,-1,25
 674 235 674 235 705 273 c 1,26,-1
 705 475 l 1,27,-1
 598 475 l 2,28,29
 431 475 431 475 365 440 c 128,-1,30
 299 405 299 405 299 319 c 0,31,32
 299 147 299 147 458 147 c 0,23,24
EndSplineSet
EndChar

StartChar: b
Encoding: 98 98 69
Width: 1178
Flags: W
LayerCount: 2
UndoRedoHistory
Layer: 1
Undoes
EndUndoes
Redoes
EndRedoes
EndUndoRedoHistory
Fore
SplineSet
661 -18 m 0,0,1
 534 -18 534 -18 438 48 c 0,2,3
 374 92 374 92 334 156 c 1,4,-1
 317 0 l 1,5,-1
 130 0 l 1,6,-1
 130 1460 l 1,7,-1
 352 1480 l 1,8,-1
 352 1103 l 1,9,-1
 349 908 l 1,10,11
 390 974 390 974 467.5 1025 c 128,-1,12
 545 1076 545 1076 666 1076 c 0,13,14
 873 1076 873 1076 988.5 927.5 c 128,-1,15
 1104 779 1104 779 1104 531.5 c 128,-1,16
 1104 284 1104 284 985.5 133 c 128,-1,17
 867 -18 867 -18 661 -18 c 0,0,1
809.5 249.5 m 128,-1,19
 878 347 878 347 878 532.5 c 128,-1,20
 878 718 878 718 812.5 811 c 128,-1,21
 747 904 747 904 622 904 c 0,22,23
 347 904 347 904 347 534 c 0,24,25
 346 347 346 347 418 250 c 0,26,27
 490 152 490 152 615.5 152 c 128,-1,18
 741 152 741 152 809.5 249.5 c 128,-1,19
EndSplineSet
EndChar

StartChar: c
Encoding: 99 99 70
Width: 954
Flags: W
LayerCount: 2
UndoRedoHistory
Layer: 1
Undoes
EndUndoes
Redoes
EndRedoes
EndUndoRedoHistory
Fore
SplineSet
879 61 m 1,0,1
 770 -18 770 -18 583 -18 c 0,2,3
 352 -18 352 -18 213 129.5 c 128,-1,4
 74 277 74 277 74 531.5 c 128,-1,5
 74 786 74 786 219 931 c 128,-1,6
 364 1076 364 1076 568.5 1076 c 128,-1,7
 773 1076 773 1076 885 998 c 1,8,-1
 830 844 l 1,9,10
 736 904 736 904 605.5 904 c 128,-1,11
 475 904 475 904 387.5 805 c 128,-1,12
 300 706 300 706 300 529 c 0,13,14
 300 152 300 152 623 152 c 0,15,16
 731 152 731 152 846 218 c 1,17,-1
 879 61 l 1,0,1
EndSplineSet
EndChar

StartChar: d
Encoding: 100 100 71
Width: 1183
Flags: W
LayerCount: 2
UndoRedoHistory
Layer: 1
Undoes
EndUndoes
Redoes
EndRedoes
EndUndoRedoHistory
Fore
SplineSet
528 -18 m 0,0,1
 317 -18 317 -18 195.5 132 c 128,-1,2
 74 282 74 282 74 530.5 c 128,-1,3
 74 779 74 779 197.5 927.5 c 128,-1,4
 321 1076 321 1076 526.5 1076 c 128,-1,5
 732 1076 732 1076 839 941 c 1,6,-1
 831 1110 l 1,7,-1
 831 1460 l 1,8,-1
 1055 1480 l 1,9,-1
 1055 0 l 1,10,-1
 874 0 l 1,11,-1
 853 169 l 1,12,13
 818 104 818 104 766 58 c 0,14,15
 680 -18 680 -18 528 -18 c 0,0,1
840 518 m 1,16,17
 840 720 840 720 774.5 812 c 128,-1,18
 709 904 709 904 580.5 904 c 128,-1,19
 452 904 452 904 376 813.5 c 128,-1,20
 300 723 300 723 300 533 c 0,21,22
 300 152 300 152 569 152 c 128,-1,23
 838 152 838 152 840 518 c 1,16,17
EndSplineSet
EndChar

StartChar: e
Encoding: 101 101 72
Width: 1049
Flags: W
LayerCount: 2
UndoRedoHistory
Layer: 1
Undoes
EndUndoes
Redoes
EndRedoes
EndUndoRedoHistory
Fore
SplineSet
775 613 m 1,0,1
 760 904 760 904 562 904 c 0,2,3
 448 904 448 904 382.5 822 c 128,-1,4
 317 740 317 740 308 613 c 1,5,-1
 775 613 l 1,0,1
624 -18 m 0,6,7
 392 -18 392 -18 237 120 c 0,8,9
 162 186 162 186 119 291 c 128,-1,10
 76 396 76 396 76 528 c 0,11,12
 76 778 76 778 210 927 c 128,-1,13
 344 1076 344 1076 548.5 1076 c 128,-1,14
 753 1076 753 1076 862 935 c 128,-1,15
 971 794 971 794 971 567 c 0,16,17
 971 547 971 547 963 462 c 1,18,-1
 303 462 l 1,19,20
 314 298 314 298 404.5 224.5 c 128,-1,21
 495 151 495 151 631.5 151 c 128,-1,22
 768 151 768 151 902 218 c 1,23,-1
 936 64 l 1,24,25
 812 -18 812 -18 624 -18 c 0,6,7
EndSplineSet
EndChar

StartChar: f
Encoding: 102 102 73
Width: 718
Flags: W
LayerCount: 2
UndoRedoHistory
Layer: 1
Undoes
EndUndoes
Redoes
EndRedoes
EndUndoRedoHistory
Fore
SplineSet
199 0 m 1,0,-1
 199 912 l 1,1,-1
 30 912 l 1,2,-1
 35 1039 l 1,3,-1
 199 1056 l 1,4,-1
 199 1103 l 2,5,6
 199 1313 199 1313 288 1391 c 128,-1,7
 377 1469 377 1469 537 1469 c 0,8,9
 622 1469 622 1469 710 1451 c 1,10,-1
 690 1291 l 1,11,12
 624 1303 624 1303 560 1303 c 128,-1,13
 496 1303 496 1303 459.5 1270 c 128,-1,14
 423 1237 423 1237 423 1120 c 2,15,-1
 423 1058 l 1,16,-1
 671 1058 l 1,17,-1
 671 912 l 1,18,-1
 423 912 l 1,19,-1
 423 0 l 1,20,-1
 199 0 l 1,0,-1
EndSplineSet
EndChar

StartChar: g
Encoding: 103 103 74
Width: 1176
Flags: W
LayerCount: 2
UndoRedoHistory
Layer: 1
Undoes
EndUndoes
Redoes
EndRedoes
EndUndoRedoHistory
Fore
SplineSet
564 187 m 0,0,1
 831 187 831 187 833 512 c 1,2,-1
 833 566 l 2,3,4
 833 904 833 904 570 904 c 0,5,6
 431 904 431 904 365.5 803 c 128,-1,7
 300 702 300 702 300 540 c 0,8,9
 300 464 300 464 314 403 c 0,10,11
 362 187 362 187 564 187 c 0,0,1
837 909 m 1,12,13
 848 1058 l 1,14,-1
 1054 1058 l 1,15,-1
 1054 68 l 2,16,17
 1054 -155 1054 -155 933.5 -305 c 0,18,19
 812 -455 812 -455 534 -455 c 0,20,21
 392 -455 392 -455 206 -404 c 1,22,-1
 233 -232 l 1,23,24
 395 -279 395 -279 513 -279 c 1,25,26
 697 -279 697 -279 775 -185 c 0,27,28
 854 -91 854 -91 854 42 c 1,29,30
 854 107 854 107 848 202 c 1,31,32
 816 138 816 138 761 94 c 0,33,34
 664 16 664 16 527 17 c 0,35,36
 319 17 319 17 196.5 163 c 128,-1,37
 74 309 74 309 74 542.5 c 128,-1,38
 74 776 74 776 201.5 926 c 128,-1,39
 329 1076 329 1076 539 1076 c 129,-1,40
 749 1076 749 1076 837 909 c 1,12,13
EndSplineSet
EndChar

StartChar: h
Encoding: 104 104 75
Width: 1141
Flags: W
LayerCount: 2
UndoRedoHistory
Layer: 1
Undoes
EndUndoes
Redoes
EndRedoes
EndUndoRedoHistory
Fore
SplineSet
350 539 m 2,0,1
 350 0 l 1,2,-1
 128 0 l 1,3,-1
 128 1460 l 1,4,-1
 352 1480 l 1,5,-1
 352 1133 l 1,6,-1
 346 887 l 1,7,8
 383 957 383 957 441 1002 c 0,9,10
 537 1076 537 1076 665 1076 c 0,11,12
 839 1076 839 1076 935 970 c 128,-1,13
 1031 864 1031 864 1031 657 c 2,14,-1
 1031 0 l 1,15,-1
 807 0 l 1,16,-1
 807 640 l 2,17,18
 807 778 807 778 765 841 c 128,-1,19
 723 904 723 904 610 904 c 0,20,21
 350 904 350 904 350 539 c 2,0,1
EndSplineSet
EndChar

StartChar: i
Encoding: 105 105 76
Width: 518
Flags: W
LayerCount: 2
UndoRedoHistory
Layer: 1
Undoes
EndUndoes
Redoes
EndRedoes
EndUndoRedoHistory
Fore
SplineSet
264 1460 m 128,-1,1
 327 1460 327 1460 364 1429 c 128,-1,2
 401 1398 401 1398 401 1340 c 128,-1,3
 401 1282 401 1282 364 1251 c 128,-1,4
 327 1220 327 1220 264 1220 c 128,-1,5
 201 1220 201 1220 163.5 1251 c 128,-1,6
 126 1282 126 1282 126 1340 c 128,-1,7
 126 1398 126 1398 163.5 1429 c 128,-1,0
 201 1460 201 1460 264 1460 c 128,-1,1
158 0 m 1,8,-1
 158 1058 l 1,9,-1
 378 1058 l 1,10,-1
 378 0 l 1,11,-1
 158 0 l 1,8,-1
EndSplineSet
EndChar

StartChar: j
Encoding: 106 106 77
Width: 567
Flags: W
LayerCount: 2
UndoRedoHistory
Layer: 1
Undoes
EndUndoes
Redoes
EndRedoes
EndUndoRedoHistory
Fore
SplineSet
318 1460 m 128,-1,1
 381 1460 381 1460 418 1429 c 128,-1,2
 455 1398 455 1398 455 1340 c 128,-1,3
 455 1282 455 1282 418 1251 c 128,-1,4
 381 1220 381 1220 318 1220 c 128,-1,5
 255 1220 255 1220 217.5 1251 c 128,-1,6
 180 1282 180 1282 180 1340 c 128,-1,7
 180 1398 180 1398 217.5 1429 c 128,-1,0
 255 1460 255 1460 318 1460 c 128,-1,1
8 -380 m 1,8,-1
 -14 -205 l 1,9,-1
 26 -201 l 2,10,11
 101 -194 101 -194 137 -176 c 128,-1,12
 173 -158 173 -158 188.5 -116 c 128,-1,13
 204 -74 204 -74 204 10 c 2,14,-1
 204 1058 l 1,15,-1
 424 1058 l 1,16,-1
 424 21 l 2,17,18
 424 -96 424 -96 410 -165 c 128,-1,19
 396 -234 396 -234 354 -280 c 128,-1,20
 312 -326 312 -326 246.5 -346 c 128,-1,21
 181 -366 181 -366 69 -375 c 2,22,-1
 8 -380 l 1,8,-1
EndSplineSet
EndChar

StartChar: k
Encoding: 107 107 78
Width: 1069
Flags: W
LayerCount: 2
UndoRedoHistory
Layer: 1
Undoes
EndUndoes
Redoes
EndRedoes
EndUndoRedoHistory
Fore
SplineSet
128 0 m 1,0,-1
 128 1460 l 1,1,-1
 350 1480 l 1,2,-1
 350 783 l 1,3,-1
 344 572 l 1,4,-1
 786 1058 l 1,5,-1
 1061 1058 l 1,6,-1
 617 578 l 1,7,-1
 1083 0 l 1,8,-1
 820 0 l 1,9,-1
 451 465 l 1,10,-1
 350 371 l 1,11,-1
 350 0 l 1,12,-1
 128 0 l 1,0,-1
EndSplineSet
EndChar

StartChar: l
Encoding: 108 108 79
Width: 644
Flags: W
LayerCount: 2
UndoRedoHistory
Layer: 1
Undoes
EndUndoes
Redoes
EndRedoes
EndUndoRedoHistory
Fore
SplineSet
597 -6 m 1,0,-1
 525 -6 l 2,1,2
 363 -6 363 -6 276 33 c 0,3,4
 138 95 138 95 138 327 c 2,5,-1
 138 1460 l 1,6,-1
 360 1480 l 1,7,-1
 360 309 l 2,8,9
 360 234 360 234 394.5 204 c 128,-1,10
 429 174 429 174 515 167 c 2,11,-1
 610 159 l 1,12,-1
 597 -6 l 1,0,-1
EndSplineSet
EndChar

StartChar: m
Encoding: 109 109 80
Width: 1699
Flags: W
LayerCount: 2
UndoRedoHistory
Layer: 1
Undoes
EndUndoes
Redoes
EndRedoes
EndUndoRedoHistory
Fore
SplineSet
638 1076 m 1,0,1
 797 1035 797 1035 919 854 c 1,2,3
 1018 1076 1018 1076 1248 1076 c 0,4,5
 1583 1076 1583 1076 1583 676 c 2,6,-1
 1583 0 l 1,7,-1
 1362 0 l 1,8,-1
 1362 603 l 2,9,10
 1362 664 1362 664 1357.5 735 c 128,-1,11
 1353 806 1353 806 1318.5 855 c 128,-1,12
 1284 904 1284 904 1191 904 c 128,-1,13
 1098 904 1098 904 1032.5 808.5 c 128,-1,14
 967 713 967 713 967 560 c 2,15,16
 967 0 l 1,17,-1
 746 0 l 1,18,-1
 746 605 l 2,19,20
 746 767 746 767 712.5 835.5 c 128,-1,21
 679 904 679 904 575.5 904 c 128,-1,22
 472 904 472 904 409.5 810 c 128,-1,23
 347 716 347 716 347 559 c 2,24,-1
 347 0 l 1,25,-1
 126 0 l 1,26,-1
 126 1058 l 1,27,-1
 308 1058 l 1,28,-1
 332 875 l 1,29,30
 423 1076 423 1076 638 1076 c 1,0,1
EndSplineSet
EndChar

StartChar: n
Encoding: 110 110 81
Width: 1160
Flags: W
LayerCount: 2
UndoRedoHistory
Layer: 1
Undoes
EndUndoes
Redoes
EndRedoes
EndUndoRedoHistory
Fore
SplineSet
126 0 m 1,0,-1
 126 1058 l 1,1,-1
 311 1058 l 1,2,-1
 335 858 l 1,3,4
 368 932 368 932 424 988 c 0,5,6
 512 1076 512 1076 680 1076 c 128,-1,7
 848 1076 848 1076 947 963.5 c 128,-1,8
 1046 851 1046 851 1046 646 c 2,9,-1
 1046 0 l 1,10,-1
 822 0 l 1,11,-1
 822 628 l 2,12,13
 822 767 822 767 774.5 835.5 c 128,-1,14
 727 904 727 904 609 904 c 128,-1,15
 491 904 491 904 420.5 795 c 128,-1,16
 350 686 350 686 350 529 c 2,17,-1
 350 0 l 1,18,-1
 126 0 l 1,0,-1
EndSplineSet
EndChar

StartChar: o
Encoding: 111 111 82
Width: 1173
Flags: W
LayerCount: 2
UndoRedoHistory
Layer: 1
Undoes
EndUndoes
Redoes
EndRedoes
EndUndoRedoHistory
Fore
SplineSet
798 251.5 m 128,-1,1
 871 351 871 351 871 530 c 128,-1,2
 871 709 871 709 798 806.5 c 128,-1,3
 725 904 725 904 588 904 c 128,-1,4
 451 904 451 904 376.5 806 c 128,-1,5
 302 708 302 708 302 530 c 128,-1,6
 302 352 302 352 376 252 c 128,-1,7
 450 152 450 152 587.5 152 c 128,-1,0
 725 152 725 152 798 251.5 c 128,-1,1
216.5 133 m 128,-1,9
 76 284 76 284 76 533 c 128,-1,10
 76 782 76 782 213 929 c 128,-1,11
 350 1076 350 1076 585 1076 c 128,-1,12
 820 1076 820 1076 958.5 927.5 c 128,-1,13
 1097 779 1097 779 1097 530 c 128,-1,14
 1097 281 1097 281 958 131.5 c 128,-1,15
 819 -18 819 -18 588 -18 c 128,-1,8
 357 -18 357 -18 216.5 133 c 128,-1,9
EndSplineSet
EndChar

StartChar: p
Encoding: 112 112 83
Width: 1163
Flags: W
LayerCount: 2
UndoRedoHistory
Layer: 1
Undoes
EndUndoes
Redoes
EndRedoes
EndUndoRedoHistory
Fore
SplineSet
663 1076 m 0,0,1
 796 1076 796 1076 894 1005 c 0,2,3
 1090 863 1090 863 1090 530 c 0,4,5
 1090 287 1090 287 967.5 134.5 c 128,-1,6
 845 -18 845 -18 644.5 -18 c 128,-1,7
 444 -18 444 -18 341 153 c 1,8,9
 346 -37 l 1,10,-1
 346 -441 l 1,11,-1
 122 -441 l 1,12,-1
 122 1058 l 1,13,-1
 307 1058 l 1,14,-1
 330 871 l 1,15,16
 423 1076 423 1076 663 1076 c 0,0,1
611 904 m 0,17,18
 344 904 344 904 343 548 c 1,19,20
 343 152 343 152 605 152 c 0,21,22
 730 152 730 152 797 249 c 128,-1,23
 864 346 864 346 864 532 c 0,24,25
 864 904 864 904 611 904 c 0,17,18
EndSplineSet
EndChar

StartChar: q
Encoding: 113 113 84
Width: 1173
Flags: W
LayerCount: 2
UndoRedoHistory
Layer: 1
Undoes
EndUndoes
Redoes
EndRedoes
EndUndoRedoHistory
Fore
SplineSet
833 -441 m 1,0,-1
 833 -20 l 1,1,-1
 837 158 l 1,2,3
 746 -18 746 -18 534.5 -18 c 128,-1,4
 323 -18 323 -18 198.5 131.5 c 128,-1,5
 74 281 74 281 74 528 c 128,-1,6
 74 775 74 775 199 925.5 c 128,-1,7
 324 1076 324 1076 527 1076 c 0,8,9
 668 1076 668 1076 751 1002 c 0,10,11
 804 955 804 955 841 879 c 1,12,-1
 857 1058 l 1,13,-1
 1057 1058 l 1,14,-1
 1057 -429 l 1,15,-1
 833 -441 l 1,0,-1
567 152 m 0,16,17
 838 152 838 152 838 529 c 0,18,19
 838 904 838 904 574 904 c 0,20,21
 444 904 444 904 372 807 c 128,-1,22
 300 710 300 710 300 529.5 c 128,-1,23
 300 349 300 349 371 250.5 c 128,-1,24
 442 152 442 152 567 152 c 0,16,17
EndSplineSet
EndChar

StartChar: r
Encoding: 114 114 85
Width: 775
Flags: W
LayerCount: 2
UndoRedoHistory
Layer: 1
Undoes
EndUndoes
Redoes
EndRedoes
EndUndoRedoHistory
Fore
SplineSet
662 1065 m 0,0,1
 712 1065 712 1065 742 1059 c 1,2,-1
 737 886 l 1,3,4
 702 893 702 893 656 893 c 0,5,6
 515 893 515 893 435.5 816 c 128,-1,7
 356 739 356 739 356 584 c 2,8,-1
 356 0 l 1,9,-1
 132 0 l 1,10,-1
 132 1058 l 1,11,-1
 317 1058 l 1,12,-1
 342 858 l 1,13,14
 441 1065 441 1065 662 1065 c 0,0,1
EndSplineSet
EndChar

StartChar: s
Encoding: 115 115 86
Width: 918
Flags: W
LayerCount: 2
UndoRedoHistory
Layer: 1
Undoes
EndUndoes
Redoes
EndRedoes
EndUndoRedoHistory
Fore
SplineSet
129 62 m 1,0,1
 129 257 l 1,2,3
 316 155 316 155 464 155 c 0,4,5
 547 155 547 155 589 190.5 c 128,-1,6
 631 226 631 226 631 281.5 c 128,-1,7
 631 337 631 337 606 369 c 128,-1,8
 581 401 581 401 418 458 c 0,9,10
 168 544 168 544 129 670 c 0,11,12
 115 716 115 716 115 787 c 0,13,14
 115 938 115 938 221 1007 c 128,-1,15
 327 1076 327 1076 491.5 1076 c 128,-1,16
 656 1076 656 1076 806 989 c 1,17,-1
 746 816 l 1,18,19
 618 904 618 904 484 904 c 0,20,21
 317 904 317 904 317 783 c 0,22,23
 317 739 317 739 348 711 c 128,-1,24
 379 683 379 683 475 649 c 0,25,26
 708 566 708 566 778 482 c 0,27,28
 815 438 815 438 827 396.5 c 128,-1,29
 839 355 839 355 839 297 c 0,30,31
 839 193 839 193 787 120 c 0,32,33
 689 -18 689 -18 469 -18 c 0,34,35
 287 -18 287 -18 129 62 c 1,0,1
EndSplineSet
EndChar

StartChar: t
Encoding: 116 116 87
Width: 774
Flags: W
LayerCount: 2
UndoRedoHistory
Layer: 1
Undoes
EndUndoes
Redoes
EndRedoes
EndUndoRedoHistory
Fore
SplineSet
689 -6 m 1,0,-1
 553 -6 l 2,1,2
 334 -6 334 -6 258 82 c 0,3,4
 217 130 217 130 201.5 196 c 128,-1,5
 186 262 186 262 186 367 c 2,6,-1
 186 912 l 1,7,-1
 19 912 l 1,8,-1
 26 1047 l 1,9,-1
 198 1058 l 1,10,-1
 219 1352 l 1,11,-1
 410 1367 l 1,12,-1
 410 1058 l 1,13,-1
 682 1058 l 1,14,-1
 682 912 l 1,15,-1
 410 912 l 1,16,-1
 410 361 l 2,17,18
 410 279 410 279 424 238 c 128,-1,19
 438 197 438 197 478 185 c 128,-1,20
 518 173 518 173 652 161 c 2,21,-1
 698 157 l 1,22,-1
 689 -6 l 1,0,-1
EndSplineSet
EndChar

StartChar: u
Encoding: 117 117 88
Width: 1147
Flags: W
LayerCount: 2
UndoRedoHistory
Layer: 1
Undoes
EndUndoes
Redoes
EndRedoes
EndUndoRedoHistory
Fore
SplineSet
488 -18 m 0,0,1
 305 -18 305 -18 207 87 c 128,-1,2
 109 192 109 192 109 400 c 2,3,-1
 109 1058 l 1,4,-1
 333 1058 l 1,5,-1
 333 409 l 2,6,7
 333 280 333 280 381.5 216 c 128,-1,8
 430 152 430 152 557.5 152 c 128,-1,9
 685 152 685 152 742 237.5 c 128,-1,10
 799 323 799 323 799 491 c 2,11,-1
 799 1058 l 1,12,-1
 1023 1058 l 1,13,-1
 1023 0 l 1,14,-1
 844 0 l 1,15,-1
 822 165 l 1,16,17
 729 -18 729 -18 488 -18 c 0,0,1
EndSplineSet
EndChar

StartChar: v
Encoding: 118 118 89
Width: 1052
Flags: W
LayerCount: 2
UndoRedoHistory
Layer: 1
Undoes
EndUndoes
Redoes
EndRedoes
EndUndoRedoHistory
Fore
SplineSet
425 0 m 1,0,-1
 14 1058 l 1,1,-1
 248 1058 l 1,2,-1
 455 475 l 1,3,-1
 536 235 l 1,4,-1
 610 475 l 1,5,-1
 812 1058 l 1,6,-1
 1038 1058 l 1,7,-1
 639 0 l 1,8,-1
 425 0 l 1,0,-1
EndSplineSet
EndChar

StartChar: w
Encoding: 119 119 90
Width: 1510
Flags: W
LayerCount: 2
UndoRedoHistory
Layer: 1
Undoes
EndUndoes
Redoes
EndRedoes
EndUndoRedoHistory
Fore
SplineSet
310 0 m 1,0,-1
 24 1058 l 1,1,-1
 237 1058 l 1,2,-1
 428 258 l 1,3,-1
 653 1058 l 1,4,-1
 870 1058 l 1,5,-1
 1091 260 l 1,6,-1
 1287 1058 l 1,7,-1
 1486 1058 l 1,8,-1
 1192 0 l 1,9,-1
 992 0 l 1,10,-1
 755 831 l 1,11,-1
 512 0 l 1,12,-1
 310 0 l 1,0,-1
EndSplineSet
EndChar

StartChar: x
Encoding: 120 120 91
Width: 1061
Flags: W
LayerCount: 2
UndoRedoHistory
Layer: 1
Undoes
EndUndoes
Redoes
EndRedoes
EndUndoRedoHistory
Fore
SplineSet
796 0 m 1,0,-1
 514 392 l 1,1,-1
 252 0 l 1,2,-1
 16 0 l 1,3,-1
 402 549 l 1,4,-1
 36 1058 l 1,5,-1
 283 1058 l 1,6,-1
 552 685 l 1,7,-1
 796 1058 l 1,8,-1
 1034 1058 l 1,9,-1
 665 528 l 1,10,-1
 1045 0 l 1,11,-1
 796 0 l 1,0,-1
EndSplineSet
EndChar

StartChar: y
Encoding: 121 121 92
Width: 1047
Flags: W
LayerCount: 2
UndoRedoHistory
Layer: 1
Undoes
EndUndoes
Redoes
EndRedoes
EndUndoRedoHistory
Fore
SplineSet
481 -444 m 1,0,-1
 279 -412 l 1,1,-1
 451 38 l 1,2,-1
 33 1058 l 1,3,-1
 258 1058 l 1,4,-1
 550 303 l 1,5,-1
 805 1058 l 1,6,-1
 1036 1058 l 1,7,-1
 481 -444 l 1,0,-1
EndSplineSet
EndChar

StartChar: z
Encoding: 122 122 93
Width: 889
Flags: W
LayerCount: 2
UndoRedoHistory
Layer: 1
Undoes
EndUndoes
Redoes
EndRedoes
EndUndoRedoHistory
Fore
SplineSet
87 0 m 1,0,-1
 87 140 l 1,1,-1
 581 898 l 1,2,-1
 109 898 l 1,3,-1
 109 1058 l 1,4,-1
 823 1058 l 1,5,-1
 823 904 l 1,6,-1
 342 166 l 1,7,-1
 836 166 l 1,8,-1
 836 0 l 1,9,-1
 87 0 l 1,0,-1
EndSplineSet
EndChar

StartChar: braceleft
Encoding: 123 123 94
Width: 738
Flags: W
LayerCount: 2
UndoRedoHistory
Layer: 1
Undoes
EndUndoes
Redoes
EndRedoes
EndUndoRedoHistory
Fore
SplineSet
664 -269 m 1,0,1
 466 -269 466 -269 374.5 -196 c 128,-1,2
 283 -123 283 -123 283 46 c 2,3,-1
 283 279 l 2,4,5
 283 402 283 402 253.5 445.5 c 128,-1,6
 224 489 224 489 182.5 503.5 c 128,-1,7
 141 518 141 518 75 518 c 1,8,-1
 75 703 l 1,9,10
 206 703 206 703 244 759 c 0,11,12
 283 815 283 815 283 939 c 2,13,-1
 283 1201 l 2,14,15
 283 1359 283 1359 377.5 1429 c 128,-1,16
 472 1499 472 1499 664 1499 c 1,17,-1
 664 1323 l 1,18,19
 561 1322 561 1322 527 1282.5 c 128,-1,20
 493 1243 493 1243 493 1133 c 2,21,-1
 493 873 l 1,22,23
 492 769 492 769 450.5 708 c 128,-1,24
 409 647 409 647 313 608 c 1,25,26
 405 582 405 582 449 521 c 128,-1,27
 493 460 493 460 493 354 c 2,28,-1
 493 93 l 2,29,30
 493 -16 493 -16 526.5 -55.5 c 128,-1,31
 560 -95 560 -95 664 -96 c 1,32,-1
 664 -269 l 1,0,1
EndSplineSet
EndChar

StartChar: bar
Encoding: 124 124 95
Width: 499
Flags: W
LayerCount: 2
UndoRedoHistory
Layer: 1
Undoes
EndUndoes
Redoes
EndRedoes
EndUndoRedoHistory
Fore
SplineSet
179 -317 m 1,0,-1
 179 1480 l 1,1,-1
 356 1480 l 1,2,-1
 356 -317 l 1,3,-1
 179 -317 l 1,0,-1
EndSplineSet
EndChar

StartChar: braceright
Encoding: 125 125 96
Width: 738
Flags: W
LayerCount: 2
UndoRedoHistory
Layer: 1
Undoes
EndUndoes
Redoes
EndRedoes
EndUndoRedoHistory
Fore
SplineSet
98 -269 m 1,0,-1
 98 -96 l 1,1,2
 201 -95 201 -95 234.5 -56 c 128,-1,3
 268 -17 268 -17 268 93 c 2,4,-1
 268 354 l 2,5,6
 268 451 268 451 311 513 c 128,-1,7
 354 575 354 575 449 613 c 1,8,9
 270 674 270 674 268 874 c 1,10,-1
 268 1133 l 2,11,12
 268 1243 268 1243 234.5 1283 c 128,-1,13
 201 1323 201 1323 98 1324 c 1,14,-1
 98 1499 l 1,15,16
 296 1499 296 1499 386.5 1425 c 128,-1,17
 477 1351 477 1351 477 1180 c 2,18,-1
 477 940 l 2,19,20
 477 819 477 819 506.5 776 c 128,-1,21
 536 733 536 733 578 719.5 c 128,-1,22
 620 706 620 706 687 705 c 1,23,-1
 687 520 l 1,24,25
 558 520 558 520 518 462 c 0,26,27
 477 404 477 404 477 281 c 2,28,-1
 477 25 l 2,29,30
 477 -133 477 -133 384.5 -201 c 128,-1,31
 292 -269 292 -269 98 -269 c 1,0,-1
EndSplineSet
EndChar

StartChar: asciitilde
Encoding: 126 126 97
AltUni2: 000303.ffffffff.0
Width: 784
Flags: W
LayerCount: 2
UndoRedoHistory
Layer: 1
Undoes
EndUndoes
Redoes
EndRedoes
EndUndoRedoHistory
Fore
SplineSet
606 1460 m 1,0,1
 721 1460 l 1,2,3
 721 1360 721 1360 677.5 1293.5 c 128,-1,4
 634 1227 634 1227 550 1227 c 0,5,6
 503 1227 503 1227 446.5 1251.5 c 128,-1,7
 390 1276 390 1276 341 1300 c 128,-1,8
 292 1324 292 1324 264 1324 c 0,9,10
 210 1324 210 1324 192 1227 c 1,11,-1
 78 1227 l 1,12,13
 78 1330 78 1330 124.5 1395.5 c 128,-1,14
 171 1461 171 1461 259.5 1461 c 128,-1,15
 348 1461 348 1461 478 1399 c 0,16,17
 522 1378 522 1378 545 1378 c 0,18,19
 590 1378 590 1378 606 1460 c 1,0,1
EndSplineSet
EndChar

StartChar: cent
Encoding: 162 162 100
Width: 982
Flags: W
LayerCount: 2
UndoRedoHistory
Layer: 1
Undoes
EndUndoes
Redoes
EndRedoes
EndUndoRedoHistory
Fore
SplineSet
879 61 m 1,0,1
 788 -5 788 -5 644 -16 c 1,2,-1
 614 -278 l 1,3,-1
 528 -278 l 1,4,-1
 502 -13 l 1,5,6
 327 10 327 10 213 130 c 0,7,8
 74 278 74 278 74 532 c 128,-1,9
 74 786 74 786 221 933 c 0,10,11
 338 1050 338 1050 512 1072 c 1,12,-1
 543 1340 l 1,13,-1
 629 1340 l 1,14,-1
 656 1073 l 1,15,16
 795 1061 795 1061 885 998 c 1,17,-1
 830 844 l 1,18,19
 736 904 736 904 605.5 904 c 128,-1,20
 475 904 475 904 387.5 805 c 128,-1,21
 300 706 300 706 300 529 c 0,22,23
 300 152 300 152 623 152 c 0,24,25
 731 152 731 152 846 218 c 1,26,-1
 879 61 l 1,0,1
EndSplineSet
EndChar

StartChar: sterling
Encoding: 163 163 101
Width: 1085
Flags: W
LayerCount: 2
UndoRedoHistory
Layer: 1
Undoes
EndUndoes
Redoes
EndRedoes
EndUndoRedoHistory
Fore
SplineSet
98 10 m 1,0,-1
 87 179 l 1,1,-1
 262 199 l 1,2,-1
 262 660 l 1,3,-1
 82 660 l 1,4,-1
 82 822 l 1,5,-1
 262 822 l 1,6,-1
 262 925 l 2,7,8
 262 1234 262 1234 394 1370 c 0,9,10
 497 1476 497 1476 696.5 1476 c 128,-1,11
 896 1476 896 1476 1051 1344 c 1,12,-1
 957 1197 l 1,13,14
 824 1294 824 1294 700 1294 c 128,-1,15
 576 1294 576 1294 524 1217.5 c 128,-1,16
 472 1141 472 1141 472 996 c 2,17,-1
 472 822 l 1,18,-1
 859 822 l 1,19,-1
 859 660 l 1,20,-1
 472 660 l 1,21,-1
 472 201 l 1,22,-1
 1067 201 l 1,23,-1
 1058 10 l 1,24,-1
 98 10 l 1,0,-1
EndSplineSet
EndChar

StartChar: currency
Encoding: 164 164 102
Width: 1152
Flags: W
LayerCount: 2
UndoRedoHistory
Layer: 1
Undoes
EndUndoes
Redoes
EndRedoes
EndUndoRedoHistory
Fore
SplineSet
1029 227 m 1,0,-1
 848 397 l 1,1,2
 739 312 739 312 598 312 c 128,-1,3
 457 312 457 312 350 396 c 1,4,-1
 174 228 l 1,5,-1
 86 314 l 1,6,-1
 266 486 l 1,7,8
 192 593 192 593 192 721 c 128,-1,9
 192 849 192 849 266 958 c 1,10,-1
 85 1132 l 1,11,-1
 174 1218 l 1,12,-1
 351 1049 l 1,13,14
 462 1134 462 1134 601.5 1134 c 128,-1,15
 741 1134 741 1134 848 1048 c 1,16,-1
 1029 1218 l 1,17,-1
 1113 1130 l 1,18,-1
 934 958 l 1,19,20
 1008 848 1008 848 1008 719.5 c 128,-1,21
 1008 591 1008 591 935 486 c 1,22,-1
 1112 315 l 1,23,-1
 1029 227 l 1,0,-1
800.5 520.5 m 128,-1,25
 880 603 880 603 880 722 c 128,-1,26
 880 841 880 841 800 924.5 c 128,-1,27
 720 1008 720 1008 600.5 1008 c 128,-1,28
 481 1008 481 1008 401.5 924.5 c 128,-1,29
 322 841 322 841 322 722.5 c 128,-1,30
 322 604 322 604 401.5 521 c 128,-1,31
 481 438 481 438 601 438 c 128,-1,24
 721 438 721 438 800.5 520.5 c 128,-1,25
EndSplineSet
EndChar

StartChar: yen
Encoding: 165 165 103
Width: 1260
Flags: W
LayerCount: 2
UndoRedoHistory
Layer: 1
Undoes
EndUndoes
Redoes
EndRedoes
EndUndoRedoHistory
Fore
SplineSet
515 0 m 1,0,-1
 515 250 l 1,1,-1
 192 250 l 1,2,-1
 192 397 l 1,3,-1
 515 397 l 1,4,-1
 515 543 l 1,5,-1
 193 543 l 1,6,-1
 193 684 l 1,7,-1
 449 684 l 1,8,-1
 24 1460 l 1,9,-1
 280 1460 l 1,10,-1
 634 783 l 1,11,-1
 983 1460 l 1,12,-1
 1236 1460 l 1,13,-1
 818 684 l 1,14,-1
 1076 684 l 1,15,-1
 1076 543 l 1,16,-1
 755 543 l 1,17,-1
 755 397 l 1,18,-1
 1076 397 l 1,19,-1
 1076 250 l 1,20,-1
 755 250 l 1,21,-1
 755 0 l 1,22,-1
 515 0 l 1,0,-1
EndSplineSet
EndChar

StartChar: brokenbar
Encoding: 166 166 104
Width: 564
Flags: W
LayerCount: 2
UndoRedoHistory
Layer: 1
Undoes
EndUndoes
Redoes
EndRedoes
EndUndoRedoHistory
Fore
SplineSet
211 -303 m 1,0,-1
 211 404 l 1,1,-1
 388 404 l 1,2,-1
 388 -303 l 1,3,-1
 211 -303 l 1,0,-1
211 765 m 1,4,-1
 211 1470 l 1,5,-1
 388 1470 l 1,6,-1
 388 765 l 1,7,-1
 211 765 l 1,4,-1
EndSplineSet
EndChar

StartChar: section
Encoding: 167 167 105
Width: 918
Flags: W
LayerCount: 2
UndoRedoHistory
Layer: 1
Undoes
EndUndoes
Redoes
EndRedoes
EndUndoRedoHistory
Fore
SplineSet
602 604 m 1,0,1
 638 641 638 641 638 693.5 c 128,-1,2
 638 746 638 746 605 778.5 c 128,-1,3
 572 811 572 811 475 843 c 2,4,-1
 374 877 l 1,5,6
 319 845 319 845 319 791.5 c 128,-1,7
 319 738 319 738 351 708.5 c 128,-1,8
 383 679 383 679 477 647 c 2,9,-1
 566 617 l 2,10,11
 585 611 585 611 602 604 c 1,0,1
131 60 m 1,12,-1
 131 255 l 1,13,14
 318 153 318 153 466 153 c 0,15,16
 549 153 549 153 593.5 190.5 c 128,-1,17
 638 228 638 228 638 284 c 128,-1,18
 638 340 638 340 605 372.5 c 128,-1,19
 572 405 572 405 475 437 c 2,20,-1
 369 473 l 2,21,22
 238 517 238 517 177 582.5 c 128,-1,23
 116 648 116 648 116 757 c 128,-1,24
 116 866 116 866 222 950 c 1,25,26
 117 1026 117 1026 117 1181 c 0,27,28
 116 1280 116 1280 168 1349 c 0,29,30
 266 1480 266 1480 481 1480 c 0,31,32
 658 1480 658 1480 808 1393 c 1,33,-1
 748 1220 l 1,34,35
 620 1308 620 1308 486 1308 c 0,36,37
 412 1308 412 1308 365.5 1277.5 c 128,-1,38
 319 1247 319 1247 319 1195.5 c 128,-1,39
 319 1144 319 1144 351 1114.5 c 128,-1,40
 383 1085 383 1085 477 1053 c 2,41,-1
 566 1023 l 2,42,43
 711 975 711 975 774 902 c 128,-1,44
 837 829 837 829 837 718 c 128,-1,45
 837 607 837 607 748 522 c 1,46,47
 837 444 837 444 837 314 c 0,48,49
 837 139 837 139 732 59.5 c 128,-1,50
 627 -20 627 -20 458 -20 c 128,-1,51
 289 -20 289 -20 131 60 c 1,12,-1
EndSplineSet
EndChar

StartChar: dieresis
Encoding: 168 168 106
AltUni2: 000308.ffffffff.0
Width: 719
Flags: W
LayerCount: 2
UndoRedoHistory
Layer: 1
Undoes
EndUndoes
Redoes
EndRedoes
EndUndoRedoHistory
Fore
SplineSet
681 1232.5 m 128,-1,1
 643 1192 643 1192 582.5 1192 c 128,-1,2
 522 1192 522 1192 483.5 1232 c 128,-1,3
 445 1272 445 1272 445 1328 c 128,-1,4
 445 1384 445 1384 483.5 1425 c 128,-1,5
 522 1466 522 1466 582.5 1466 c 128,-1,6
 643 1466 643 1466 681 1425 c 128,-1,7
 719 1384 719 1384 719 1328.5 c 128,-1,0
 719 1273 719 1273 681 1232.5 c 128,-1,1
38.5 1232 m 128,-1,9
 0 1272 0 1272 0 1328 c 128,-1,10
 0 1384 0 1384 38.5 1425 c 128,-1,11
 77 1466 77 1466 137.5 1466 c 128,-1,12
 198 1466 198 1466 236 1425 c 128,-1,13
 274 1384 274 1384 274 1328.5 c 128,-1,14
 274 1273 274 1273 236 1232.5 c 128,-1,15
 198 1192 198 1192 137.5 1192 c 128,-1,8
 77 1192 77 1192 38.5 1232 c 128,-1,9
EndSplineSet
EndChar

StartChar: copyright
Encoding: 169 169 107
Width: 1675
Flags: W
LayerCount: 2
UndoRedoHistory
Layer: 1
Undoes
EndUndoes
Redoes
EndRedoes
EndUndoRedoHistory
Fore
SplineSet
504 387 m 128,-1,1
 369 527 369 527 369 740 c 0,2,3
 369 878 369 878 429.5 992 c 128,-1,4
 490 1106 490 1106 596.5 1171.5 c 128,-1,5
 703 1237 703 1237 854.5 1237 c 128,-1,6
 1006 1237 1006 1237 1132 1151 c 1,7,-1
 1080 1046 l 1,8,9
 975 1116 975 1116 836.5 1116 c 128,-1,10
 698 1116 698 1116 606.5 1012.5 c 128,-1,11
 515 909 515 909 515 740.5 c 128,-1,12
 515 572 515 572 607.5 469.5 c 128,-1,13
 700 367 700 367 840 367 c 128,-1,14
 980 367 980 367 1088 434 c 1,15,-1
 1134 330 l 1,16,17
 1004 247 1004 247 821.5 247 c 128,-1,0
 639 247 639 247 504 387 c 128,-1,1
1162.5 173 m 128,-1,19
 1310 254 1310 254 1398 404.5 c 128,-1,20
 1486 555 1486 555 1486 746 c 128,-1,21
 1486 937 1486 937 1397.5 1087 c 128,-1,22
 1309 1237 1309 1237 1161.5 1317 c 128,-1,23
 1014 1397 1014 1397 837 1397 c 128,-1,24
 660 1397 660 1397 513.5 1317 c 128,-1,25
 367 1237 367 1237 279 1087 c 128,-1,26
 191 937 191 937 191 746.5 c 128,-1,27
 191 556 191 556 279 405 c 128,-1,28
 367 254 367 254 514 173 c 128,-1,29
 661 92 661 92 838 92 c 128,-1,18
 1015 92 1015 92 1162.5 173 c 128,-1,19
548.5 41.5 m 128,-1,31
 410 95 410 95 303.5 191 c 128,-1,32
 197 287 197 287 133 431.5 c 128,-1,33
 69 576 69 576 69 747 c 128,-1,34
 69 918 69 918 132.5 1062 c 128,-1,35
 196 1206 196 1206 303 1301 c 128,-1,36
 410 1396 410 1396 548 1449 c 128,-1,37
 686 1502 686 1502 836.5 1502 c 128,-1,38
 987 1502 987 1502 1126 1449 c 128,-1,39
 1265 1396 1265 1396 1372 1301 c 128,-1,40
 1479 1206 1479 1206 1543 1061.5 c 128,-1,41
 1607 917 1607 917 1607 746.5 c 128,-1,42
 1607 576 1607 576 1543.5 431.5 c 128,-1,43
 1480 287 1480 287 1373 191 c 128,-1,44
 1266 95 1266 95 1127 41.5 c 128,-1,45
 988 -12 988 -12 837.5 -12 c 128,-1,30
 687 -12 687 -12 548.5 41.5 c 128,-1,31
EndSplineSet
EndChar

StartChar: guillemotleft
Encoding: 171 171 109
Width: 982
Flags: W
LayerCount: 2
UndoRedoHistory
Layer: 1
Undoes
EndUndoes
Redoes
EndRedoes
EndUndoRedoHistory
Fore
SplineSet
764 138 m 1,0,-1
 462 552 l 1,1,-1
 766 970 l 1,2,-1
 942 970 l 1,3,-1
 675 555 l 1,4,-1
 937 138 l 1,5,-1
 764 138 l 1,0,-1
370 138 m 1,6,-1
 68 552 l 1,7,-1
 373 970 l 1,8,-1
 549 970 l 1,9,-1
 281 555 l 1,10,-1
 543 138 l 1,11,-1
 370 138 l 1,6,-1
EndSplineSet
EndChar

StartChar: logicalnot
Encoding: 172 172 110
Width: 1174
Flags: W
LayerCount: 2
UndoRedoHistory
Layer: 1
Undoes
EndUndoes
Redoes
EndRedoes
EndUndoRedoHistory
Fore
SplineSet
905 251 m 1,0,-1
 905 646 l 1,1,-1
 94 646 l 1,2,-1
 94 818 l 1,3,-1
 1075 818 l 1,4,-1
 1075 251 l 1,5,-1
 905 251 l 1,0,-1
EndSplineSet
EndChar

StartChar: uni00AD
Encoding: 173 173 111
Width: 797
Flags: W
LayerCount: 2
UndoRedoHistory
Layer: 1
Undoes
EndUndoes
Redoes
EndRedoes
EndUndoRedoHistory
Fore
SplineSet
87 303 m 1,0,-1
 87 485 l 1,1,-1
 746 485 l 1,2,-1
 746 303 l 1,3,-1
 87 303 l 1,0,-1
EndSplineSet
EndChar

StartChar: registered
Encoding: 174 174 112
Width: 1670
Flags: W
LayerCount: 2
UndoRedoHistory
Layer: 1
Undoes
EndUndoes
Redoes
EndRedoes
EndUndoRedoHistory
Fore
SplineSet
982 717 m 1,0,1
 1023 663 1023 663 1220 277 c 1,2,-1
 1061 277 l 1,3,-1
 1012 377 l 1,4,5
 862 677 862 677 842 697 c 1,6,-1
 671 697 l 1,7,-1
 671 277 l 1,8,-1
 528 277 l 1,9,-1
 528 1223 l 1,10,-1
 848 1223 l 2,11,12
 1014 1223 1014 1223 1097 1162 c 128,-1,13
 1180 1101 1180 1101 1180 968 c 0,14,15
 1180 755 1180 755 982 717 c 1,0,1
671 822 m 1,16,-1
 838 822 l 2,17,18
 947 822 947 822 993 852 c 128,-1,19
 1039 882 1039 882 1039 958 c 128,-1,20
 1039 1034 1039 1034 1005 1066.5 c 128,-1,21
 971 1099 971 1099 817 1099 c 2,22,-1
 671 1099 l 1,23,-1
 671 822 l 1,16,-1
1158 168 m 128,-1,25
 1305 249 1305 249 1393 399.5 c 128,-1,26
 1481 550 1481 550 1481 741 c 128,-1,27
 1481 932 1481 932 1393 1083 c 128,-1,28
 1305 1234 1305 1234 1157.5 1315.5 c 128,-1,29
 1010 1397 1010 1397 856 1397 c 128,-1,30
 702 1397 702 1397 584 1349 c 128,-1,31
 466 1301 466 1301 379 1216.5 c 128,-1,32
 292 1132 292 1132 241 1008.5 c 128,-1,33
 190 885 190 885 190 718 c 128,-1,34
 190 551 190 551 277.5 400 c 128,-1,35
 365 249 365 249 511.5 168 c 128,-1,36
 658 87 658 87 834.5 87 c 128,-1,24
 1011 87 1011 87 1158 168 c 128,-1,25
546 36.5 m 128,-1,38
 408 90 408 90 301.5 186 c 128,-1,39
 195 282 195 282 131.5 426.5 c 128,-1,40
 68 571 68 571 68 742 c 128,-1,41
 68 913 68 913 131.5 1058 c 128,-1,42
 195 1203 195 1203 301 1299 c 128,-1,43
 407 1395 407 1395 545 1448.5 c 128,-1,44
 683 1502 683 1502 833.5 1502 c 128,-1,45
 984 1502 984 1502 1122.5 1448 c 128,-1,46
 1261 1394 1261 1394 1368 1298 c 128,-1,47
 1475 1202 1475 1202 1539 1057 c 128,-1,48
 1603 912 1603 912 1603 741.5 c 128,-1,49
 1603 571 1603 571 1539.5 426.5 c 128,-1,50
 1476 282 1476 282 1369 186 c 128,-1,51
 1262 90 1262 90 1123.5 36.5 c 128,-1,52
 985 -17 985 -17 834.5 -17 c 128,-1,37
 684 -17 684 -17 546 36.5 c 128,-1,38
EndSplineSet
EndChar

StartChar: macron
Encoding: 175 175 113
Width: 929
Flags: W
LayerCount: 2
UndoRedoHistory
Layer: 1
Undoes
EndUndoes
Redoes
EndRedoes
EndUndoRedoHistory
Fore
SplineSet
133 1310 m 1,0,-1
 133 1460 l 1,1,-1
 786 1460 l 1,2,-1
 786 1310 l 1,3,-1
 133 1310 l 1,0,-1
EndSplineSet
EndChar

StartChar: degree
Encoding: 176 176 114
AltUni2: 00030a.ffffffff.0
Width: 789
Flags: W
LayerCount: 2
UndoRedoHistory
Layer: 1
Undoes
EndUndoes
Redoes
EndRedoes
EndUndoRedoHistory
Fore
SplineSet
395 1019 m 128,-1,1
 465 1019 465 1019 513.5 1066.5 c 128,-1,2
 562 1114 562 1114 562 1190.5 c 128,-1,3
 562 1267 562 1267 513.5 1313.5 c 128,-1,4
 465 1360 465 1360 395.5 1360 c 128,-1,5
 326 1360 326 1360 277 1313.5 c 128,-1,6
 228 1267 228 1267 228 1190.5 c 128,-1,7
 228 1114 228 1114 276.5 1066.5 c 128,-1,0
 325 1019 325 1019 395 1019 c 128,-1,1
395 895 m 128,-1,9
 260 895 260 895 173.5 981 c 128,-1,10
 87 1067 87 1067 87 1191.5 c 128,-1,11
 87 1316 87 1316 173.5 1399 c 128,-1,12
 260 1482 260 1482 395 1482 c 128,-1,13
 530 1482 530 1482 617 1399 c 128,-1,14
 704 1316 704 1316 704 1192.5 c 128,-1,15
 704 1069 704 1069 617 982 c 128,-1,8
 530 895 530 895 395 895 c 128,-1,9
EndSplineSet
EndChar

StartChar: plusminus
Encoding: 177 177 115
Width: 1218
Flags: W
LayerCount: 2
UndoRedoHistory
Layer: 1
Undoes
EndUndoes
Redoes
EndRedoes
EndUndoRedoHistory
Fore
SplineSet
142 0 m 1,0,-1
 142 159 l 1,1,-1
 1076 159 l 1,2,-1
 1076 0 l 1,3,-1
 142 0 l 1,0,-1
519 238 m 1,4,-1
 519 612 l 1,5,-1
 151 612 l 1,6,-1
 151 785 l 1,7,-1
 519 785 l 1,8,-1
 519 1150 l 1,9,-1
 692 1150 l 1,10,-1
 692 785 l 1,11,-1
 1057 785 l 1,12,-1
 1057 612 l 1,13,-1
 692 612 l 1,14,-1
 692 238 l 1,15,-1
 519 238 l 1,4,-1
EndSplineSet
EndChar

StartChar: uni00B2
Encoding: 178 178 116
Width: 744
Flags: W
LayerCount: 2
UndoRedoHistory
Layer: 1
Undoes
EndUndoes
Redoes
EndRedoes
EndUndoRedoHistory
Fore
SplineSet
80 1320 m 1,0,1
 170 1460 170 1460 381 1460 c 0,2,3
 485 1460 485 1460 569 1388 c 128,-1,4
 653 1316 653 1316 653 1184.5 c 128,-1,5
 653 1053 653 1053 545 939 c 0,6,7
 438 826 438 826 348 756 c 0,8,9
 344 752 344 752 337 746 c 128,-1,10
 330 740 330 740 324 735 c 1,11,-1
 649 735 l 1,12,-1
 636 600 l 1,13,-1
 95 600 l 1,14,-1
 95 732 l 1,15,16
 109 746 109 746 185 814.5 c 128,-1,17
 261 883 261 883 322 940.5 c 128,-1,18
 383 998 383 998 436.5 1070 c 128,-1,19
 490 1142 490 1142 490 1194.5 c 128,-1,20
 490 1247 490 1247 451 1281 c 128,-1,21
 412 1315 412 1315 357 1315 c 128,-1,22
 302 1315 302 1315 247.5 1289.5 c 128,-1,23
 193 1264 193 1264 157 1215 c 1,24,-1
 80 1320 l 1,0,1
EndSplineSet
EndChar

StartChar: uni00B3
Encoding: 179 179 117
Width: 759
Flags: W
LayerCount: 2
UndoRedoHistory
Layer: 1
Undoes
EndUndoes
Redoes
EndRedoes
EndUndoRedoHistory
Fore
SplineSet
137 677 m 1,0,1
 191 798 l 1,2,3
 223 768 223 768 281.5 748.5 c 128,-1,4
 340 729 340 729 395.5 729 c 128,-1,5
 451 729 451 729 487.5 762 c 128,-1,6
 524 795 524 795 524 858.5 c 128,-1,7
 524 922 524 922 475 954.5 c 128,-1,8
 426 987 426 987 342 987 c 1,9,-1
 262 986 l 1,10,-1
 262 1122 l 1,11,-1
 342 1122 l 2,12,13
 499 1122 499 1122 499 1229 c 0,14,15
 499 1277 499 1277 470 1305 c 128,-1,16
 441 1333 441 1333 390 1333 c 128,-1,17
 339 1333 339 1333 283 1314 c 128,-1,18
 227 1295 227 1295 196 1270 c 1,19,-1
 141 1377 l 1,20,21
 240 1468 240 1468 416 1468 c 0,22,23
 507 1468 507 1468 583 1407 c 0,24,25
 658 1347 658 1347 658 1228 c 0,26,27
 658 1104 658 1104 536 1062 c 1,28,29
 600 1036 600 1036 639 981.5 c 128,-1,30
 678 927 678 927 678 858 c 0,31,32
 678 735 678 735 596 664.5 c 128,-1,33
 514 594 514 594 375 594 c 128,-1,34
 236 594 236 594 137 677 c 1,0,1
EndSplineSet
EndChar

StartChar: acute
Encoding: 180 180 118
Width: 585
Flags: W
LayerCount: 2
UndoRedoHistory
Layer: 1
Undoes
EndUndoes
Redoes
EndRedoes
EndUndoRedoHistory
Fore
SplineSet
149 1058 m 1,0,-1
 327 1460 l 1,1,-1
 596 1460 l 1,2,-1
 287 1058 l 1,3,-1
 149 1058 l 1,0,-1
EndSplineSet
EndChar

StartChar: paragraph
Encoding: 182 182 120
Width: 1090
Flags: W
LayerCount: 2
UndoRedoHistory
Layer: 1
Undoes
EndUndoes
Redoes
EndRedoes
EndUndoRedoHistory
Fore
SplineSet
443 -50 m 1,0,-1
 443 841 l 1,1,2
 272 841 272 841 178 930 c 128,-1,3
 84 1019 84 1019 84 1170.5 c 128,-1,4
 84 1322 84 1322 202.5 1407 c 128,-1,5
 321 1492 321 1492 547 1492 c 2,6,-1
 993 1492 l 1,7,-1
 993 1338 l 1,8,-1
 916 1338 l 1,9,-1
 916 -50 l 1,10,-1
 763 -50 l 1,11,-1
 763 1338 l 1,12,-1
 595 1338 l 1,13,-1
 595 -50 l 1,14,-1
 443 -50 l 1,0,-1
EndSplineSet
EndChar

StartChar: periodcentered
Encoding: 183 183 121
Width: 405
Flags: W
LayerCount: 2
UndoRedoHistory
Layer: 1
Undoes
EndUndoes
Redoes
EndRedoes
EndUndoRedoHistory
Fore
SplineSet
116 558 m 1,0,-1
 116 721 l 1,1,-1
 284 721 l 1,2,-1
 284 558 l 1,3,-1
 116 558 l 1,0,-1
EndSplineSet
EndChar

StartChar: cedilla
Encoding: 184 184 122
Width: 550
Flags: W
LayerCount: 2
UndoRedoHistory
Layer: 1
Undoes
EndUndoes
Redoes
EndRedoes
EndUndoRedoHistory
Fore
SplineSet
83 -398 m 1,0,-1
 192 1 l 1,1,-1
 318 1 l 1,2,-1
 269 -398 l 1,3,-1
 83 -398 l 1,0,-1
EndSplineSet
EndChar

StartChar: uni00B9
Encoding: 185 185 123
Width: 732
Flags: W
LayerCount: 2
UndoRedoHistory
Layer: 1
Undoes
EndUndoes
Redoes
EndRedoes
EndUndoRedoHistory
Fore
SplineSet
165 615 m 1,0,-1
 165 761 l 1,1,-1
 319 761 l 1,2,-1
 319 1283 l 1,3,4
 292 1268 292 1268 228.5 1240.5 c 128,-1,5
 165 1213 165 1213 152 1210 c 1,6,-1
 152 1367 l 1,7,8
 164 1369 164 1369 257 1417 c 128,-1,9
 350 1465 350 1465 359 1474 c 1,10,-1
 503 1473 l 1,11,-1
 503 761 l 1,12,-1
 652 761 l 1,13,-1
 652 615 l 1,14,-1
 165 615 l 1,0,-1
EndSplineSet
EndChar

StartChar: ordmasculine
Encoding: 186 186 124
Width: 844
Flags: W
LayerCount: 2
UndoRedoHistory
Layer: 1
Undoes
EndUndoes
Redoes
EndRedoes
EndUndoRedoHistory
Fore
SplineSet
421 1356 m 0,0,1
 242 1356 242 1356 242 1107.5 c 128,-1,2
 242 859 242 859 421 859 c 0,3,4
 607 859 607 859 607 1102 c 0,5,6
 607 1226 607 1226 559.5 1291 c 128,-1,7
 512 1356 512 1356 421 1356 c 0,0,1
685 1391 m 128,-1,9
 777 1282 777 1282 777 1110 c 128,-1,10
 777 938 777 938 679 826.5 c 128,-1,11
 581 715 581 715 417 715 c 128,-1,12
 253 715 253 715 159 824.5 c 128,-1,13
 65 934 65 934 65 1106.5 c 128,-1,14
 65 1279 65 1279 159 1389.5 c 128,-1,15
 253 1500 253 1500 423 1500 c 128,-1,8
 593 1500 593 1500 685 1391 c 128,-1,9
EndSplineSet
EndChar

StartChar: guillemotright
Encoding: 187 187 125
Width: 1029
Flags: W
LayerCount: 2
UndoRedoHistory
Layer: 1
Undoes
EndUndoes
Redoes
EndRedoes
EndUndoRedoHistory
Fore
SplineSet
664 970 m 1,0,-1
 967 556 l 1,1,-1
 661 138 l 1,2,-1
 488 138 l 1,3,-1
 753 553 l 1,4,-1
 493 970 l 1,5,-1
 664 970 l 1,0,-1
278 970 m 1,6,-1
 580 556 l 1,7,-1
 276 138 l 1,8,-1
 101 138 l 1,9,-1
 368 553 l 1,10,-1
 105 970 l 1,11,-1
 278 970 l 1,6,-1
EndSplineSet
EndChar

StartChar: onequarter
Encoding: 188 188 126
Width: 1581
Flags: W
LayerCount: 2
UndoRedoHistory
Layer: 1
Undoes
EndUndoes
Redoes
EndRedoes
EndUndoRedoHistory
Fore
SplineSet
77 584 m 1,0,-1
 77 725 l 1,1,-1
 223 725 l 1,2,-1
 223 1284 l 1,3,4
 197 1270 197 1270 136.5 1242.5 c 128,-1,5
 76 1215 76 1215 63 1211 c 1,6,-1
 63 1353 l 1,7,8
 99 1368 99 1368 168.5 1405 c 128,-1,9
 238 1442 238 1442 263 1460 c 1,10,-1
 398 1460 l 1,11,-1
 398 725 l 1,12,-1
 535 725 l 1,13,-1
 535 584 l 1,14,-1
 77 584 l 1,0,-1
1311 0 m 1,15,-1
 1311 180 l 1,16,-1
 927 180 l 1,17,-1
 927 302 l 1,18,-1
 1301 848 l 1,19,-1
 1463 848 l 1,20,-1
 1463 305 l 1,21,-1
 1576 305 l 1,22,-1
 1571 180 l 1,23,-1
 1463 180 l 1,24,-1
 1463 0 l 1,25,-1
 1311 0 l 1,15,-1
289 0 m 1,26,-1
 1247 1460 l 1,27,-1
 1423 1460 l 1,28,-1
 470 0 l 1,29,-1
 289 0 l 1,26,-1
1094 305 m 1,30,-1
 1311 305 l 1,31,-1
 1311 651 l 1,32,-1
 1094 305 l 1,30,-1
EndSplineSet
EndChar

StartChar: onehalf
Encoding: 189 189 127
Width: 1647
Flags: W
LayerCount: 2
UndoRedoHistory
Layer: 1
Undoes
EndUndoes
Redoes
EndRedoes
EndUndoRedoHistory
Fore
SplineSet
77 584 m 1,0,-1
 77 725 l 1,1,-1
 223 725 l 1,2,-1
 223 1284 l 1,3,4
 197 1270 197 1270 136.5 1242.5 c 128,-1,5
 76 1215 76 1215 63 1211 c 1,6,-1
 63 1353 l 1,7,8
 99 1368 99 1368 168.5 1405 c 128,-1,9
 238 1442 238 1442 263 1460 c 1,10,-1
 398 1460 l 1,11,-1
 398 725 l 1,12,-1
 535 725 l 1,13,-1
 535 584 l 1,14,-1
 77 584 l 1,0,-1
289 0 m 1,15,-1
 1247 1460 l 1,16,-1
 1423 1460 l 1,17,-1
 470 0 l 1,18,-1
 289 0 l 1,15,-1
1049 -20 m 1,19,-1
 1049 112 l 1,20,21
 1063 126 1063 126 1139 194.5 c 128,-1,22
 1215 263 1215 263 1276 320.5 c 128,-1,23
 1337 378 1337 378 1390.5 450 c 128,-1,24
 1444 522 1444 522 1444 574.5 c 128,-1,25
 1444 627 1444 627 1405 661 c 128,-1,26
 1366 695 1366 695 1311 695 c 128,-1,27
 1256 695 1256 695 1201.5 669.5 c 128,-1,28
 1147 644 1147 644 1111 595 c 1,29,-1
 1034 700 l 1,30,31
 1124 840 1124 840 1335 840 c 0,32,33
 1439 840 1439 840 1523 768 c 128,-1,34
 1607 696 1607 696 1607 574 c 0,35,36
 1607 531 1607 531 1595.5 482.5 c 128,-1,37
 1584 434 1584 434 1530.5 357 c 128,-1,38
 1477 280 1477 280 1278 115 c 1,39,-1
 1603 115 l 1,40,-1
 1590 -20 l 1,41,-1
 1049 -20 l 1,19,-1
EndSplineSet
EndChar

StartChar: threequarters
Encoding: 190 190 128
Width: 1569
Flags: W
LayerCount: 2
UndoRedoHistory
Layer: 1
Undoes
EndUndoes
Redoes
EndRedoes
EndUndoRedoHistory
Fore
SplineSet
1311 0 m 1,0,-1
 1311 180 l 1,1,-1
 927 180 l 1,2,-1
 927 302 l 1,3,-1
 1301 848 l 1,4,-1
 1463 848 l 1,5,-1
 1463 305 l 1,6,-1
 1576 305 l 1,7,-1
 1571 180 l 1,8,-1
 1463 180 l 1,9,-1
 1463 0 l 1,10,-1
 1311 0 l 1,0,-1
1094 305 m 1,11,-1
 1311 305 l 1,12,-1
 1311 651 l 1,13,-1
 1094 305 l 1,11,-1
77 584 m 1,14,-1
 77 725 l 1,15,-1
 223 725 l 1,16,-1
 223 1284 l 1,17,18
 197 1270 197 1270 136.5 1242.5 c 128,-1,19
 76 1215 76 1215 63 1211 c 1,20,-1
 63 1353 l 1,21,22
 99 1368 99 1368 168.5 1405 c 128,-1,23
 238 1442 238 1442 263 1460 c 1,24,-1
 398 1460 l 1,25,-1
 398 725 l 1,26,-1
 535 725 l 1,27,-1
 535 584 l 1,28,-1
 77 584 l 1,14,-1
289 0 m 1,29,-1
 1247 1460 l 1,30,-1
 1423 1460 l 1,31,-1
 470 0 l 1,32,-1
 289 0 l 1,29,-1
EndSplineSet
EndChar

StartChar: AE
Encoding: 198 198 136
Width: 1719
Flags: W
LayerCount: 2
UndoRedoHistory
Layer: 1
Undoes
EndUndoes
Redoes
EndRedoes
EndUndoRedoHistory
Fore
SplineSet
773 594 m 1,0,-1
 773 1262 l 1,1,-1
 502 594 l 1,2,-1
 773 594 l 1,0,-1
773 0 m 1,3,-1
 773 424 l 1,4,-1
 435 424 l 1,5,-1
 254 0 l 1,6,-1
 13 0 l 1,7,-1
 641 1460 l 1,8,-1
 1626 1460 l 1,9,-1
 1616 1274 l 1,10,-1
 1013 1274 l 1,11,-1
 1013 854 l 1,12,-1
 1573 854 l 1,13,-1
 1573 667 l 1,14,-1
 1013 667 l 1,15,-1
 1013 191 l 1,16,-1
 1643 191 l 1,17,-1
 1635 0 l 1,18,-1
 773 0 l 1,3,-1
EndSplineSet
EndChar

StartChar: Eth
Encoding: 208 208 146
Width: 1512
Flags: W
LayerCount: 2
UndoRedoHistory
Layer: 1
Undoes
EndUndoes
Redoes
EndRedoes
EndUndoRedoHistory
Fore
SplineSet
578 1276 m 2,0,1
 388 1276 l 1,2,-1
 388 817 l 1,3,-1
 674 817 l 1,4,-1
 674 661 l 1,5,-1
 388 661 l 1,6,-1
 388 180 l 1,7,-1
 606 180 l 2,8,9
 865 180 865 180 1001.5 323.5 c 128,-1,10
 1138 467 1138 467 1138 739 c 0,11,12
 1138 1276 1138 1276 578 1276 c 2,0,1
148 0 m 1,13,-1
 148 661 l 1,14,-1
 36 661 l 1,15,-1
 36 817 l 1,16,-1
 148 817 l 1,17,-1
 148 1460 l 1,18,-1
 575 1460 l 2,19,20
 940 1460 940 1460 1165 1281.5 c 128,-1,21
 1390 1103 1390 1103 1390 710 c 0,22,23
 1390 502 1390 502 1291 335 c 0,24,25
 1092 0 1092 0 602 0 c 2,26,-1
 148 0 l 1,13,-1
EndSplineSet
EndChar

StartChar: multiply
Encoding: 215 215 153
Width: 1103
Flags: W
LayerCount: 2
UndoRedoHistory
Layer: 1
Undoes
EndUndoes
Redoes
EndRedoes
EndUndoRedoHistory
Fore
SplineSet
832 168 m 1,0,-1
 553 455 l 1,1,-1
 272 167 l 1,2,-1
 154 291 l 1,3,-1
 431 580 l 1,4,-1
 158 868 l 1,5,-1
 276 990 l 1,6,-1
 553 704 l 1,7,-1
 827 988 l 1,8,-1
 948 866 l 1,9,-1
 674 580 l 1,10,11
 723 531 723 531 950 293 c 1,12,-1
 832 168 l 1,0,-1
EndSplineSet
EndChar

StartChar: Oslash
Encoding: 216 216 154
Width: 1616
Flags: W
LayerCount: 2
UndoRedoHistory
Layer: 1
Undoes
EndUndoes
Redoes
EndRedoes
EndUndoRedoHistory
Fore
SplineSet
684 195 m 1,0,1
 742 180 742 180 809 180 c 0,2,3
 1024 180 1024 180 1144.5 329 c 128,-1,4
 1265 478 1265 478 1265 725.5 c 0,5,6
 1266 972 1266 972 1144 1126 c 0,7,8
 1113 1165 1113 1165 1075 1195 c 1,9,-1
 684 195 l 1,0,1
566 245 m 1,10,-1
 958 1258 l 1,11,12
 891 1280 891 1280 810 1280 c 0,13,14
 597 1280 597 1280 473.5 1126.5 c 128,-1,15
 350 973 350 973 350 726 c 0,16,17
 350 480 350 480 472 330 c 0,18,19
 514 280 514 280 566 245 c 1,10,-1
810 -20 m 0,20,21
 702 -20 702 -20 608 2 c 1,22,-1
 514 -239 l 1,23,-1
 395 -197 l 1,24,-1
 488 42 l 1,25,26
 376 92 376 92 290 181 c 0,27,28
 96 382 96 382 96 726.5 c 128,-1,29
 96 1071 96 1071 290.5 1275.5 c 128,-1,30
 485 1480 485 1480 810 1480 c 0,31,32
 929 1480 929 1480 1033 1451 c 1,33,-1
 1122 1682 l 1,34,-1
 1247 1635 l 1,35,-1
 1156 1402 l 1,36,37
 1336 1310 1336 1310 1427.5 1131 c 128,-1,38
 1519 952 1519 952 1519 723 c 0,39,40
 1519 382 1519 382 1327 181 c 128,-1,41
 1135 -20 1135 -20 810 -20 c 0,20,21
EndSplineSet
EndChar

StartChar: Thorn
Encoding: 222 222 160
Width: 1150
Flags: W
LayerCount: 2
UndoRedoHistory
Layer: 1
Undoes
EndUndoes
Redoes
EndRedoes
EndUndoRedoHistory
Fore
SplineSet
388 994 m 1,0,-1
 388 597 l 1,1,-1
 576 597 l 2,2,3
 741 597 741 597 790 648 c 0,4,5
 817 676 817 676 826 711 c 128,-1,6
 835 746 835 746 835 805 c 0,7,8
 835 908 835 908 780.5 951 c 128,-1,9
 726 994 726 994 594 994 c 2,10,-1
 388 994 l 1,0,-1
148 0 m 1,11,-1
 148 1460 l 1,12,-1
 388 1460 l 1,13,-1
 388 1162 l 1,14,-1
 584 1162 l 2,15,16
 819 1162 819 1162 953.5 1085.5 c 128,-1,17
 1088 1009 1088 1009 1088 816.5 c 128,-1,18
 1088 624 1088 624 977.5 523 c 128,-1,19
 867 422 867 422 583 422 c 2,20,-1
 388 422 l 1,21,-1
 388 0 l 1,22,-1
 148 0 l 1,11,-1
EndSplineSet
EndChar

StartChar: germandbls
Encoding: 223 223 161
Width: 1190
Flags: W
LayerCount: 2
UndoRedoHistory
Layer: 1
Undoes
EndUndoes
Redoes
EndRedoes
EndUndoRedoHistory
Fore
SplineSet
562 213 m 1,0,1
 671 156 671 156 802 156 c 1,2,3
 879 156 879 156 921.5 194.5 c 128,-1,4
 964 233 964 233 964 297 c 128,-1,5
 964 361 964 361 927 408.5 c 128,-1,6
 890 456 890 456 837.5 493 c 0,7,8
 784 530 784 530 732 566 c 0,9,10
 606 654 606 654 606 743.5 c 128,-1,11
 606 833 606 833 676 912 c 0,12,13
 706 945 706 945 736 979 c 0,14,15
 807 1059 807 1059 807 1141.5 c 128,-1,16
 807 1224 807 1224 755.5 1268 c 128,-1,17
 704 1312 704 1312 614 1312 c 0,18,19
 487 1312 487 1312 434 1241 c 128,-1,20
 381 1170 381 1170 381 1016 c 2,21,-1
 381 0 l 1,22,-1
 158 0 l 1,23,-1
 158 1017 l 2,24,25
 158 1238 158 1238 270.5 1359.5 c 128,-1,26
 383 1481 383 1481 604 1481 c 0,27,28
 784 1481 784 1481 898.5 1396 c 128,-1,29
 1013 1311 1013 1311 1013 1171 c 0,30,31
 1013 1032 1013 1032 946 944 c 0,32,33
 918 908 918 908 870 857 c 128,-1,34
 822 806 822 806 822 779 c 128,-1,35
 822 752 822 752 843 728 c 128,-1,36
 864 704 864 704 959.5 643.5 c 128,-1,37
 1055 583 1055 583 1122 504.5 c 128,-1,38
 1189 426 1189 426 1189 289 c 128,-1,39
 1189 152 1189 152 1096.5 66 c 128,-1,40
 1004 -20 1004 -20 840 -20 c 128,-1,41
 676 -20 676 -20 507 52 c 1,42,-1
 562 213 l 1,0,1
EndSplineSet
EndChar

StartChar: ae
Encoding: 230 230 168
Width: 1689
Flags: W
LayerCount: 2
UndoRedoHistory
Layer: 1
Undoes
EndUndoes
Redoes
EndRedoes
EndUndoRedoHistory
Fore
SplineSet
866 144 m 1,0,1
 797 75 797 75 672 27.5 c 128,-1,2
 547 -20 547 -20 409 -20 c 128,-1,3
 271 -20 271 -20 179.5 71 c 128,-1,4
 88 162 88 162 88 306 c 128,-1,5
 88 450 88 450 176 521 c 0,6,7
 290 613 290 613 605 613 c 2,8,-1
 735 613 l 1,9,-1
 735 698 l 2,10,11
 735 905 735 905 485 905 c 0,12,13
 334 905 334 905 186 838 c 1,14,-1
 137 998 l 1,15,16
 303 1077 303 1077 508 1077 c 0,17,18
 633 1077 633 1077 730.5 1025 c 128,-1,19
 828 973 828 973 872 880 c 1,20,21
 919 968 919 968 1025.5 1022.5 c 128,-1,22
 1132 1077 1132 1077 1255 1077 c 1,23,24
 1450 1077 1450 1077 1531 982 c 0,25,26
 1611 887 1611 887 1611 762 c 0,27,28
 1611 698 1611 698 1582.5 648 c 128,-1,29
 1554 598 1554 598 1483 557 c 0,30,31
 1339 474 1339 474 950 474 c 1,32,33
 964 153 964 153 1278 151 c 0,34,35
 1419 151 1419 151 1549 218 c 1,36,-1
 1583 64 l 1,37,38
 1458 -18 1458 -18 1300 -18 c 1,39,40
 988 -18 988 -18 866 144 c 1,0,1
449 141 m 0,41,42
 529 141 529 141 623 178 c 128,-1,43
 717 215 717 215 781 272 c 1,44,45
 743 369 743 369 739 475 c 1,46,-1
 598 475 l 2,47,48
 429 475 429 475 362 435 c 128,-1,49
 295 395 295 395 295 305 c 0,50,51
 295 141 295 141 449 141 c 0,41,42
952 613 m 1,52,53
 1302 612 1302 612 1391 682 c 0,54,55
 1435 716 1435 716 1435 779 c 128,-1,56
 1435 842 1435 842 1388.5 882.5 c 128,-1,57
 1342 923 1342 923 1268 923 c 0,58,59
 980 923 980 923 952 613 c 1,52,53
EndSplineSet
EndChar

StartChar: eth
Encoding: 240 240 178
Width: 1169
Flags: W
LayerCount: 2
UndoRedoHistory
Layer: 1
Undoes
EndUndoes
Redoes
EndRedoes
EndUndoRedoHistory
Fore
SplineSet
224 118 m 128,-1,1
 83 258 83 258 83 470 c 128,-1,2
 83 682 83 682 217 811.5 c 128,-1,3
 351 941 351 941 566 941 c 0,4,5
 659 941 659 941 764 883 c 1,6,7
 678 1014 678 1014 516 1172 c 1,8,-1
 268 1075 l 1,9,-1
 210 1225 l 1,10,-1
 404 1302 l 1,11,-1
 196 1502 l 1,12,-1
 455 1502 l 1,13,-1
 583 1376 l 1,14,-1
 858 1485 l 1,15,-1
 918 1334 l 1,16,-1
 694 1247 l 1,17,18
 818 1111 818 1111 891.5 1020 c 128,-1,19
 965 929 965 929 1016 840 c 0,20,21
 1111 673 1111 673 1111 457 c 0,22,23
 1112 242 1112 242 976 110 c 0,24,25
 840 -22 840 -22 602.5 -22 c 128,-1,0
 365 -22 365 -22 224 118 c 128,-1,1
605 152 m 128,-1,27
 751 152 751 152 830.5 238.5 c 128,-1,28
 910 325 910 325 910 465.5 c 128,-1,29
 910 606 910 606 827 694 c 128,-1,30
 744 782 744 782 600 782 c 128,-1,31
 456 782 456 782 376 697.5 c 128,-1,32
 296 613 296 613 296 474 c 128,-1,33
 296 335 296 335 377.5 243.5 c 128,-1,26
 459 152 459 152 605 152 c 128,-1,27
EndSplineSet
EndChar

StartChar: divide
Encoding: 247 247 185
Width: 1241
Flags: W
LayerCount: 2
UndoRedoHistory
Layer: 1
Undoes
EndUndoes
Redoes
EndRedoes
EndUndoRedoHistory
Fore
SplineSet
497 25 m 1,0,-1
 497 273 l 1,1,-1
 740 273 l 1,2,-1
 740 25 l 1,3,-1
 497 25 l 1,0,-1
108 488 m 1,4,-1
 108 661 l 1,5,-1
 1128 661 l 1,6,-1
 1128 488 l 1,7,-1
 108 488 l 1,4,-1
497 869 m 1,8,-1
 497 1108 l 1,9,-1
 746 1108 l 1,10,-1
 746 869 l 1,11,-1
 497 869 l 1,8,-1
EndSplineSet
EndChar

StartChar: oslash
Encoding: 248 248 186
Width: 1197
Flags: W
LayerCount: 2
UndoRedoHistory
Layer: 1
Undoes
EndUndoes
Redoes
EndRedoes
EndUndoRedoHistory
Fore
SplineSet
459 180 m 1,0,1
 514 152 514 152 587 152 c 0,2,3
 725 152 725 152 798 251.5 c 128,-1,4
 871 351 871 351 871 529 c 128,-1,5
 871 707 871 707 800 804 c 1,6,-1
 459 180 l 1,0,1
392 233 m 1,7,8
 734 866 l 1,9,10
 673 904 673 904 587 904 c 0,11,12
 451 904 451 904 376.5 806 c 128,-1,13
 302 708 302 708 302 520.5 c 128,-1,14
 302 333 302 333 392 233 c 1,7,8
1097 530 m 0,15,16
 1097 281 1097 281 958 131.5 c 128,-1,17
 819 -18 819 -18 587 -18 c 0,18,19
 468 -18 468 -18 373 22 c 1,20,-1
 278 -152 l 1,21,-1
 207 -108 l 1,22,-1
 299 62 l 1,23,24
 254 92 254 92 216 133 c 0,25,26
 76 284 76 284 76 533 c 128,-1,27
 76 782 76 782 213 929 c 128,-1,28
 350 1076 350 1076 587 1076 c 0,29,30
 720 1076 720 1076 822 1028 c 1,31,-1
 935 1237 l 1,32,-1
 1012 1193 l 1,33,-1
 897 983 l 1,34,35
 1097 834 1097 834 1097 530 c 0,15,16
EndSplineSet
EndChar

StartChar: thorn
Encoding: 254 254 192
Width: 1163
Flags: W
LayerCount: 2
UndoRedoHistory
Layer: 1
Undoes
EndUndoes
Redoes
EndRedoes
EndUndoRedoHistory
Fore
SplineSet
663 1076 m 0,0,1
 796 1076 796 1076 894 1005 c 0,2,3
 1090 863 1090 863 1090 530 c 0,4,5
 1090 287 1090 287 967.5 134.5 c 128,-1,6
 845 -18 845 -18 644.5 -18 c 128,-1,7
 444 -18 444 -18 341 153 c 1,8,9
 346 -37 l 1,10,-1
 346 -441 l 1,11,-1
 122 -441 l 1,12,-1
 122 1460 l 1,13,-1
 347 1480 l 1,14,-1
 347 904 l 1,15,16
 444 1076 444 1076 663 1076 c 0,0,1
611 904 m 0,17,18
 344 904 344 904 343 548 c 1,19,20
 343 152 343 152 605 152 c 0,21,22
 730 152 730 152 797 249 c 128,-1,23
 864 346 864 346 864 532 c 0,24,25
 864 904 864 904 611 904 c 0,17,18
EndSplineSet
EndChar

StartChar: Dcroat
Encoding: 272 272 205
Width: 1509
Flags: W
LayerCount: 2
UndoRedoHistory
Layer: 1
Undoes
EndUndoes
Redoes
EndRedoes
EndUndoRedoHistory
Fore
SplineSet
578 1276 m 2,0,1
 388 1276 l 1,2,-1
 388 794 l 1,3,-1
 586 794 l 1,4,-1
 586 703 l 1,5,-1
 388 703 l 1,6,-1
 388 180 l 1,7,-1
 606 180 l 2,8,9
 865 180 865 180 1001.5 323.5 c 128,-1,10
 1138 467 1138 467 1138 739 c 0,11,12
 1138 1276 1138 1276 578 1276 c 2,0,1
148 0 m 1,13,-1
 148 703 l 1,14,-1
 62 703 l 1,15,-1
 62 794 l 1,16,-1
 148 794 l 1,17,-1
 148 1460 l 1,18,-1
 575 1460 l 2,19,20
 940 1460 940 1460 1165 1281.5 c 128,-1,21
 1390 1103 1390 1103 1390 710 c 0,22,23
 1390 502 1390 502 1291 335 c 0,24,25
 1092 0 1092 0 602 0 c 2,26,-1
 148 0 l 1,13,-1
EndSplineSet
EndChar

StartChar: Delta
Encoding: 916 916 206
Width: 1291
Flags: W
LayerCount: 2
UndoRedoHistory
Layer: 1
Undoes
EndUndoes
Redoes
EndRedoes
EndUndoRedoHistory
Fore
SplineSet
44 0 m 1,0,-1
 568 1474 l 1,1,-1
 775 1474 l 1,2,-1
 1299 0 l 1,3,-1
 44 0 l 1,0,-1
310 176 m 1,4,-1
 1038 176 l 1,5,-1
 671 1250 l 1,6,-1
 310 176 l 1,4,-1
EndSplineSet
EndChar

StartChar: Eng
Encoding: 330 330 211
Width: 1322
Flags: W
LayerCount: 2
UndoRedoHistory
Layer: 1
Undoes
EndUndoes
Redoes
EndRedoes
EndUndoRedoHistory
Fore
SplineSet
360 1272 m 1,0,1
 555 1479 555 1479 844 1479 c 0,2,3
 1057 1479 1057 1479 1167.5 1345.5 c 128,-1,4
 1278 1212 1278 1212 1278 965 c 2,5,-1
 1278 158 l 2,6,7
 1278 -80 1278 -80 1177.5 -202.5 c 128,-1,8
 1077 -325 1077 -325 813 -325 c 0,9,10
 759 -325 759 -325 667 -316 c 1,11,-1
 646 -122 l 1,12,13
 752 -129 752 -129 829 -129 c 0,14,15
 906 -129 906 -129 958.5 -101.5 c 128,-1,16
 1011 -74 1011 -74 1026 -14.5 c 128,-1,17
 1041 45 1041 45 1041 159 c 2,18,-1
 1041 957 l 2,19,20
 1041 1140 1041 1140 984 1214 c 128,-1,21
 927 1288 927 1288 794 1288 c 128,-1,22
 661 1288 661 1288 546 1223.5 c 128,-1,23
 431 1159 431 1159 364 1052 c 1,24,-1
 364 0 l 1,25,-1
 128 0 l 1,26,-1
 127 1456 l 1,27,-1
 339 1456 l 1,28,-1
 360 1272 l 1,0,1
EndSplineSet
EndChar

StartChar: Euro
Encoding: 8364 8364 214
Width: 1288
Flags: W
LayerCount: 2
UndoRedoHistory
Layer: 1
Undoes
EndUndoes
Redoes
EndRedoes
EndUndoRedoHistory
Fore
SplineSet
527 29 m 0,0,1
 200 151 200 151 119 515 c 1,2,-1
 -15 515 l 1,3,-1
 -12 645 l 1,4,-1
 99 645 l 1,5,6
 96 688 96 688 96 725.5 c 128,-1,7
 96 763 96 763 98 792 c 1,8,-1
 -12 792 l 1,9,-1
 -9 921 l 1,10,-1
 115 921 l 1,11,12
 128 985 128 985 152 1044 c 0,13,14
 262 1320 262 1320 536 1428 c 0,15,16
 668 1480 668 1480 817 1480 c 0,17,18
 1047 1480 1047 1480 1219 1372 c 1,19,-1
 1146 1192 l 1,20,21
 994 1280 994 1280 816 1280 c 128,-1,22
 638 1280 638 1280 489 1137 c 0,23,24
 412 1063 412 1063 374 921 c 1,25,-1
 868 921 l 1,26,-1
 864 792 l 1,27,-1
 352 792 l 1,28,29
 350 761 350 761 350 723 c 128,-1,30
 350 685 350 685 353 645 c 1,31,-1
 864 645 l 1,32,-1
 861 515 l 1,33,-1
 375 515 l 1,34,35
 463 180 463 180 835 180 c 0,36,37
 917 180 917 180 988 198.5 c 128,-1,38
 1059 217 1059 217 1168 268 c 1,39,-1
 1219 79 l 1,40,41
 1127 31 1127 31 1033.5 5.5 c 128,-1,42
 940 -20 940 -20 799 -20 c 128,-1,43
 658 -20 658 -20 527 29 c 0,0,1
EndSplineSet
EndChar

StartChar: Gamma
Encoding: 915 915 215
Width: 1233
Flags: W
LayerCount: 2
UndoRedoHistory
Layer: 1
Undoes
EndUndoes
Redoes
EndRedoes
EndUndoRedoHistory
Fore
SplineSet
234 0 m 1,0,-1
 234 1478 l 1,1,-1
 1103 1477 l 1,2,-1
 1098 1381 l 1,3,-1
 358 1382 l 1,4,-1
 358 0 l 1,5,-1
 234 0 l 1,0,-1
EndSplineSet
EndChar

StartChar: Hbar
Encoding: 294 294 221
Width: 1449
Flags: W
LayerCount: 2
UndoRedoHistory
Layer: 1
Undoes
EndUndoes
Redoes
EndRedoes
EndUndoRedoHistory
Fore
SplineSet
168 0 m 1,0,-1
 168 1137 l 1,1,-1
 83 1137 l 1,2,-1
 83 1262 l 1,3,-1
 168 1262 l 1,4,-1
 168 1452 l 1,5,-1
 389 1452 l 1,6,-1
 389 1262 l 1,7,-1
 1115 1262 l 1,8,-1
 1115 1452 l 1,9,-1
 1338 1452 l 1,10,-1
 1338 1262 l 1,11,-1
 1423 1262 l 1,12,-1
 1423 1137 l 1,13,-1
 1338 1137 l 1,14,-1
 1338 0 l 1,15,-1
 1115 0 l 1,16,-1
 1115 662 l 1,17,-1
 389 662 l 1,18,-1
 389 0 l 1,19,-1
 168 0 l 1,0,-1
389 840 m 1,20,-1
 1115 840 l 1,21,-1
 1115 1137 l 1,22,-1
 389 1137 l 1,23,-1
 389 840 l 1,20,-1
EndSplineSet
EndChar

StartChar: Lambda
Encoding: 923 923 232
Width: 1291
Flags: W
LayerCount: 2
UndoRedoHistory
Layer: 1
Undoes
EndUndoes
Redoes
EndRedoes
EndUndoRedoHistory
Fore
SplineSet
43 0 m 1,0,-1
 578 1470 l 1,1,-1
 764 1470 l 1,2,-1
 1299 0 l 1,3,-1
 1113 0 l 1,4,-1
 671 1262 l 1,5,-1
 234 0 l 1,6,-1
 43 0 l 1,0,-1
EndSplineSet
EndChar

StartChar: OE
Encoding: 338 338 241
Width: 2261
Flags: W
LayerCount: 2
UndoRedoHistory
Layer: 1
Undoes
EndUndoes
Redoes
EndRedoes
EndUndoRedoHistory
Fore
SplineSet
1248 362 m 1,0,1
 1248 1091 l 1,2,3
 1097 1280 1097 1280 810 1280 c 0,4,5
 597 1280 597 1280 473.5 1126.5 c 128,-1,6
 350 973 350 973 350 726 c 0,7,8
 350 480 350 480 472 330 c 0,9,10
 809 -83 809 -83 809 180 c 1,11,12
 1098 180 1098 180 1248 362 c 1,0,1
1248 0 m 1,13,-1
 1248 126 l 1,14,15
 1076 -20 1076 -20 810 -20 c 0,16,17
 483 -20 483 -20 289.5 181 c 128,-1,18
 96 382 96 382 96 726.5 c 128,-1,19
 96 1071 96 1071 290.5 1275.5 c 128,-1,20
 485 1480 485 1480 810 1480 c 0,21,22
 1074 1480 1074 1480 1248 1329 c 1,23,-1
 1248 1460 l 1,24,-1
 2168 1460 l 1,25,-1
 2158 1274 l 1,26,-1
 1488 1274 l 1,27,-1
 1488 854 l 1,28,-1
 2115 854 l 1,29,-1
 2115 667 l 1,30,-1
 1488 667 l 1,31,-1
 1488 191 l 1,32,-1
 2185 191 l 1,33,-1
 2177 0 l 1,34,-1
 1248 0 l 1,13,-1
EndSplineSet
EndChar

StartChar: Omega
Encoding: 937 937 246
Width: 1606
Flags: W
LayerCount: 2
UndoRedoHistory
Layer: 1
Undoes
EndUndoes
Redoes
EndRedoes
EndUndoRedoHistory
Fore
SplineSet
832 196 m 128,-1,1
 1035 196 1035 196 1152.5 341.5 c 128,-1,2
 1270 487 1270 487 1270 725 c 128,-1,3
 1270 963 1270 963 1152 1110 c 128,-1,4
 1034 1257 1034 1257 832 1257 c 128,-1,5
 630 1257 630 1257 510.5 1110.5 c 128,-1,6
 391 964 391 964 391 725.5 c 128,-1,7
 391 487 391 487 510 341.5 c 128,-1,0
 629 196 629 196 832 196 c 128,-1,1
1349.5 181.5 m 128,-1,9
 1155 -20 1155 -20 831 -20 c 128,-1,10
 507 -20 507 -20 312.5 180.5 c 128,-1,11
 118 381 118 381 118 728 c 0,12,13
 118 1075 118 1075 314 1275 c 0,14,15
 510 1474 510 1474 832 1474 c 128,-1,16
 1154 1474 1154 1474 1349 1272.5 c 128,-1,17
 1544 1071 1544 1071 1544 727 c 128,-1,8
 1544 383 1544 383 1349.5 181.5 c 128,-1,9
EndSplineSet
EndChar

StartChar: Phi
Encoding: 934 934 248
Width: 1570
Flags: W
LayerCount: 2
UndoRedoHistory
Layer: 1
Undoes
EndUndoes
Redoes
EndRedoes
EndUndoRedoHistory
Fore
SplineSet
722 0 m 1,0,-1
 722 167 l 1,1,2
 423 191 423 191 264 354 c 0,3,4
 104 517 104 517 104 759.5 c 128,-1,5
 104 1002 104 1002 267 1157 c 128,-1,6
 430 1312 430 1312 722 1335 c 1,7,-1
 722 1470 l 1,8,-1
 903 1470 l 1,9,-1
 903 1335 l 1,10,11
 1196 1313 1196 1313 1361 1158.5 c 128,-1,12
 1526 1004 1526 1004 1526 759 c 128,-1,13
 1526 514 1526 514 1364 352 c 128,-1,14
 1202 190 1202 190 903 167 c 1,15,-1
 903 0 l 1,16,-1
 722 0 l 1,0,-1
722 329 m 1,17,-1
 722 1173 l 1,18,19
 514 1152 514 1152 405.5 1043 c 128,-1,20
 297 934 297 934 297 759 c 0,21,22
 298 522 298 522 482 406 c 0,23,24
 580 344 580 344 722 329 c 1,17,-1
903 329 m 1,25,26
 1117 350 1117 350 1224.5 467 c 128,-1,27
 1332 584 1332 584 1332 759 c 128,-1,28
 1332 934 1332 934 1223 1043.5 c 128,-1,29
 1114 1153 1114 1153 903 1173 c 1,30,-1
 903 329 l 1,25,26
EndSplineSet
EndChar

StartChar: Pi
Encoding: 928 928 249
Width: 1368
Flags: W
LayerCount: 2
UndoRedoHistory
Layer: 1
Undoes
EndUndoes
Redoes
EndRedoes
EndUndoRedoHistory
Fore
SplineSet
141 0 m 1,0,-1
 141 1470 l 1,1,-1
 1283 1470 l 1,2,-1
 1283 0 l 1,3,-1
 1101 0 l 1,4,-1
 1101 1313 l 1,5,-1
 323 1313 l 1,6,-1
 323 0 l 1,7,-1
 141 0 l 1,0,-1
EndSplineSet
EndChar

StartChar: Sigma
Encoding: 931 931 258
Width: 1087
Flags: W
LayerCount: 2
UndoRedoHistory
Layer: 1
Undoes
EndUndoes
Redoes
EndRedoes
EndUndoRedoHistory
Fore
SplineSet
142 0 m 1,0,-1
 142 1448 l 1,1,-1
 1028 1448 l 1,2,-1
 1018 1254 l 1,3,-1
 388 1254 l 1,4,-1
 388 846 l 1,5,-1
 976 846 l 1,6,-1
 976 660 l 1,7,-1
 388 660 l 1,8,-1
 388 193 l 1,9,-1
 1033 193 l 1,10,-1
 1026 0 l 1,11,-1
 142 0 l 1,0,-1
EndSplineSet
EndChar

StartChar: approxequal
Encoding: 8776 8776 285
Width: 1212
Flags: W
LayerCount: 2
UndoRedoHistory
Layer: 1
Undoes
EndUndoes
Redoes
EndRedoes
EndUndoRedoHistory
Fore
SplineSet
124 551 m 1,0,1
 154 663 154 663 226 727.5 c 128,-1,2
 298 792 298 792 405 792 c 128,-1,3
 512 792 512 792 666 712 c 0,4,5
 739 673 739 673 783 655.5 c 0,6,7
 826 638 826 638 876 638 c 0,8,9
 976 638 976 638 1060 792 c 1,10,-1
 1156 715 l 1,11,12
 1138 650 1138 650 1103 600 c 1,13,-1
 1155 557 l 1,14,15
 1125 450 1125 450 1048 384 c 128,-1,16
 971 318 971 318 857 318 c 0,17,18
 793 318 793 318 732.5 339 c 128,-1,19
 672 360 672 360 575.5 415.5 c 128,-1,20
 479 471 479 471 405 471 c 0,21,22
 281 471 281 471 226 314 c 1,23,-1
 123 393 l 1,24,25
 142 460 142 460 175 510 c 1,26,-1
 124 551 l 1,0,1
EndSplineSet
EndChar

StartChar: breve
Encoding: 728 728 287
Width: 684
Flags: W
LayerCount: 2
UndoRedoHistory
Layer: 1
Undoes
EndUndoes
Redoes
EndRedoes
EndUndoRedoHistory
Fore
SplineSet
149 1272.5 m 128,-1,1
 75 1336 75 1336 75 1460 c 1,2,-1
 223 1460 l 1,3,4
 223 1349 223 1349 342 1349 c 128,-1,5
 461 1349 461 1349 461 1460 c 1,6,-1
 608 1460 l 1,7,8
 608 1335 608 1335 534 1272 c 128,-1,9
 460 1209 460 1209 341.5 1209 c 128,-1,0
 223 1209 223 1209 149 1272.5 c 128,-1,1
EndSplineSet
EndChar

StartChar: bullet
Encoding: 8226 8226 288
Width: 870
Flags: W
LayerCount: 2
UndoRedoHistory
Layer: 1
Undoes
EndUndoes
Redoes
EndRedoes
EndUndoRedoHistory
Fore
SplineSet
695.5 473.5 m 128,-1,1
 597 379 597 379 455.5 379 c 128,-1,2
 314 379 314 379 218 471 c 128,-1,3
 122 563 122 563 122 709 c 128,-1,4
 122 855 122 855 220.5 949.5 c 128,-1,5
 319 1044 319 1044 460.5 1044 c 128,-1,6
 602 1044 602 1044 698 952 c 128,-1,7
 794 860 794 860 794 714 c 128,-1,0
 794 568 794 568 695.5 473.5 c 128,-1,1
EndSplineSet
EndChar

StartChar: caron
Encoding: 711 711 290
Width: 733
Flags: W
LayerCount: 2
UndoRedoHistory
Layer: 1
Undoes
EndUndoes
Redoes
EndRedoes
EndUndoRedoHistory
Fore
SplineSet
261 1095 m 1,0,-1
 33 1460 l 1,1,-1
 208 1460 l 1,2,-1
 351 1239 l 1,3,-1
 512 1460 l 1,4,-1
 690 1460 l 1,5,-1
 458 1095 l 1,6,-1
 261 1095 l 1,0,-1
EndSplineSet
EndChar

StartChar: circumflex
Encoding: 710 710 294
Width: 735
Flags: W
LayerCount: 2
UndoRedoHistory
Layer: 1
Undoes
EndUndoes
Redoes
EndRedoes
EndUndoRedoHistory
Fore
SplineSet
41 1072 m 1,0,-1
 263 1460 l 1,1,-1
 465 1460 l 1,2,-1
 683 1072 l 1,3,-1
 521 1072 l 1,4,-1
 357 1311 l 1,5,-1
 201 1072 l 1,6,-1
 41 1072 l 1,0,-1
EndSplineSet
EndChar

StartChar: dagger
Encoding: 8224 8224 295
Width: 896
Flags: W
LayerCount: 2
UndoRedoHistory
Layer: 1
Undoes
EndUndoes
Redoes
EndRedoes
EndUndoRedoHistory
Fore
SplineSet
380 114 m 1,0,-1
 380 958 l 1,1,-1
 83 958 l 1,2,-1
 83 1112 l 1,3,-1
 380 1112 l 1,4,-1
 380 1463 l 1,5,-1
 543 1463 l 1,6,-1
 543 1112 l 1,7,-1
 853 1112 l 1,8,-1
 853 958 l 1,9,-1
 540 958 l 1,10,-1
 540 114 l 1,11,-1
 380 114 l 1,0,-1
EndSplineSet
EndChar

StartChar: daggerdbl
Encoding: 8225 8225 296
Width: 934
Flags: W
LayerCount: 2
UndoRedoHistory
Layer: 1
Undoes
EndUndoes
Redoes
EndRedoes
EndUndoRedoHistory
Fore
SplineSet
825 399 m 1,0,-1
 559 399 l 1,1,-1
 559 21 l 1,2,-1
 393 21 l 1,3,-1
 393 399 l 1,4,-1
 122 399 l 1,5,-1
 122 539 l 1,6,-1
 393 539 l 1,7,-1
 393 951 l 1,8,-1
 123 951 l 1,9,-1
 123 1100 l 1,10,-1
 393 1100 l 1,11,-1
 393 1459 l 1,12,-1
 556 1459 l 1,13,-1
 556 1100 l 1,14,-1
 827 1100 l 1,15,-1
 827 951 l 1,16,-1
 558 951 l 1,17,-1
 559 539 l 1,18,-1
 825 539 l 1,19,-1
 825 399 l 1,0,-1
EndSplineSet
EndChar

StartChar: dcroat
Encoding: 273 273 298
Width: 1301
Flags: W
LayerCount: 2
UndoRedoHistory
Layer: 1
Undoes
EndUndoes
Redoes
EndRedoes
EndUndoRedoHistory
Fore
SplineSet
140 1220 m 1,0,-1
 140 1331 l 1,1,-1
 645 1331 l 1,2,-1
 645 1220 l 1,3,-1
 140 1220 l 1,0,-1
528 -18 m 0,4,5
 317 -18 317 -18 195.5 132 c 128,-1,6
 74 282 74 282 74 530.5 c 128,-1,7
 74 779 74 779 197.5 927.5 c 128,-1,8
 321 1076 321 1076 526.5 1076 c 128,-1,9
 732 1076 732 1076 839 941 c 1,10,-1
 831 1110 l 1,11,-1
 831 1460 l 1,12,-1
 1055 1480 l 1,13,-1
 1055 0 l 1,14,-1
 874 0 l 1,15,-1
 853 169 l 1,16,17
 818 104 818 104 766 58 c 0,18,19
 680 -18 680 -18 528 -18 c 0,4,5
840 518 m 1,20,21
 840 720 840 720 774.5 812 c 128,-1,22
 709 904 709 904 580.5 904 c 128,-1,23
 452 904 452 904 376 813.5 c 128,-1,24
 300 723 300 723 300 533 c 0,25,26
 300 152 300 152 569 152 c 128,-1,27
 838 152 838 152 840 518 c 1,20,21
EndSplineSet
EndChar

StartChar: dotaccent
Encoding: 729 729 299
Width: 435
Flags: W
LayerCount: 2
UndoRedoHistory
Layer: 1
Undoes
EndUndoes
Redoes
EndRedoes
EndUndoRedoHistory
Fore
SplineSet
100 1182 m 1,0,-1
 100 1427 l 1,1,-1
 347 1427 l 1,2,-1
 347 1182 l 1,3,-1
 100 1182 l 1,0,-1
EndSplineSet
EndChar

StartChar: dotlessi
Encoding: 305 305 300
Width: 490
Flags: W
LayerCount: 2
UndoRedoHistory
Layer: 1
Undoes
EndUndoes
Redoes
EndRedoes
EndUndoRedoHistory
Fore
SplineSet
151 0 m 1,0,-1
 151 1085 l 1,1,-1
 370 1085 l 1,2,-1
 370 0 l 1,3,-1
 151 0 l 1,0,-1
EndSplineSet
EndChar

StartChar: ellipsis
Encoding: 8230 8230 304
Width: 1476
Flags: W
LayerCount: 2
UndoRedoHistory
Layer: 1
Undoes
EndUndoes
Redoes
EndRedoes
EndUndoRedoHistory
Fore
SplineSet
346 27 m 128,-1,1
 312 -12 312 -12 249.5 -12 c 128,-1,2
 187 -12 187 -12 151.5 27 c 128,-1,3
 116 66 116 66 116 119 c 128,-1,4
 116 172 116 172 151 211 c 128,-1,5
 186 250 186 250 249 250 c 128,-1,6
 312 250 312 250 346 211 c 128,-1,7
 380 172 380 172 380 119 c 128,-1,0
 380 66 380 66 346 27 c 128,-1,1
837.5 27 m 128,-1,9
 803 -12 803 -12 740.5 -12 c 128,-1,10
 678 -12 678 -12 643 27 c 128,-1,11
 608 66 608 66 608 119 c 128,-1,12
 608 172 608 172 642.5 211 c 128,-1,13
 677 250 677 250 740 250 c 128,-1,14
 803 250 803 250 837.5 211 c 128,-1,15
 872 172 872 172 872 119 c 128,-1,8
 872 66 872 66 837.5 27 c 128,-1,9
1328 27 m 128,-1,17
 1293 -12 1293 -12 1230.5 -12 c 128,-1,18
 1168 -12 1168 -12 1133 27 c 128,-1,19
 1098 66 1098 66 1098 119 c 128,-1,20
 1098 172 1098 172 1132.5 211 c 128,-1,21
 1167 250 1167 250 1230 250 c 128,-1,22
 1293 250 1293 250 1328 211 c 128,-1,23
 1363 172 1363 172 1363 119 c 128,-1,16
 1363 66 1363 66 1328 27 c 128,-1,17
EndSplineSet
EndChar

StartChar: emdash
Encoding: 8212 8212 306
Width: 2133
Flags: W
LayerCount: 2
UndoRedoHistory
Layer: 1
Undoes
EndUndoes
Redoes
EndRedoes
EndUndoRedoHistory
Fore
SplineSet
69 484 m 1,0,-1
 69 655 l 1,1,-1
 2135 655 l 1,2,-1
 2135 484 l 1,3,-1
 69 484 l 1,0,-1
EndSplineSet
EndChar

StartChar: endash
Encoding: 8211 8211 307
Width: 1189
Flags: W
LayerCount: 2
UndoRedoHistory
Layer: 1
Undoes
EndUndoes
Redoes
EndRedoes
EndUndoRedoHistory
Fore
SplineSet
96 484 m 1,0,-1
 96 655 l 1,1,-1
 1141 655 l 1,2,-1
 1141 484 l 1,3,-1
 96 484 l 1,0,-1
EndSplineSet
EndChar

StartChar: eng
Encoding: 331 331 308
Width: 1114
Flags: W
LayerCount: 2
UndoRedoHistory
Layer: 1
Undoes
EndUndoes
Redoes
EndRedoes
EndUndoRedoHistory
Fore
SplineSet
632 -327 m 1,0,-1
 612 -145 l 1,1,-1
 665 -145 l 2,2,3
 707 -145 707 -145 747.5 -140.5 c 128,-1,4
 788 -136 788 -136 814 -102.5 c 128,-1,5
 840 -69 840 -69 840 81 c 2,6,-1
 840 665 l 1,7,8
 839 802 839 802 799.5 867.5 c 128,-1,9
 760 933 760 933 655.5 933 c 128,-1,10
 551 933 551 933 485 884.5 c 128,-1,11
 419 836 419 836 390 754 c 1,12,13
 377 684 377 684 377 562 c 2,14,-1
 377 0 l 1,15,-1
 147 0 l 1,16,-1
 147 1085 l 1,17,-1
 338 1085 l 1,18,-1
 361 946 l 1,19,20
 495 1109 495 1109 705 1109 c 0,21,22
 1069 1109 1069 1109 1069 674 c 2,23,-1
 1069 132 l 2,24,25
 1070 -166 1070 -166 966 -254 c 0,26,27
 880 -328 880 -328 700 -327 c 2,28,-1
 632 -327 l 1,0,-1
EndSplineSet
EndChar

StartChar: fraction
Encoding: 8260 8260 310
Width: 1099
Flags: W
LayerCount: 2
UndoRedoHistory
Layer: 1
Undoes
EndUndoes
Redoes
EndRedoes
EndUndoRedoHistory
Fore
SplineSet
71 0 m 1,0,-1
 905 1484 l 1,1,-1
 1082 1484 l 1,2,-1
 253 0 l 1,3,-1
 71 0 l 1,0,-1
EndSplineSet
EndChar

StartChar: greaterequal
Encoding: 8805 8805 315
Width: 1139
Flags: W
LayerCount: 2
UndoRedoHistory
Layer: 1
Undoes
EndUndoes
Redoes
EndRedoes
EndUndoRedoHistory
Fore
SplineSet
148 220 m 1,0,-1
 148 401 l 1,1,-1
 847 740 l 1,2,-1
 150 1099 l 1,3,-1
 150 1278 l 1,4,-1
 1053 792 l 1,5,-1
 1053 688 l 1,6,-1
 148 220 l 1,0,-1
131 5 m 1,7,-1
 131 155 l 1,8,-1
 1064 155 l 1,9,-1
 1064 5 l 1,10,-1
 131 5 l 1,7,-1
EndSplineSet
EndChar

StartChar: guilsinglleft
Encoding: 8249 8249 316
Width: 559
Flags: W
LayerCount: 2
UndoRedoHistory
Layer: 1
Undoes
EndUndoes
Redoes
EndRedoes
EndUndoRedoHistory
Fore
SplineSet
531 978 m 1,0,-1
 258 565 l 1,1,-1
 525 160 l 1,2,-1
 344 160 l 1,3,-1
 67 565 l 1,4,-1
 350 978 l 1,5,-1
 531 978 l 1,0,-1
EndSplineSet
EndChar

StartChar: guilsinglright
Encoding: 8250 8250 317
Width: 563
Flags: W
LayerCount: 2
UndoRedoHistory
Layer: 1
Undoes
EndUndoes
Redoes
EndRedoes
EndUndoRedoHistory
Fore
SplineSet
72 160 m 1,0,-1
 344 570 l 1,1,-1
 78 978 l 1,2,-1
 259 978 l 1,3,-1
 539 569 l 1,4,-1
 253 160 l 1,5,-1
 72 160 l 1,0,-1
EndSplineSet
EndChar

StartChar: hbar
Encoding: 295 295 318
Width: 1135
Flags: W
LayerCount: 2
UndoRedoHistory
Layer: 1
Undoes
EndUndoes
Redoes
EndRedoes
EndUndoRedoHistory
Fore
SplineSet
156 0 m 1,0,-1
 156 1219 l 1,1,-1
 63 1219 l 1,2,-1
 63 1352 l 1,3,-1
 156 1352 l 1,4,-1
 156 1467 l 1,5,-1
 369 1487 l 1,6,-1
 369 1352 l 1,7,-1
 643 1352 l 1,8,-1
 643 1219 l 1,9,-1
 369 1219 l 1,10,-1
 369 959 l 1,11,12
 506 1108 506 1108 727 1108 c 0,13,14
 892 1108 892 1108 981.5 995 c 128,-1,15
 1071 882 1071 882 1071 657 c 2,16,-1
 1071 0 l 1,17,-1
 860 0 l 1,18,-1
 860 628 l 2,19,20
 860 796 860 796 821.5 865.5 c 128,-1,21
 783 935 783 935 674.5 935 c 128,-1,22
 566 935 566 935 481.5 874.5 c 128,-1,23
 397 814 397 814 369 736 c 1,24,-1
 369 0 l 1,25,-1
 156 0 l 1,0,-1
EndSplineSet
EndChar

StartChar: hungarumlaut
Encoding: 733 733 320
Width: 831
Flags: W
LayerCount: 2
UndoRedoHistory
Layer: 1
Undoes
EndUndoes
Redoes
EndRedoes
EndUndoRedoHistory
Fore
SplineSet
125 1058 m 1,0,-1
 343 1530 l 1,1,-1
 549 1530 l 1,2,-1
 249 1058 l 1,3,-1
 125 1058 l 1,0,-1
396 1058 m 1,4,-1
 630 1530 l 1,5,-1
 842 1530 l 1,6,-1
 520 1058 l 1,7,-1
 396 1058 l 1,4,-1
EndSplineSet
EndChar

StartChar: infinity
Encoding: 8734 8734 324
Width: 1769
Flags: W
LayerCount: 2
UndoRedoHistory
Layer: 1
Undoes
EndUndoes
Redoes
EndRedoes
EndUndoRedoHistory
Fore
SplineSet
687.5 322 m 128,-1,1
 588 252 588 252 475 252 c 128,-1,2
 362 252 362 252 280 308 c 0,3,4
 116 420 116 420 115 655 c 0,5,6
 115 803 115 803 217.5 906.5 c 128,-1,7
 320 1010 320 1010 473 1010 c 0,8,9
 626 1010 626 1010 760 884 c 0,10,11
 820 828 820 828 885 740 c 1,12,13
 979 870 979 870 1078 940 c 128,-1,14
 1177 1010 1177 1010 1298 1010 c 0,15,16
 1463 1010 1463 1010 1556 907 c 128,-1,17
 1649 804 1649 804 1649 637 c 128,-1,18
 1649 470 1649 470 1547.5 361 c 128,-1,19
 1446 252 1446 252 1296 252 c 0,20,21
 1185 252 1185 252 1087 317.5 c 128,-1,22
 989 383 989 383 885 521 c 1,23,0
 787 392 787 392 687.5 322 c 128,-1,1
473 378 m 0,24,25
 641 378 641 378 814 632 c 1,26,27
 652 887 652 887 466 887 c 0,28,29
 359 887 359 887 293.5 813.5 c 128,-1,30
 228 740 228 740 228 636.5 c 128,-1,31
 228 533 228 533 297.5 455.5 c 128,-1,32
 367 378 367 378 473 378 c 0,24,25
1131.5 439 m 128,-1,34
 1208 378 1208 378 1308.5 378 c 128,-1,35
 1409 378 1409 378 1468 457 c 128,-1,36
 1527 536 1527 536 1527 645 c 128,-1,37
 1527 754 1527 754 1460.5 820.5 c 128,-1,38
 1394 887 1394 887 1294 887 c 0,39,40
 1130 887 1130 887 957 634 c 1,41,33
 1055 500 1055 500 1131.5 439 c 128,-1,34
EndSplineSet
EndChar

StartChar: integral
Encoding: 8747 8747 325
Width: 733
Flags: W
LayerCount: 2
UndoRedoHistory
Layer: 1
Undoes
EndUndoes
Redoes
EndRedoes
EndUndoRedoHistory
Fore
SplineSet
165 -419 m 0,0,1
 113 -419 113 -419 52 -406 c 1,2,-1
 52 -312 l 1,3,4
 105 -325 105 -325 153 -325 c 0,5,6
 251 -325 251 -325 280 -253 c 128,-1,7
 309 -181 309 -181 309 -50 c 2,8,-1
 309 1137 l 2,9,10
 309 1322 309 1322 364.5 1410.5 c 128,-1,11
 420 1499 420 1499 547 1499 c 0,12,13
 598 1499 598 1499 666 1484 c 1,14,-1
 666 1390 l 1,15,16
 607 1406 607 1406 567 1406 c 0,17,18
 485 1406 485 1406 456 1338.5 c 128,-1,19
 427 1271 427 1271 427 1146 c 2,20,-1
 427 -42 l 2,21,22
 427 -230 427 -230 364 -324.5 c 128,-1,23
 301 -419 301 -419 165 -419 c 0,0,1
EndSplineSet
EndChar

StartChar: kgreenlandic
Encoding: 312 312 330
Width: 1069
Flags: W
LayerCount: 2
UndoRedoHistory
Layer: 1
Undoes
EndUndoes
Redoes
EndRedoes
EndUndoRedoHistory
Fore
SplineSet
128 0 m 1,0,-1
 128 1058 l 1,1,-1
 350 1058 l 1,2,-1
 350 783 l 1,3,-1
 344 569 l 1,4,-1
 786 1058 l 1,5,-1
 1061 1058 l 1,6,-1
 617 575 l 1,7,-1
 1083 0 l 1,8,-1
 820 0 l 1,9,-1
 451 461 l 1,10,-1
 350 367 l 1,11,-1
 350 0 l 1,12,-1
 128 0 l 1,0,-1
EndSplineSet
EndChar

StartChar: lessequal
Encoding: 8804 8804 335
Width: 1141
Flags: W
LayerCount: 2
UndoRedoHistory
Layer: 1
Undoes
EndUndoes
Redoes
EndRedoes
EndUndoRedoHistory
Fore
SplineSet
1046 276 m 1,0,-1
 144 715 l 1,1,-1
 144 821 l 1,2,-1
 1046 1277 l 1,3,-1
 1046 1098 l 1,4,-1
 372 769 l 1,5,-1
 1046 457 l 1,6,-1
 1046 276 l 1,0,-1
125 1 m 1,7,-1
 125 149 l 1,8,-1
 1062 149 l 1,9,-1
 1062 1 l 1,10,-1
 125 1 l 1,7,-1
EndSplineSet
EndChar

StartChar: lozenge
Encoding: 9674 9674 336
Width: 1127
Flags: W
LayerCount: 2
UndoRedoHistory
Layer: 1
Undoes
EndUndoes
Redoes
EndRedoes
EndUndoRedoHistory
Fore
SplineSet
523 -46 m 1,0,-1
 99 734 l 1,1,-1
 530 1518 l 1,2,-1
 651 1518 l 1,3,-1
 1076 735 l 1,4,-1
 642 -46 l 1,5,-1
 523 -46 l 1,0,-1
592 1326 m 1,6,7
 278 756 278 756 267 736 c 1,8,9
 564 174 564 174 581 142 c 1,10,11
 632 235 632 235 742 433.5 c 128,-1,12
 852 632 852 632 908 735 c 1,13,-1
 592 1326 l 1,6,7
EndSplineSet
EndChar

StartChar: middot
Encoding: 65538 -1 337
Width: 405
Flags: W
LayerCount: 2
UndoRedoHistory
Layer: 1
Undoes
EndUndoes
Redoes
EndRedoes
EndUndoRedoHistory
Fore
SplineSet
116 558 m 1,0,-1
 116 754 l 1,1,-1
 284 754 l 1,2,-1
 284 558 l 1,3,-1
 116 558 l 1,0,-1
EndSplineSet
EndChar

StartChar: minus
Encoding: 8722 8722 338
Width: 1218
Flags: W
LayerCount: 2
UndoRedoHistory
Layer: 1
Undoes
EndUndoes
Redoes
EndRedoes
EndUndoRedoHistory
Fore
SplineSet
108 491 m 1,0,-1
 108 662 l 1,1,-1
 1110 662 l 1,2,-1
 1110 491 l 1,3,-1
 108 491 l 1,0,-1
EndSplineSet
EndChar

StartChar: mu
Encoding: 956 956 339
Width: 1125
Flags: W
LayerCount: 2
UndoRedoHistory
Layer: 1
Undoes
EndUndoes
Redoes
EndRedoes
EndUndoRedoHistory
Fore
SplineSet
488 -18 m 0,0,1
 401 -18 401 -18 333 6 c 1,2,-1
 333 -464 l 1,3,-1
 109 -464 l 1,4,-1
 109 1058 l 1,5,-1
 333 1058 l 1,6,-1
 333 409 l 2,7,8
 333 280 333 280 381.5 216 c 128,-1,9
 430 152 430 152 557.5 152 c 128,-1,10
 685 152 685 152 742 237.5 c 128,-1,11
 799 323 799 323 799 491 c 2,12,-1
 799 1058 l 1,13,-1
 1023 1058 l 1,14,-1
 1023 0 l 1,15,-1
 844 0 l 1,16,-1
 822 165 l 1,17,18
 729 -18 729 -18 488 -18 c 0,0,1
EndSplineSet
EndChar

StartChar: notequal
Encoding: 8800 8800 344
Width: 1179
Flags: W
LayerCount: 2
UndoRedoHistory
Layer: 1
Undoes
EndUndoes
Redoes
EndRedoes
EndUndoRedoHistory
Fore
SplineSet
415 44 m 1,0,-1
 273 67 l 1,1,-1
 390 327 l 1,2,-1
 137 327 l 1,3,-1
 128 481 l 1,4,-1
 464 481 l 1,5,-1
 592 736 l 1,6,-1
 137 736 l 1,7,-1
 126 896 l 1,8,-1
 662 896 l 1,9,-1
 797 1165 l 1,10,-1
 940 1146 l 1,11,-1
 826 896 l 1,12,-1
 1093 896 l 1,13,-1
 1105 735 l 1,14,-1
 755 735 l 1,15,-1
 624 480 l 1,16,-1
 1095 480 l 1,17,-1
 1105 327 l 1,18,-1
 553 327 l 1,19,-1
 415 44 l 1,0,-1
EndSplineSet
EndChar

StartChar: ogonek
Encoding: 731 731 347
Width: 542
Flags: W
LayerCount: 2
UndoRedoHistory
Layer: 1
Undoes
EndUndoes
Redoes
EndRedoes
EndUndoRedoHistory
Fore
SplineSet
364 -294 m 0,0,1
 408 -294 408 -294 475 -265 c 1,2,-1
 480 -396 l 1,3,4
 394 -430 394 -430 306.5 -430 c 128,-1,5
 219 -430 219 -430 164 -386.5 c 128,-1,6
 109 -343 109 -343 109 -261 c 128,-1,7
 109 -179 109 -179 168 -108 c 128,-1,8
 227 -37 227 -37 305 0 c 1,9,-1
 406 0 l 1,10,11
 353 -41 353 -41 315 -104.5 c 128,-1,12
 277 -168 277 -168 277 -210 c 0,13,14
 276 -294 276 -294 364 -294 c 0,0,1
EndSplineSet
EndChar

StartChar: onesuperior
Encoding: 65539 -1 352
Width: 780
Flags: W
LayerCount: 2
UndoRedoHistory
Layer: 1
Undoes
EndUndoes
Redoes
EndRedoes
EndUndoRedoHistory
Fore
SplineSet
421 1460 m 1,0,1
 531 1460 l 1,2,-1
 531 707 l 1,3,-1
 670 707 l 1,4,-1
 670 598 l 1,5,-1
 239 598 l 1,6,-1
 239 707 l 1,7,-1
 393 707 l 1,8,-1
 393 1320 l 1,9,10
 340 1287 340 1287 229 1248 c 1,11,-1
 229 1359 l 1,12,13
 369 1411 369 1411 421 1460 c 1,0,1
EndSplineSet
EndChar

StartChar: partialdiff
Encoding: 8706 8706 354
Width: 1205
Flags: W
LayerCount: 2
UndoRedoHistory
Layer: 1
Undoes
EndUndoes
Redoes
EndRedoes
EndUndoRedoHistory
Fore
SplineSet
923 895 m 1,0,-1
 924 973 l 1,1,2
 924 1219 924 1219 838.5 1357.5 c 128,-1,3
 753 1496 753 1496 604 1496 c 128,-1,4
 455 1496 455 1496 312 1396 c 1,5,-1
 299 1542 l 1,6,7
 442 1640 442 1640 618 1640 c 0,8,9
 1075 1640 1075 1640 1075 910 c 0,10,11
 1075 614 1075 614 987.5 369 c 128,-1,12
 900 124 900 124 727 26 c 0,13,14
 633 -28 633 -28 526 -28 c 0,15,16
 318 -28 318 -28 221.5 107 c 128,-1,17
 125 242 125 242 125 433 c 128,-1,18
 125 624 125 624 187 765.5 c 128,-1,19
 249 907 249 907 361 988.5 c 128,-1,20
 473 1070 473 1070 614 1070 c 0,21,22
 818 1070 818 1070 923 895 c 1,0,-1
338.5 208 m 128,-1,24
 406 118 406 118 515 118 c 128,-1,25
 624 118 624 118 708 198 c 0,26,27
 876 356 876 356 910 701 c 1,28,29
 881 799 881 799 811 864 c 128,-1,30
 741 929 741 929 640 929 c 0,31,32
 487 929 487 929 379 786.5 c 128,-1,33
 271 644 271 644 271 448 c 0,34,23
 271 298 271 298 338.5 208 c 128,-1,24
EndSplineSet
EndChar

StartChar: perthousand
Encoding: 8240 8240 355
Width: 2323
Flags: W
LayerCount: 2
UndoRedoHistory
Layer: 1
Undoes
EndUndoes
Redoes
EndRedoes
EndUndoRedoHistory
Fore
SplineSet
290 985 m 128,-1,1
 333 913 333 913 414 913 c 128,-1,2
 495 913 495 913 537.5 986.5 c 128,-1,3
 580 1060 580 1060 580 1172.5 c 128,-1,4
 580 1285 580 1285 537 1357 c 128,-1,5
 494 1429 494 1429 413 1429 c 128,-1,6
 332 1429 332 1429 289.5 1355.5 c 128,-1,7
 247 1282 247 1282 247 1169.5 c 128,-1,0
 247 1057 247 1057 290 985 c 128,-1,1
629 896 m 128,-1,9
 550 790 550 790 411.5 790 c 128,-1,10
 273 790 273 790 195.5 894 c 128,-1,11
 118 998 118 998 118 1168.5 c 128,-1,12
 118 1339 118 1339 196 1443.5 c 128,-1,13
 274 1548 274 1548 415 1548 c 128,-1,14
 556 1548 556 1548 632 1447 c 128,-1,15
 708 1346 708 1346 708 1174 c 128,-1,8
 708 1002 708 1002 629 896 c 128,-1,9
268 -21 m 1,16,-1
 1119 1537 l 1,17,-1
 1275 1537 l 1,18,-1
 403 -21 l 1,19,-1
 268 -21 l 1,16,-1
964 165 m 128,-1,21
 1015 93 1015 93 1109.5 93 c 128,-1,22
 1204 93 1204 93 1256 168 c 128,-1,23
 1308 243 1308 243 1308 354.5 c 128,-1,24
 1308 466 1308 466 1258 536 c 128,-1,25
 1208 606 1208 606 1111 606 c 128,-1,26
 1014 606 1014 606 963.5 534 c 128,-1,27
 913 462 913 462 913 349.5 c 128,-1,20
 913 237 913 237 964 165 c 128,-1,21
1350.5 75 m 128,-1,29
 1266 -30 1266 -30 1107.5 -30 c 128,-1,30
 949 -30 949 -30 865.5 73 c 128,-1,31
 782 176 782 176 782 349 c 128,-1,32
 782 522 782 522 866 626 c 128,-1,33
 950 730 950 730 1111 730 c 128,-1,34
 1272 730 1272 730 1353.5 629 c 128,-1,35
 1435 528 1435 528 1435 354 c 128,-1,28
 1435 180 1435 180 1350.5 75 c 128,-1,29
1729 165 m 128,-1,37
 1781 93 1781 93 1878 93 c 128,-1,38
 1975 93 1975 93 2026.5 167 c 128,-1,39
 2078 241 2078 241 2078 352 c 128,-1,40
 2078 463 2078 463 2025 534.5 c 128,-1,41
 1972 606 1972 606 1876 606 c 128,-1,42
 1780 606 1780 606 1728.5 534 c 128,-1,43
 1677 462 1677 462 1677 349.5 c 128,-1,36
 1677 237 1677 237 1729 165 c 128,-1,37
2117.5 75.5 m 128,-1,45
 2033 -30 2033 -30 1874.5 -30 c 128,-1,46
 1716 -30 1716 -30 1633 73 c 128,-1,47
 1550 176 1550 176 1550 348.5 c 128,-1,48
 1550 521 1550 521 1635 625.5 c 128,-1,49
 1720 730 1720 730 1880 730 c 128,-1,50
 2040 730 2040 730 2121 630 c 128,-1,51
 2202 530 2202 530 2202 355.5 c 128,-1,44
 2202 181 2202 181 2117.5 75.5 c 128,-1,45
EndSplineSet
EndChar

StartChar: product
Encoding: 8719 8719 356
Width: 1456
Flags: W
LayerCount: 2
UndoRedoHistory
Layer: 1
Undoes
EndUndoes
Redoes
EndRedoes
EndUndoRedoHistory
Fore
SplineSet
149 0 m 1,0,-1
 149 1485 l 1,1,-1
 1310 1485 l 1,2,-1
 1310 0 l 1,3,-1
 1134 0 l 1,4,-1
 1134 1332 l 1,5,-1
 325 1332 l 1,6,-1
 325 0 l 1,7,-1
 149 0 l 1,0,-1
EndSplineSet
EndChar

StartChar: quotedblbase
Encoding: 8222 8222 357
Width: 822
Flags: W
LayerCount: 2
UndoRedoHistory
Layer: 1
Undoes
EndUndoes
Redoes
EndRedoes
EndUndoRedoHistory
Fore
SplineSet
137 -250 m 1,0,-1
 236 228 l 1,1,-1
 432 228 l 1,2,-1
 285 -250 l 1,3,-1
 137 -250 l 1,0,-1
441 -250 m 1,4,-1
 542 228 l 1,5,-1
 739 228 l 1,6,-1
 591 -250 l 1,7,-1
 441 -250 l 1,4,-1
EndSplineSet
EndChar

StartChar: quotedblleft
Encoding: 8220 8220 358
Width: 728
Flags: W
LayerCount: 2
UndoRedoHistory
Layer: 1
Undoes
EndUndoes
Redoes
EndRedoes
EndUndoRedoHistory
Fore
SplineSet
397 956 m 1,0,-1
 180 956 l 1,1,-1
 91 1460 l 1,2,-1
 248 1460 l 1,3,-1
 397 956 l 1,0,-1
728 955 m 1,4,-1
 508 955 l 1,5,-1
 414 1460 l 1,6,-1
 566 1460 l 1,7,-1
 728 955 l 1,4,-1
EndSplineSet
EndChar

StartChar: quotedblright
Encoding: 8221 8221 359
Width: 788
Flags: W
LayerCount: 2
UndoRedoHistory
Layer: 1
Undoes
EndUndoes
Redoes
EndRedoes
EndUndoRedoHistory
Fore
SplineSet
89 904 m 1,0,-1
 180 1460 l 1,1,-1
 397 1460 l 1,2,-1
 246 904 l 1,3,-1
 89 904 l 1,0,-1
411 904 m 1,4,-1
 506 1460 l 1,5,-1
 727 1460 l 1,6,-1
 563 904 l 1,7,-1
 411 904 l 1,4,-1
EndSplineSet
EndChar

StartChar: quoteleft
Encoding: 8216 8216 360
Width: 426
Flags: W
LayerCount: 2
UndoRedoHistory
Layer: 1
Undoes
EndUndoes
Redoes
EndRedoes
EndUndoRedoHistory
Fore
SplineSet
210 960 m 1,0,-1
 85 1460 l 1,1,-1
 291 1460 l 1,2,-1
 364 960 l 1,3,-1
 210 960 l 1,0,-1
EndSplineSet
EndChar

StartChar: quoteright
Encoding: 8217 8217 361
Width: 422
Flags: W
LayerCount: 2
UndoRedoHistory
Layer: 1
Undoes
EndUndoes
Redoes
EndRedoes
EndUndoRedoHistory
Fore
SplineSet
74 960 m 1,0,-1
 173 1460 l 1,1,-1
 394 1460 l 1,2,-1
 220 960 l 1,3,-1
 74 960 l 1,0,-1
EndSplineSet
EndChar

StartChar: quotesinglbase
Encoding: 8218 8218 362
Width: 475
Flags: W
LayerCount: 2
UndoRedoHistory
Layer: 1
Undoes
EndUndoes
Redoes
EndRedoes
EndUndoRedoHistory
Fore
SplineSet
101 -250 m 1,0,-1
 200 228 l 1,1,-1
 394 228 l 1,2,-1
 248 -250 l 1,3,-1
 101 -250 l 1,0,-1
EndSplineSet
EndChar

StartChar: radical
Encoding: 8730 8730 364
Width: 1265
Flags: W
LayerCount: 2
UndoRedoHistory
Layer: 1
Undoes
EndUndoes
Redoes
EndRedoes
EndUndoRedoHistory
Fore
SplineSet
668 44 m 1,0,1
 751 388 751 388 1072 1705 c 1,2,-1
 1184 1705 l 1,3,-1
 747 -165 l 1,4,-1
 609 -165 l 1,5,-1
 278 737 l 1,6,-1
 126 707 l 1,7,-1
 111 827 l 1,8,-1
 370 883 l 1,9,-1
 609 228 l 1,10,-1
 668 44 l 1,0,1
EndSplineSet
EndChar

StartChar: rho
Encoding: 961 961 367
Width: 1188
Flags: W
LayerCount: 2
UndoRedoHistory
Layer: 1
Undoes
EndUndoes
Redoes
EndRedoes
EndUndoRedoHistory
Fore
SplineSet
140 -452 m 1,0,-1
 140 1085 l 1,1,-1
 341 1085 l 1,2,-1
 362 937 l 1,3,4
 408 1014 408 1014 500 1061.5 c 128,-1,5
 592 1109 592 1109 714.5 1109 c 128,-1,6
 837 1109 837 1109 940 1034.5 c 128,-1,7
 1043 960 1043 960 1095.5 832 c 128,-1,8
 1148 704 1148 704 1148 542 c 0,9,10
 1148 295 1148 295 1021.5 137 c 128,-1,11
 895 -21 895 -21 688 -21 c 0,12,13
 590 -21 590 -21 504 19 c 128,-1,14
 418 59 418 59 363 127 c 1,15,16
 368 27 368 27 368 -38 c 2,17,-1
 368 -441 l 1,18,-1
 140 -452 l 1,0,-1
848.5 257 m 128,-1,20
 920 360 920 360 920 547.5 c 128,-1,21
 920 735 920 735 849 834.5 c 128,-1,22
 778 934 778 934 646 934 c 0,23,24
 369 934 369 934 367 563 c 1,25,26
 367 354 367 354 434 254 c 128,-1,27
 501 154 501 154 639 154 c 128,-1,19
 777 154 777 154 848.5 257 c 128,-1,20
EndSplineSet
EndChar

StartChar: ring
Encoding: 730 730 368
Width: 602
Flags: W
LayerCount: 2
UndoRedoHistory
Layer: 1
Undoes
EndUndoes
Redoes
EndRedoes
EndUndoRedoHistory
Fore
SplineSet
368.5 1210.5 m 128,-1,1
 395 1240 395 1240 395 1282 c 128,-1,2
 395 1324 395 1324 368.5 1354 c 128,-1,3
 342 1384 342 1384 300.5 1384 c 128,-1,4
 259 1384 259 1384 233 1354 c 128,-1,5
 207 1324 207 1324 207 1281.5 c 128,-1,6
 207 1239 207 1239 232 1210 c 128,-1,7
 257 1181 257 1181 299.5 1181 c 128,-1,0
 342 1181 342 1181 368.5 1210.5 c 128,-1,1
300 1086 m 128,-1,9
 209 1086 209 1086 151.5 1144 c 128,-1,10
 94 1202 94 1202 94 1284 c 128,-1,11
 94 1366 94 1366 151 1423 c 128,-1,12
 208 1480 208 1480 300 1480 c 128,-1,13
 392 1480 392 1480 449.5 1423 c 128,-1,14
 507 1366 507 1366 507 1284 c 128,-1,15
 507 1202 507 1202 449 1144 c 128,-1,8
 391 1086 391 1086 300 1086 c 128,-1,9
EndSplineSet
EndChar

StartChar: summation
Encoding: 8721 8721 374
Width: 1198
Flags: W
LayerCount: 2
UndoRedoHistory
Layer: 1
Undoes
EndUndoes
Redoes
EndRedoes
EndUndoRedoHistory
Fore
SplineSet
71 -335 m 1,0,-1
 71 -221 l 1,1,-1
 666 574 l 1,2,-1
 92 1351 l 1,3,-1
 92 1470 l 1,4,-1
 1144 1470 l 1,5,-1
 1144 1294 l 1,6,-1
 352 1294 l 1,7,-1
 898 581 l 1,8,-1
 328 -152 l 1,9,-1
 1184 -152 l 1,10,-1
 1184 -335 l 1,11,-1
 71 -335 l 1,0,-1
EndSplineSet
EndChar

StartChar: tbar
Encoding: 359 359 375
Width: 889
Flags: W
LayerCount: 2
UndoRedoHistory
Layer: 1
Undoes
EndUndoes
Redoes
EndRedoes
EndUndoRedoHistory
Fore
SplineSet
614 116 m 1,0,-1
 750 128 l 1,1,-1
 765 -6 l 1,2,3
 618 -19 618 -19 572 -19 c 0,4,5
 384 -19 384 -19 332 93 c 0,6,7
 306 149 306 149 298.5 231 c 128,-1,8
 291 313 291 313 291 442 c 2,9,-1
 291 634 l 1,10,-1
 137 634 l 1,11,-1
 137 759 l 1,12,-1
 291 759 l 1,13,-1
 291 973 l 1,14,-1
 124 973 l 1,15,-1
 138 1090 l 1,16,-1
 291 1090 l 1,17,-1
 334 1337 l 1,18,-1
 457 1345 l 1,19,-1
 457 1090 l 1,20,-1
 746 1090 l 1,21,-1
 746 973 l 1,22,-1
 457 973 l 1,23,-1
 457 759 l 1,24,-1
 665 759 l 1,25,-1
 665 634 l 1,26,-1
 457 634 l 1,27,-1
 457 364 l 2,28,29
 457 209 457 209 486 162.5 c 128,-1,30
 515 116 515 116 614 116 c 1,0,-1
EndSplineSet
EndChar

StartChar: tilde
Encoding: 732 732 378
Width: 784
Flags: W
LayerCount: 2
UndoRedoHistory
Layer: 1
Undoes
EndUndoes
Redoes
EndRedoes
EndUndoRedoHistory
Fore
SplineSet
606 1460 m 1,0,1
 721 1460 l 1,2,3
 721 1360 721 1360 677.5 1293.5 c 128,-1,4
 634 1227 634 1227 550 1227 c 0,5,6
 503 1227 503 1227 446.5 1251.5 c 128,-1,7
 390 1276 390 1276 341 1300 c 128,-1,8
 292 1324 292 1324 264 1324 c 0,9,10
 210 1324 210 1324 192 1227 c 1,11,-1
 78 1227 l 1,12,13
 78 1330 78 1330 124.5 1395.5 c 128,-1,14
 171 1461 171 1461 259.5 1461 c 128,-1,15
 348 1461 348 1461 478 1399 c 0,16,17
 522 1378 522 1378 545 1378 c 0,18,19
 590 1378 590 1378 606 1460 c 1,0,1
EndSplineSet
EndChar

StartChar: trademark
Encoding: 8482 8482 379
Width: 1709
Flags: W
LayerCount: 2
UndoRedoHistory
Layer: 1
Undoes
EndUndoes
Redoes
EndRedoes
EndUndoRedoHistory
Fore
SplineSet
793 619 m 1,0,-1
 793 1458 l 1,1,-1
 980 1458 l 1,2,-1
 1213 867 l 1,3,-1
 1458 1458 l 1,4,-1
 1633 1458 l 1,5,-1
 1633 619 l 1,6,-1
 1492 619 l 1,7,-1
 1492 1225 l 1,8,-1
 1256 662 l 1,9,-1
 1157 662 l 1,10,-1
 934 1221 l 1,11,-1
 934 619 l 1,12,-1
 793 619 l 1,0,-1
320 619 m 1,13,-1
 320 1324 l 1,14,-1
 72 1324 l 1,15,-1
 72 1458 l 1,16,-1
 710 1458 l 1,17,-1
 710 1324 l 1,18,-1
 463 1324 l 1,19,-1
 463 619 l 1,20,-1
 320 619 l 1,13,-1
EndSplineSet
EndChar

StartChar: uni0237
Encoding: 567 567 469
Width: 526
Flags: W
LayerCount: 2
UndoRedoHistory
Layer: 1
Undoes
EndUndoes
Redoes
EndRedoes
EndUndoRedoHistory
Fore
SplineSet
-24 -431 m 1,0,-1
 -56 -252 l 1,1,-1
 8 -252 l 2,2,3
 65 -252 65 -252 84 -246.5 c 128,-1,4
 103 -241 103 -241 115 -238 c 128,-1,5
 127 -235 127 -235 136 -225.5 c 128,-1,6
 145 -216 145 -216 151 -210 c 0,7,8
 171 -190 171 -190 171 -96 c 2,9,10
 171 1092 l 1,11,-1
 405 1092 l 1,12,-1
 405 -28 l 2,13,14
 405 -140 405 -140 390.5 -211 c 128,-1,15
 376 -282 376 -282 336 -334.5 c 128,-1,16
 296 -387 296 -387 224 -409 c 128,-1,17
 152 -431 152 -431 38 -431 c 2,18,-1
 -24 -431 l 1,0,-1
EndSplineSet
EndChar

StartChar: uni02BC
Encoding: 700 700 470
Width: 418
Flags: W
LayerCount: 2
UndoRedoHistory
Layer: 1
Undoes
EndUndoes
Redoes
EndRedoes
EndUndoRedoHistory
Fore
SplineSet
116 1013 m 1,0,-1
 161 1502 l 1,1,-1
 345 1502 l 1,2,-1
 249 1013 l 1,3,-1
 116 1013 l 1,0,-1
EndSplineSet
EndChar

StartChar: uni0307
Encoding: 775 775 471
Width: 411
Flags: W
LayerCount: 2
UndoRedoHistory
Layer: 1
Undoes
EndUndoes
Redoes
EndRedoes
EndUndoRedoHistory
Fore
SplineSet
124 1250 m 1,0,-1
 124 1460 l 1,1,-1
 311 1460 l 1,2,-1
 311 1250 l 1,3,-1
 124 1250 l 1,0,-1
EndSplineSet
EndChar

StartChar: uni030F
Encoding: 783 783 472
Width: 708
Flags: W
LayerCount: 2
UndoRedoHistory
Layer: 1
Undoes
EndUndoes
Redoes
EndRedoes
EndUndoRedoHistory
Fore
SplineSet
594 1152 m 1,0,-1
 489 1152 l 1,1,-1
 318 1520 l 1,2,-1
 462 1520 l 1,3,-1
 594 1152 l 1,0,-1
401 1152 m 1,4,-1
 293 1152 l 1,5,-1
 70 1520 l 1,6,-1
 226 1520 l 1,7,-1
 401 1152 l 1,4,-1
EndSplineSet
EndChar

StartChar: uni0311
Encoding: 785 785 473
Width: 663
Flags: W
LayerCount: 2
UndoRedoHistory
Layer: 1
Undoes
EndUndoes
Redoes
EndRedoes
EndUndoRedoHistory
Fore
SplineSet
79 1241 m 1,0,1
 79 1357 79 1357 157.5 1419 c 128,-1,2
 236 1481 236 1481 345 1481 c 0,3,4
 496 1481 496 1481 571 1376 c 0,5,6
 611 1320 611 1320 611 1241 c 1,7,8
 464 1241 l 1,9,10
 464 1297 464 1297 430 1326.5 c 128,-1,11
 396 1356 396 1356 344.5 1356 c 128,-1,12
 293 1356 293 1356 259.5 1326.5 c 128,-1,13
 226 1297 226 1297 226 1241 c 1,14,-1
 79 1241 l 1,0,1
EndSplineSet
EndChar

StartChar: uni031B
Encoding: 795 795 474
Width: 511
Flags: W
LayerCount: 2
UndoRedoHistory
Layer: 1
Undoes
EndUndoes
Redoes
EndRedoes
EndUndoRedoHistory
Fore
SplineSet
237 398 m 0,0,1
 237 452 237 452 213 512 c 1,2,-1
 324 512 l 1,3,4
 364 424 364 424 364 346.5 c 128,-1,5
 364 269 364 269 315.5 219 c 128,-1,6
 267 169 267 169 160 169 c 0,7,8
 142 169 142 169 102 173 c 1,9,-1
 102 270 l 1,10,-1
 116 270 l 2,11,12
 237 270 237 270 237 398 c 0,0,1
EndSplineSet
EndChar

StartChar: uni0326
Encoding: 806 806 475
Width: 302
Flags: W
LayerCount: 2
UndoRedoHistory
Layer: 1
Undoes
EndUndoes
Redoes
EndRedoes
EndUndoRedoHistory
Fore
SplineSet
39 -677 m 1,0,-1
 105 -260 l 1,1,-1
 280 -260 l 1,2,-1
 169 -677 l 1,3,-1
 39 -677 l 1,0,-1
EndSplineSet
EndChar

StartChar: afii10059
Encoding: 1034 1034 483
Width: 2129
Flags: W
LayerCount: 2
UndoRedoHistory
Layer: 1
Undoes
EndUndoes
Redoes
EndRedoes
EndUndoRedoHistory
Fore
SplineSet
1328 650 m 1,0,-1
 1328 188 l 1,1,-1
 1571 188 l 2,2,3
 1721 188 1721 188 1794.5 242 c 128,-1,4
 1868 296 1868 296 1868 421.5 c 128,-1,5
 1868 547 1868 547 1802.5 598.5 c 128,-1,6
 1737 650 1737 650 1586 650 c 2,7,-1
 1328 650 l 1,0,-1
1075 0 m 1,8,-1
 1075 650 l 1,9,-1
 439 650 l 1,10,-1
 439 0 l 1,11,-1
 186 0 l 1,12,-1
 186 1445 l 1,13,-1
 439 1445 l 1,14,-1
 439 836 l 1,15,-1
 1075 836 l 1,16,-1
 1075 1445 l 1,17,-1
 1328 1445 l 1,18,-1
 1327 836 l 1,19,-1
 1599 836 l 2,20,21
 2118 836 2118 836 2118 420 c 0,22,23
 2118 212 2118 212 1982.5 106 c 128,-1,24
 1847 0 1847 0 1596 0 c 2,25,-1
 1075 0 l 1,8,-1
EndSplineSet
EndChar

StartChar: afii10060
Encoding: 1035 1035 484
Width: 1574
Flags: W
LayerCount: 2
UndoRedoHistory
Layer: 1
Undoes
EndUndoes
Redoes
EndRedoes
EndUndoRedoHistory
Fore
SplineSet
1280 0 m 1,0,-1
 1280 411 l 2,1,2
 1280 577 1280 577 1201 644 c 128,-1,3
 1122 711 1122 711 955 711 c 2,4,-1
 641 711 l 1,5,-1
 641 0 l 1,6,-1
 516 0 l 1,7,-1
 516 1388 l 1,8,-1
 59 1388 l 1,9,-1
 59 1478 l 1,10,-1
 1104 1478 l 1,11,-1
 1104 1388 l 1,12,-1
 641 1388 l 1,13,-1
 641 807 l 1,14,-1
 953 807 l 2,15,16
 1185 807 1185 807 1295 708 c 128,-1,17
 1405 609 1405 609 1405 412 c 2,18,-1
 1405 0 l 1,19,-1
 1280 0 l 1,0,-1
EndSplineSet
EndChar

StartChar: afii10145
Encoding: 1039 1039 486
Width: 1553
Flags: W
LayerCount: 2
UndoRedoHistory
Layer: 1
Undoes
EndUndoes
Redoes
EndRedoes
EndUndoRedoHistory
Fore
SplineSet
1325 1478 m 1,0,-1
 1325 0 l 1,1,-1
 858 0 l 1,2,-1
 858 -300 l 1,3,-1
 733 -300 l 1,4,-1
 733 0 l 1,5,-1
 230 0 l 1,6,-1
 230 1478 l 1,7,-1
 354 1478 l 1,8,-1
 354 89 l 1,9,-1
 1201 89 l 1,10,-1
 1201 1478 l 1,11,-1
 1325 1478 l 1,0,-1
EndSplineSet
EndChar

StartChar: afii10018
Encoding: 1041 1041 488
Width: 1269
Flags: W
LayerCount: 2
UndoRedoHistory
Layer: 1
Undoes
EndUndoes
Redoes
EndRedoes
EndUndoRedoHistory
Fore
SplineSet
435 653 m 1,0,-1
 435 191 l 1,1,-1
 705 191 l 2,2,3
 852 191 852 191 924 244 c 128,-1,4
 996 297 996 297 996 423 c 128,-1,5
 996 549 996 549 932.5 601 c 128,-1,6
 869 653 869 653 720 653 c 2,7,-1
 435 653 l 1,0,-1
182 0 m 1,8,-1
 182 1457 l 1,9,-1
 1098 1457 l 1,10,-1
 1098 1269 l 1,11,-1
 435 1269 l 1,12,-1
 435 844 l 1,13,-1
 733 844 l 2,14,15
 1250 844 1250 844 1250 424 c 0,16,17
 1250 215 1250 215 1115.5 107.5 c 128,-1,18
 981 0 981 0 731 0 c 2,19,-1
 182 0 l 1,8,-1
EndSplineSet
EndChar

StartChar: afii10021
Encoding: 1044 1044 489
Width: 1492
Flags: W
LayerCount: 2
UndoRedoHistory
Layer: 1
Undoes
EndUndoes
Redoes
EndRedoes
EndUndoRedoHistory
Fore
SplineSet
526 1387 m 1,0,-1
 501 1101 l 1,1,2
 462 612 462 612 432 406 c 0,3,4
 402 200 402 200 342 90 c 1,5,-1
 1134 90 l 1,6,-1
 1133 1388 l 1,7,-1
 526 1387 l 1,0,-1
28 -300 m 1,8,-1
 28 90 l 1,9,-1
 191 90 l 1,10,11
 261 139 261 139 301.5 352 c 128,-1,12
 342 565 342 565 385 1112 c 1,13,-1
 412 1477 l 1,14,-1
 1258 1477 l 1,15,-1
 1258 90 l 1,16,-1
 1393 90 l 1,17,-1
 1393 -300 l 1,18,-1
 1282 -300 l 1,19,-1
 1282 0 l 1,20,-1
 141 0 l 1,21,-1
 141 -300 l 1,22,-1
 28 -300 l 1,8,-1
EndSplineSet
EndChar

StartChar: afii10029
Encoding: 1051 1051 493
Width: 1526
Flags: W
LayerCount: 2
UndoRedoHistory
Layer: 1
Undoes
EndUndoes
Redoes
EndRedoes
EndUndoRedoHistory
Fore
SplineSet
-73 -25 m 1,0,-1
 -73 177 l 1,1,-1
 -1 177 l 2,2,3
 106 177 106 177 166.5 235 c 128,-1,4
 227 293 227 293 227 449 c 2,5,-1
 227 1445 l 1,6,-1
 1394 1445 l 1,7,-1
 1394 -1 l 1,8,-1
 1141 0 l 1,9,-1
 1141 1257 l 1,10,-1
 480 1257 l 1,11,-1
 480 466 l 2,12,13
 480 -25 480 -25 28 -25 c 2,14,-1
 -73 -25 l 1,0,-1
EndSplineSet
EndChar

StartChar: afii10033
Encoding: 1055 1055 497
Width: 1504
Flags: W
LayerCount: 2
UndoRedoHistory
Layer: 1
Undoes
EndUndoes
Redoes
EndRedoes
EndUndoRedoHistory
Fore
SplineSet
186 0 m 1,0,-1
 186 1445 l 1,1,-1
 1371 1445 l 1,2,-1
 1371 0 l 1,3,-1
 1118 0 l 1,4,-1
 1118 1257 l 1,5,-1
 439 1257 l 1,6,-1
 439 0 l 1,7,-1
 186 0 l 1,0,-1
EndSplineSet
EndChar

StartChar: afii10037
Encoding: 1059 1059 501
Width: 1361
Flags: W
LayerCount: 2
UndoRedoHistory
Layer: 1
Undoes
EndUndoes
Redoes
EndRedoes
EndUndoRedoHistory
Fore
SplineSet
732 622 m 1,0,-1
 1123 1469 l 1,1,-1
 1241 1469 l 1,2,-1
 543 0 l 1,3,-1
 425 0 l 1,4,-1
 681 519 l 1,5,-1
 161 1469 l 1,6,-1
 278 1469 l 1,7,-1
 732 622 l 1,0,-1
EndSplineSet
EndChar

StartChar: afii10038
Encoding: 1060 1060 502
Width: 1645
Flags: W
LayerCount: 2
UndoRedoHistory
Layer: 1
Undoes
EndUndoes
Redoes
EndRedoes
EndUndoRedoHistory
Fore
SplineSet
747 0 m 1,0,-1
 746 140 l 1,1,2
 442 159 442 159 262.5 319.5 c 128,-1,3
 83 480 83 480 83 734.5 c 128,-1,4
 83 989 83 989 262 1147 c 128,-1,5
 441 1305 441 1305 746 1324 c 1,6,-1
 747 1452 l 1,7,-1
 957 1452 l 1,8,-1
 957 1325 l 1,9,10
 1262 1311 1262 1311 1445 1153.5 c 128,-1,11
 1628 996 1628 996 1628 735 c 128,-1,12
 1628 474 1628 474 1445.5 315 c 128,-1,13
 1263 156 1263 156 957 140 c 1,14,-1
 957 0 l 1,15,-1
 747 0 l 1,0,-1
746 332 m 1,16,-1
 746 1133 l 1,17,18
 532 1116 532 1116 421 1008.5 c 128,-1,19
 310 901 310 901 310 733.5 c 128,-1,20
 310 566 310 566 420.5 457.5 c 128,-1,21
 531 349 531 349 746 332 c 1,16,-1
957 331 m 1,22,23
 1177 347 1177 347 1289.5 456 c 128,-1,24
 1402 565 1402 565 1402 733.5 c 128,-1,25
 1402 902 1402 902 1290 1009.5 c 128,-1,26
 1178 1117 1178 1117 957 1133 c 1,27,-1
 957 331 l 1,22,23
EndSplineSet
EndChar

StartChar: afii10041
Encoding: 1063 1063 504
Width: 1400
Flags: W
LayerCount: 2
UndoRedoHistory
Layer: 1
Undoes
EndUndoes
Redoes
EndRedoes
EndUndoRedoHistory
Fore
SplineSet
958 8 m 1,0,-1
 958 537 l 1,1,2
 942 530 942 530 813.5 525.5 c 128,-1,3
 685 521 685 521 640 521 c 0,4,5
 405 521 405 521 272 614.5 c 128,-1,6
 139 708 139 708 139 933 c 2,7,-1
 139 1439 l 1,8,-1
 350 1439 l 1,9,-1
 350 961 l 2,10,11
 350 807 350 807 420 759.5 c 128,-1,12
 490 712 490 712 616 712 c 0,13,14
 668 712 668 712 807 719.5 c 128,-1,15
 946 727 946 727 958 731 c 1,16,-1
 958 1439 l 1,17,-1
 1177 1439 l 1,18,-1
 1177 8 l 1,19,-1
 958 8 l 1,0,-1
EndSplineSet
EndChar

StartChar: afii10042
Encoding: 1064 1064 505
Width: 1712
Flags: W
LayerCount: 2
UndoRedoHistory
Layer: 1
Undoes
EndUndoes
Redoes
EndRedoes
EndUndoRedoHistory
Fore
SplineSet
168 0 m 1,0,-1
 168 1457 l 1,1,-1
 398 1457 l 1,2,-1
 398 180 l 1,3,-1
 777 180 l 1,4,-1
 777 1457 l 1,5,-1
 1007 1457 l 1,6,-1
 1007 180 l 1,7,-1
 1371 180 l 1,8,-1
 1371 1457 l 1,9,-1
 1602 1457 l 1,10,-1
 1602 0 l 1,11,-1
 168 0 l 1,0,-1
EndSplineSet
EndChar

StartChar: afii10043
Encoding: 1065 1065 506
Width: 1763
Flags: W
LayerCount: 2
UndoRedoHistory
Layer: 1
Undoes
EndUndoes
Redoes
EndRedoes
EndUndoRedoHistory
Fore
SplineSet
1532 -311 m 1,0,-1
 1532 0 l 1,1,-1
 182 0 l 1,2,-1
 182 1457 l 1,3,-1
 412 1457 l 1,4,-1
 412 180 l 1,5,-1
 791 180 l 1,6,-1
 791 1457 l 1,7,-1
 1021 1457 l 1,8,-1
 1021 180 l 1,9,-1
 1385 180 l 1,10,-1
 1385 1457 l 1,11,-1
 1616 1457 l 1,12,-1
 1616 137 l 1,13,-1
 1738 137 l 1,14,-1
 1738 -311 l 1,15,-1
 1532 -311 l 1,0,-1
EndSplineSet
EndChar

StartChar: afii10044
Encoding: 1066 1066 507
Width: 1363
Flags: W
LayerCount: 2
UndoRedoHistory
Layer: 1
Undoes
EndUndoes
Redoes
EndRedoes
EndUndoRedoHistory
Fore
SplineSet
474 655 m 1,0,-1
 474 191 l 1,1,-1
 710 191 l 2,2,3
 857 191 857 191 929.5 245.5 c 128,-1,4
 1002 300 1002 300 1002 426 c 128,-1,5
 1002 552 1002 552 938.5 603.5 c 128,-1,6
 875 655 875 655 726 655 c 2,7,-1
 474 655 l 1,0,-1
221 0 m 1,8,-1
 221 1257 l 1,9,-1
 -34 1257 l 1,10,-1
 -33 1444 l 1,11,-1
 475 1444 l 1,12,-1
 474 844 l 1,13,-1
 739 844 l 2,14,15
 1255 844 1255 844 1255 424 c 0,16,17
 1255 215 1255 215 1120.5 107.5 c 128,-1,18
 986 0 986 0 736 0 c 2,19,-1
 221 0 l 1,8,-1
EndSplineSet
EndChar

StartChar: afii10045
Encoding: 1067 1067 508
Width: 1804
Flags: W
LayerCount: 2
UndoRedoHistory
Layer: 1
Undoes
EndUndoes
Redoes
EndRedoes
EndUndoRedoHistory
Fore
SplineSet
354 740 m 1,0,-1
 354 96 l 1,1,-1
 719 96 l 2,2,3
 908 96 908 96 988.5 172 c 128,-1,4
 1069 248 1069 248 1069 422 c 128,-1,5
 1069 596 1069 596 989.5 668 c 128,-1,6
 910 740 910 740 705 740 c 2,7,-1
 354 740 l 1,0,-1
1451 0 m 1,8,-1
 1451 1478 l 1,9,-1
 1576 1478 l 1,10,-1
 1576 0 l 1,11,-1
 1451 0 l 1,8,-1
230 0 m 1,12,-1
 230 1477 l 1,13,-1
 354 1477 l 1,14,-1
 354 836 l 1,15,-1
 706 836 l 2,16,17
 1033 836 1033 836 1137 662 c 0,18,19
 1193 569 1193 569 1193 424 c 0,20,21
 1193 182 1193 182 1057 84 c 0,22,23
 941 0 941 0 713 0 c 2,24,-1
 230 0 l 1,12,-1
EndSplineSet
EndChar

StartChar: afii10046
Encoding: 1068 1068 509
Width: 1296
Flags: W
LayerCount: 2
UndoRedoHistory
Layer: 1
Undoes
EndUndoes
Redoes
EndRedoes
EndUndoRedoHistory
Fore
SplineSet
435 655 m 1,0,-1
 435 191 l 1,1,-1
 692 191 l 2,2,3
 839 191 839 191 911 245.5 c 128,-1,4
 983 300 983 300 983 426 c 128,-1,5
 983 552 983 552 919.5 603.5 c 128,-1,6
 856 655 856 655 707 655 c 2,7,-1
 435 655 l 1,0,-1
182 0 m 1,8,-1
 182 1443 l 1,9,-1
 436 1444 l 1,10,-1
 435 844 l 1,11,-1
 720 844 l 2,12,13
 1237 844 1237 844 1237 424 c 0,14,15
 1237 215 1237 215 1102.5 107.5 c 128,-1,16
 968 0 968 0 718 0 c 2,17,-1
 182 0 l 1,8,-1
EndSplineSet
EndChar

StartChar: afii10066
Encoding: 1073 1073 511
Width: 1097
Flags: W
LayerCount: 2
UndoRedoHistory
Layer: 1
Undoes
EndUndoes
Redoes
EndRedoes
EndUndoRedoHistory
Fore
SplineSet
116 480 m 0,0,1
 116 501 116 501 118 531 c 1,2,3
 118 924 118 924 364 1088 c 0,4,5
 552 1213 552 1213 911 1234 c 1,6,-1
 908 1156 l 1,7,8
 595 1138 595 1138 459 1050 c 0,9,10
 282 934 282 934 235 699 c 1,11,12
 274 718 274 718 328.5 749 c 128,-1,13
 383 780 383 780 413 795 c 0,14,15
 493 835 493 835 591.5 835 c 0,16,17
 690 836 690 836 750 808 c 0,18,19
 858 759 858 759 917.5 647 c 128,-1,20
 977 535 977 535 977 437.5 c 128,-1,21
 977 340 977 340 949.5 259.5 c 128,-1,22
 922 179 922 179 872 117 c 128,-1,23
 822 55 822 55 745 17.5 c 128,-1,24
 668 -20 668 -20 576 -20 c 0,25,26
 276 -20 276 -20 168 227 c 0,27,28
 116 343 116 343 116 480 c 0,0,1
475.5 89 m 0,29,30
 524 73 524 73 594 73 c 0,31,32
 756 73 756 73 823.5 164 c 128,-1,33
 891 255 891 255 891 443 c 0,34,35
 891 572 891 572 814 666.5 c 128,-1,36
 737 761 737 761 619 761 c 0,37,38
 417 761 417 761 253 600 c 1,39,40
 243 536 243 536 243 484 c 128,-1,41
 243 432 243 432 255 366.5 c 128,-1,42
 267 301 267 301 298.5 240 c 128,-1,43
 330 179 330 179 379 142 c 128,-1,44
 428 105 428 105 475.5 89 c 0,29,30
EndSplineSet
EndChar

StartChar: afii10067
Encoding: 1074 1074 512
Width: 1144
Flags: W
LayerCount: 2
UndoRedoHistory
Layer: 1
Undoes
EndUndoes
Redoes
EndRedoes
EndUndoRedoHistory
Fore
SplineSet
197 0 m 1,0,-1
 197 1076 l 1,1,-1
 653 1076 l 2,2,3
 878 1076 878 1076 960 954 c 0,4,5
 1004 889 1004 889 1004 805 c 0,6,7
 1004 626 1004 626 831 573 c 1,8,9
 992 530 992 530 1030 382 c 0,10,11
 1040 346 1040 346 1040 304 c 0,12,13
 1040 151 1040 151 925 65 c 0,14,15
 838 0 838 0 651 0 c 2,16,-1
 197 0 l 1,0,-1
321 87 m 1,17,-1
 646 87 l 2,18,19
 887 88 887 88 913 238 c 0,20,21
 918 268 918 268 918 301 c 128,-1,22
 918 334 918 334 918 349 c 0,23,24
 914 456 914 456 830 495 c 0,25,26
 784 516 784 516 696 516 c 2,27,-1
 321 516 l 1,28,-1
 321 87 l 1,17,-1
321 608 m 1,29,-1
 691 608 l 2,30,31
 809 608 809 608 845.5 665.5 c 128,-1,32
 882 723 882 723 882 807 c 128,-1,33
 882 891 882 891 830.5 940 c 128,-1,34
 779 989 779 989 651 989 c 2,35,-1
 321 989 l 1,36,-1
 321 608 l 1,29,-1
EndSplineSet
EndChar

StartChar: afii10068
Encoding: 1075 1075 513
Width: 932
Flags: W
LayerCount: 2
UndoRedoHistory
Layer: 1
Undoes
EndUndoes
Redoes
EndRedoes
EndUndoRedoHistory
Fore
SplineSet
197 0 m 1,0,-1
 197 1076 l 1,1,-1
 876 1076 l 1,2,-1
 876 980 l 1,3,-1
 321 980 l 1,4,-1
 321 0 l 1,5,-1
 197 0 l 1,0,-1
EndSplineSet
EndChar

StartChar: afii10069
Encoding: 1076 1076 514
Width: 1265
Flags: W
LayerCount: 2
UndoRedoHistory
Layer: 1
Undoes
EndUndoes
Redoes
EndRedoes
EndUndoRedoHistory
Fore
SplineSet
62 -280 m 1,0,-1
 62 78 l 1,1,-1
 167 78 l 1,2,3
 210 92 210 92 223.5 108 c 128,-1,4
 237 124 237 124 242.5 130 c 128,-1,5
 248 136 248 136 256 151 c 128,-1,6
 264 166 264 166 267.5 172.5 c 128,-1,7
 271 179 271 179 278.5 198.5 c 128,-1,8
 286 218 286 218 294 238 c 0,9,10
 302 258 302 258 310 284 c 1,11,-1
 453 1078 l 1,12,-1
 1071 1078 l 1,13,-1
 1071 78 l 1,14,-1
 1133 78 l 1,15,-1
 1133 -280 l 1,16,-1
 1027 -280 l 1,17,-1
 1039 0 l 1,18,-1
 151 0 l 1,19,-1
 157 -280 l 1,20,-1
 62 -280 l 1,0,-1
303 75 m 1,21,-1
 936 75 l 1,22,-1
 936 1008 l 1,23,-1
 546 1008 l 1,24,-1
 507 778 l 2,25,26
 497 715 497 715 476 588 c 2,27,-1
 446 401 l 1,28,29
 417 268 417 268 376 173.5 c 128,-1,30
 335 79 335 79 303 75 c 1,21,-1
EndSplineSet
EndChar

StartChar: afii10072
Encoding: 1078 1078 516
Width: 1568
Flags: W
LayerCount: 2
UndoRedoHistory
Layer: 1
Undoes
EndUndoes
Redoes
EndRedoes
EndUndoRedoHistory
Fore
SplineSet
62 0 m 1,0,-1
 615 557 l 1,1,-1
 65 1078 l 1,2,-1
 173 1078 l 1,3,-1
 705 562 l 1,4,-1
 705 1078 l 1,5,-1
 837 1078 l 1,6,-1
 837 562 l 1,7,-1
 1373 1078 l 1,8,-1
 1479 1078 l 1,9,-1
 930 557 l 1,10,-1
 1482 0 l 1,11,-1
 1362 0 l 1,12,-1
 837 534 l 1,13,-1
 837 0 l 1,14,-1
 705 0 l 1,15,-1
 705 534 l 1,16,-1
 184 0 l 1,17,-1
 62 0 l 1,0,-1
EndSplineSet
EndChar

StartChar: afii10074
Encoding: 1080 1080 517
Width: 1187
Flags: W
LayerCount: 2
UndoRedoHistory
Layer: 1
Undoes
EndUndoes
Redoes
EndRedoes
EndUndoRedoHistory
Fore
SplineSet
175 0 m 1,0,-1
 175 1076 l 1,1,-1
 277 1076 l 1,2,-1
 277 160 l 1,3,-1
 892 986 l 1,4,-1
 892 1076 l 1,5,-1
 997 1076 l 1,6,-1
 997 0 l 1,7,-1
 892 0 l 1,8,-1
 892 828 l 1,9,-1
 276 0 l 1,10,-1
 175 0 l 1,0,-1
EndSplineSet
EndChar

StartChar: afii10076
Encoding: 1082 1082 519
Width: 1224
Flags: W
LayerCount: 2
UndoRedoHistory
Layer: 1
Undoes
EndUndoes
Redoes
EndRedoes
EndUndoRedoHistory
Fore
SplineSet
212 0 m 1,0,-1
 212 1076 l 1,1,-1
 344 1076 l 1,2,-1
 344 558 l 1,3,-1
 820 1075 l 1,4,-1
 986 1077 l 1,5,-1
 484 539 l 1,6,-1
 1044 0 l 1,7,-1
 895 0 l 1,8,-1
 344 526 l 1,9,-1
 344 0 l 1,10,-1
 212 0 l 1,0,-1
EndSplineSet
EndChar

StartChar: afii10077
Encoding: 1083 1083 520
Width: 1243
Flags: W
LayerCount: 2
UndoRedoHistory
Layer: 1
Undoes
EndUndoes
Redoes
EndRedoes
EndUndoRedoHistory
Fore
SplineSet
44 -7 m 1,0,-1
 26 95 l 1,1,2
 137 95 137 95 182 125.5 c 0,3,4
 226 156 226 156 248 202 c 0,5,6
 291 293 291 293 320 499 c 1,7,-1
 387 1076 l 1,8,-1
 1048 1076 l 1,9,-1
 1048 -1 l 1,10,-1
 916 -1 l 1,11,-1
 916 981 l 1,12,-1
 500 981 l 1,13,-1
 437 487 l 1,14,15
 409 247 409 247 354 138 c 128,-1,16
 299 29 299 29 178 4 c 0,17,18
 125 -7 125 -7 44 -7 c 1,0,-1
EndSplineSet
EndChar

StartChar: afii10078
Encoding: 1084 1084 521
Width: 1386
Flags: W
LayerCount: 2
UndoRedoHistory
Layer: 1
Undoes
EndUndoes
Redoes
EndRedoes
EndUndoRedoHistory
Fore
SplineSet
197 0 m 1,0,-1
 197 1076 l 1,1,-1
 308 1076 l 1,2,-1
 697 297 l 1,3,-1
 1082 1076 l 1,4,-1
 1190 1076 l 1,5,-1
 1190 0 l 1,6,-1
 1075 0 l 1,7,-1
 1075 835 l 1,8,-1
 742 165 l 1,9,-1
 649 165 l 1,10,-1
 312 835 l 1,11,-1
 312 0 l 1,12,-1
 197 0 l 1,0,-1
EndSplineSet
EndChar

StartChar: afii10079
Encoding: 1085 1085 522
Width: 1270
Flags: W
LayerCount: 2
UndoRedoHistory
Layer: 1
Undoes
EndUndoes
Redoes
EndRedoes
EndUndoRedoHistory
Fore
SplineSet
197 0 m 1,0,-1
 197 1076 l 1,1,-1
 321 1076 l 1,2,-1
 321 620 l 1,3,-1
 951 620 l 1,4,-1
 951 1076 l 1,5,-1
 1075 1076 l 1,6,-1
 1075 0 l 1,7,-1
 951 0 l 1,8,-1
 951 523 l 1,9,-1
 321 523 l 1,10,-1
 321 0 l 1,11,-1
 197 0 l 1,0,-1
EndSplineSet
EndChar

StartChar: afii10081
Encoding: 1087 1087 524
Width: 1242
Flags: W
LayerCount: 2
UndoRedoHistory
Layer: 1
Undoes
EndUndoes
Redoes
EndRedoes
EndUndoRedoHistory
Fore
SplineSet
197 0 m 1,0,-1
 197 1076 l 1,1,-1
 1047 1076 l 1,2,-1
 1047 0 l 1,3,-1
 922 0 l 1,4,-1
 922 982 l 1,5,-1
 321 982 l 1,6,-1
 321 0 l 1,7,-1
 197 0 l 1,0,-1
EndSplineSet
EndChar

StartChar: afii10084
Encoding: 1090 1090 527
Width: 1045
Flags: W
LayerCount: 2
UndoRedoHistory
Layer: 1
Undoes
EndUndoes
Redoes
EndRedoes
EndUndoRedoHistory
Fore
SplineSet
444 0 m 1,0,-1
 444 973 l 1,1,-1
 139 973 l 1,2,-1
 139 1076 l 1,3,-1
 892 1076 l 1,4,-1
 892 973 l 1,5,-1
 582 973 l 1,6,-1
 582 0 l 1,7,-1
 444 0 l 1,0,-1
EndSplineSet
EndChar

StartChar: afii10085
Encoding: 1091 1091 528
Width: 1140
Flags: W
LayerCount: 2
UndoRedoHistory
Layer: 1
Undoes
EndUndoes
Redoes
EndRedoes
EndUndoRedoHistory
Fore
SplineSet
256 -310 m 1,0,-1
 256 -207 l 1,1,2
 439 -207 439 -207 479.5 -195 c 128,-1,3
 520 -183 520 -183 547 -165 c 0,4,5
 574 -147 574 -147 585 -104.5 c 128,-1,6
 596 -62 596 -62 596 29 c 2,7,-1
 595 149 l 1,8,-1
 120 1076 l 1,9,-1
 247 1076 l 1,10,-1
 643 290 l 1,11,-1
 965 1076 l 1,12,-1
 1087 1076 l 1,13,-1
 709 152 l 1,14,-1
 710 27 l 2,15,16
 710 12 710 12 710 -23 c 128,-1,17
 710 -58 710 -58 706.5 -99.5 c 128,-1,18
 703 -141 703 -141 686 -183 c 128,-1,19
 669 -225 669 -225 641 -246 c 128,-1,20
 613 -267 613 -267 543.5 -288.5 c 128,-1,21
 474 -310 474 -310 256 -310 c 1,0,-1
EndSplineSet
EndChar

StartChar: afii10086
Encoding: 1092 1092 529
Width: 1502
Flags: W
LayerCount: 2
UndoRedoHistory
Layer: 1
Undoes
EndUndoes
Redoes
EndRedoes
EndUndoRedoHistory
Fore
SplineSet
658 -389 m 1,0,-1
 658 82 l 1,1,2
 577 44 577 44 428.5 44 c 128,-1,3
 280 44 280 44 172 188 c 128,-1,4
 64 332 64 332 64 553 c 128,-1,5
 64 774 64 774 164 906.5 c 128,-1,6
 264 1039 264 1039 426 1039 c 0,7,8
 477 1039 477 1039 544.5 1024.5 c 128,-1,9
 612 1010 612 1010 658 989 c 1,10,-1
 658 1330 l 1,11,-1
 763 1330 l 1,12,-1
 763 989 l 1,13,14
 871 1039 871 1039 992 1039 c 0,15,16
 1154 1039 1154 1039 1255.5 906.5 c 128,-1,17
 1357 774 1357 774 1357 553.5 c 128,-1,18
 1357 333 1357 333 1248.5 188.5 c 128,-1,19
 1140 44 1140 44 991 44 c 128,-1,20
 842 44 842 44 763 82 c 1,21,-1
 763 -389 l 1,22,-1
 658 -389 l 1,0,-1
443 137 m 0,23,24
 580 137 580 137 658 178 c 1,25,-1
 658 903 l 1,26,27
 575 948 575 948 425 948 c 0,28,29
 309 948 309 948 247 836.5 c 128,-1,30
 185 725 185 725 185 584.5 c 128,-1,31
 185 444 185 444 215 350.5 c 128,-1,32
 245 257 245 257 305 197 c 128,-1,33
 365 137 365 137 443 137 c 0,23,24
978 137 m 0,34,35
 1055 136 1055 136 1115 196 c 0,36,37
 1237 317 1237 317 1237 552 c 0,38,39
 1237 723 1237 723 1173 835 c 128,-1,40
 1109 947 1109 947 982 947 c 128,-1,41
 855 947 855 947 763 896 c 1,42,-1
 763 183 l 1,43,44
 841 137 841 137 978 137 c 0,34,35
EndSplineSet
EndChar

StartChar: afii10088
Encoding: 1094 1094 531
Width: 1221
Flags: W
LayerCount: 2
UndoRedoHistory
Layer: 1
Undoes
EndUndoes
Redoes
EndRedoes
EndUndoRedoHistory
Fore
SplineSet
972 -280 m 1,0,-1
 987 0 l 1,1,-1
 212 0 l 1,2,-1
 212 1078 l 1,3,-1
 342 1078 l 1,4,-1
 342 79 l 1,5,-1
 908 79 l 1,6,-1
 908 1078 l 1,7,-1
 1039 1078 l 1,8,-1
 1039 138 l 1,9,-1
 1136 138 l 1,10,-1
 1136 -280 l 1,11,-1
 972 -280 l 1,0,-1
EndSplineSet
EndChar

StartChar: afii10089
Encoding: 1095 1095 532
Width: 1061
Flags: W
LayerCount: 2
UndoRedoHistory
Layer: 1
Undoes
EndUndoes
Redoes
EndRedoes
EndUndoRedoHistory
Fore
SplineSet
754 0 m 1,0,-1
 754 442 l 1,1,2
 726 414 726 414 651.5 396 c 128,-1,3
 577 378 577 378 503 378 c 0,4,5
 295 380 295 380 193 484.5 c 128,-1,6
 91 589 91 589 91 812 c 2,7,-1
 91 1085 l 1,8,-1
 315 1085 l 1,9,-1
 315 844 l 2,10,11
 315 693 315 693 362 624 c 128,-1,12
 409 555 409 555 534 555 c 0,13,14
 611 555 611 555 681 590.5 c 128,-1,15
 751 626 751 626 754 658 c 1,16,-1
 754 1085 l 1,17,-1
 978 1085 l 1,18,-1
 978 0 l 1,19,-1
 754 0 l 1,0,-1
EndSplineSet
EndChar

StartChar: afii10090
Encoding: 1096 1096 533
Width: 1520
Flags: W
LayerCount: 2
UndoRedoHistory
Layer: 1
Undoes
EndUndoes
Redoes
EndRedoes
EndUndoRedoHistory
Fore
SplineSet
295 0 m 1,0,-1
 295 1076 l 1,1,-1
 420 1076 l 1,2,-1
 420 78 l 1,3,-1
 750 78 l 1,4,-1
 750 1076 l 1,5,-1
 857 1076 l 1,6,-1
 857 78 l 1,7,-1
 1185 78 l 1,8,-1
 1185 1076 l 1,9,-1
 1313 1076 l 1,10,-1
 1313 0 l 1,11,-1
 295 0 l 1,0,-1
EndSplineSet
EndChar

StartChar: afii10091
Encoding: 1097 1097 534
Width: 1474
Flags: W
LayerCount: 2
UndoRedoHistory
Layer: 1
Undoes
EndUndoes
Redoes
EndRedoes
EndUndoRedoHistory
Fore
SplineSet
1227 -286 m 1,0,-1
 1238 0 l 1,1,-1
 214 0 l 1,2,-1
 214 1078 l 1,3,-1
 356 1078 l 1,4,-1
 356 79 l 1,5,-1
 710 79 l 1,6,-1
 710 1078 l 1,7,-1
 854 1078 l 1,8,-1
 854 79 l 1,9,-1
 1146 79 l 1,10,-1
 1146 1078 l 1,11,-1
 1290 1078 l 1,12,-1
 1290 137 l 1,13,-1
 1388 137 l 1,14,-1
 1388 -286 l 1,15,-1
 1227 -286 l 1,0,-1
EndSplineSet
EndChar

StartChar: afii10092
Encoding: 1098 1098 535
Width: 1048
Flags: W
LayerCount: 2
UndoRedoHistory
Layer: 1
Undoes
EndUndoes
Redoes
EndRedoes
EndUndoRedoHistory
Fore
SplineSet
233 0 m 1,0,-1
 233 998 l 1,1,-1
 84 998 l 1,2,-1
 84 1076 l 1,3,-1
 364 1076 l 1,4,-1
 364 684 l 1,5,-1
 568 684 l 2,6,7
 812 684 812 684 894 532 c 0,8,9
 934 457 934 457 934 380 c 128,-1,10
 934 303 934 303 925 257 c 0,11,12
 904 149 904 149 821 74.5 c 128,-1,13
 738 0 738 0 570 0 c 2,14,-1
 233 0 l 1,0,-1
363 87 m 1,15,-1
 585 87 l 2,16,17
 736 88 736 88 776 268 c 0,18,19
 786 312 786 312 786 356 c 0,20,21
 786 449 786 449 737 519.5 c 128,-1,22
 688 590 688 590 578 590 c 2,23,-1
 363 590 l 1,24,-1
 363 87 l 1,15,-1
EndSplineSet
EndChar

StartChar: afii10093
Encoding: 1099 1099 536
Width: 1536
Flags: W
LayerCount: 2
UndoRedoHistory
Layer: 1
Undoes
EndUndoes
Redoes
EndRedoes
EndUndoRedoHistory
Fore
SplineSet
197 0 m 1,0,-1
 197 1076 l 1,1,-1
 321 1076 l 1,2,-1
 321 681 l 1,3,-1
 579 681 l 2,4,5
 824 681 824 681 910 530 c 0,6,7
 954 453 954 453 954 377 c 128,-1,8
 954 301 954 301 945 255 c 0,9,10
 924 146 924 146 839 73 c 128,-1,11
 754 0 754 0 581 0 c 2,12,-1
 197 0 l 1,0,-1
320 87 m 1,13,-1
 585 87 l 2,14,15
 835 87 835 87 835 354 c 0,16,17
 835 471 835 471 771 529.5 c 128,-1,18
 707 588 707 588 589 588 c 2,19,-1
 320 588 l 1,20,-1
 320 87 l 1,13,-1
1216 0 m 1,21,-1
 1216 1076 l 1,22,-1
 1340 1076 l 1,23,-1
 1340 0 l 1,24,-1
 1216 0 l 1,21,-1
EndSplineSet
EndChar

StartChar: afii10094
Encoding: 1100 1100 537
Width: 1038
Flags: W
LayerCount: 2
UndoRedoHistory
Layer: 1
Undoes
EndUndoes
Redoes
EndRedoes
EndUndoRedoHistory
Fore
SplineSet
197 0 m 1,0,-1
 197 1076 l 1,1,-1
 321 1076 l 1,2,-1
 321 681 l 1,3,-1
 579 681 l 2,4,5
 824 681 824 681 910 530 c 0,6,7
 954 453 954 453 954 377 c 128,-1,8
 954 301 954 301 945 255 c 0,9,10
 924 146 924 146 839 73 c 128,-1,11
 754 0 754 0 581 0 c 2,12,-1
 197 0 l 1,0,-1
320 87 m 1,13,-1
 585 87 l 2,14,15
 835 87 835 87 835 354 c 0,16,17
 835 471 835 471 771 529.5 c 128,-1,18
 707 588 707 588 589 588 c 2,19,-1
 320 588 l 1,20,-1
 320 87 l 1,13,-1
EndSplineSet
EndChar

StartChar: afii10095
Encoding: 1101 1101 538
Width: 1218
Flags: W
LayerCount: 2
UndoRedoHistory
Layer: 1
Undoes
EndUndoes
Redoes
EndRedoes
EndUndoRedoHistory
Fore
SplineSet
709 5.5 m 128,-1,1
 619 -29 619 -29 511 -29 c 128,-1,2
 403 -29 403 -29 313 -2.5 c 128,-1,3
 223 24 223 24 183 67 c 1,4,-1
 214 147 l 1,5,6
 358 65 358 65 502 65 c 0,7,8
 685 65 685 65 801 183 c 128,-1,9
 917 301 917 301 929 483 c 1,10,-1
 479 483 l 1,11,-1
 479 586 l 1,12,-1
 929 586 l 1,13,14
 915 775 915 775 810.5 896 c 128,-1,15
 706 1017 706 1017 497 1017 c 0,16,17
 357 1017 357 1017 211 930 c 1,18,-1
 173 1008 l 1,19,20
 225 1055 225 1055 318 1082 c 0,21,22
 412 1109 412 1109 498 1109 c 0,23,24
 747 1109 747 1109 881 966 c 0,25,26
 964 877 964 877 999 760.5 c 128,-1,27
 1034 644 1034 644 1034 545 c 128,-1,28
 1034 446 1034 446 1016.5 371.5 c 128,-1,29
 999 297 999 297 958 224 c 128,-1,30
 917 151 917 151 858 95.5 c 128,-1,0
 799 40 799 40 709 5.5 c 128,-1,1
EndSplineSet
EndChar

StartChar: afii10096
Encoding: 1102 1102 539
Width: 1550
Flags: W
LayerCount: 2
UndoRedoHistory
Layer: 1
Undoes
EndUndoes
Redoes
EndRedoes
EndUndoRedoHistory
Fore
SplineSet
1102 2 m 0,0,1
 1026 -29 1026 -29 930.5 -29 c 0,2,3
 834 -29 834 -29 760 -3 c 0,4,5
 488 92 488 92 480 493 c 1,6,-1
 265 493 l 1,7,-1
 265 0 l 1,8,-1
 175 0 l 1,9,-1
 175 1076 l 1,10,-1
 265 1076 l 1,11,-1
 265 578 l 1,12,-1
 480 578 l 1,13,14
 484 806 484 806 592.5 957.5 c 128,-1,15
 701 1109 701 1109 933 1109 c 0,16,17
 1217 1110 1217 1110 1312 874 c 0,18,19
 1365 742 1365 742 1365 539 c 0,20,21
 1364 108 1364 108 1102 2 c 0,0,1
796 92 m 0,22,23
 856 66 856 66 941 65.5 c 128,-1,24
 1026 65 1026 65 1092.5 104 c 0,25,26
 1159 142 1159 142 1194 212 c 0,27,28
 1260 343 1260 343 1260 536 c 0,29,30
 1260 802 1260 802 1171 909 c 0,31,32
 1082 1015 1082 1015 928 1015 c 1,33,34
 834 1015 834 1015 765 973.5 c 128,-1,35
 696 932 696 932 659 860 c 0,36,37
 589 724 589 724 589 530 c 0,38,39
 590 182 590 182 796 92 c 0,22,23
EndSplineSet
EndChar

StartChar: afii10097
Encoding: 1103 1103 540
Width: 1158
Flags: W
LayerCount: 2
UndoRedoHistory
Layer: 1
Undoes
EndUndoes
Redoes
EndRedoes
EndUndoRedoHistory
Fore
SplineSet
185 0 m 1,0,-1
 389 448 l 1,1,2
 194 495 194 495 140 676 c 0,3,4
 126 722 126 722 126 773 c 0,5,6
 126 885 126 885 213 980.5 c 128,-1,7
 300 1076 300 1076 499 1076 c 2,8,-1
 963 1076 l 1,9,-1
 963 0 l 1,10,-1
 838 0 l 1,11,-1
 838 441 l 1,12,-1
 514 441 l 1,13,-1
 316 0 l 1,14,-1
 185 0 l 1,0,-1
520 531 m 2,15,-1
 838 531 l 1,16,-1
 838 988 l 1,17,-1
 499 988 l 2,18,19
 345 988 345 988 295.5 919 c 128,-1,20
 246 850 246 850 246 752.5 c 128,-1,21
 246 655 246 655 317.5 593 c 128,-1,22
 389 531 389 531 520 531 c 2,15,-1
EndSplineSet
EndChar

StartChar: afii10099
Encoding: 1106 1106 543
Width: 1360
Flags: W
LayerCount: 2
UndoRedoHistory
Layer: 1
Undoes
EndUndoes
Redoes
EndRedoes
EndUndoRedoHistory
Fore
SplineSet
810 -286 m 1,0,-1
 799 -155 l 1,1,-1
 835 -155 l 2,2,3
 906 -155 906 -155 943.5 -147 c 128,-1,4
 981 -139 981 -139 1004 -109 c 128,-1,5
 1027 -79 1027 -79 1032.5 -34.5 c 128,-1,6
 1038 10 1038 10 1038 97 c 2,7,-1
 1038 362 l 2,8,9
 1038 607 1038 607 978.5 672.5 c 128,-1,10
 919 738 919 738 799.5 738 c 129,-1,11
 680 738 680 738 578.5 658.5 c 128,-1,12
 477 579 477 579 453 489 c 1,13,-1
 453 0 l 1,14,-1
 300 0 l 1,15,-1
 300 1093 l 1,16,-1
 205 1093 l 1,17,-1
 205 1196 l 1,18,-1
 300 1196 l 1,19,-1
 300 1494 l 1,20,-1
 453 1494 l 1,21,-1
 453 1196 l 1,22,-1
 878 1196 l 1,23,-1
 878 1093 l 1,24,-1
 453 1093 l 1,25,-1
 453 684 l 1,26,27
 603 877 603 877 822 877 c 0,28,29
 1193 877 1193 877 1193 436 c 2,30,-1
 1193 150 l 2,31,32
 1193 -54 1193 -54 1177 -103 c 0,33,34
 1162 -152 1162 -152 1146 -182 c 0,35,36
 1092 -286 1092 -286 877 -286 c 2,37,-1
 810 -286 l 1,0,-1
EndSplineSet
EndChar

StartChar: afii10107
Encoding: 1114 1114 549
Width: 1555
Flags: W
LayerCount: 2
UndoRedoHistory
Layer: 1
Undoes
EndUndoes
Redoes
EndRedoes
EndUndoRedoHistory
Fore
SplineSet
125 0 m 1,0,-1
 125 1085 l 1,1,-1
 348 1085 l 1,2,-1
 348 665 l 1,3,-1
 782 665 l 1,4,-1
 782 1085 l 1,5,-1
 1002 1085 l 1,6,-1
 1002 666 l 1,7,-1
 1209 666 l 2,8,9
 1381 666 1381 666 1473.5 580 c 128,-1,10
 1566 494 1566 494 1566 342.5 c 128,-1,11
 1566 191 1566 191 1469.5 95.5 c 128,-1,12
 1373 0 1373 0 1208 0 c 2,13,-1
 782 0 l 1,14,-1
 782 486 l 1,15,-1
 348 486 l 1,16,-1
 348 0 l 1,17,-1
 125 0 l 1,0,-1
1002 170 m 1,18,-1
 1200 170 l 2,19,20
 1288 170 1288 170 1332.5 218.5 c 128,-1,21
 1377 267 1377 267 1377 340.5 c 128,-1,22
 1377 414 1377 414 1332 459.5 c 128,-1,23
 1287 505 1287 505 1199 505 c 2,24,-1
 1002 505 l 1,25,-1
 1002 170 l 1,18,-1
EndSplineSet
EndChar

StartChar: afii10193
Encoding: 1119 1119 553
Width: 1062
Flags: W
LayerCount: 2
UndoRedoHistory
Layer: 1
Undoes
EndUndoes
Redoes
EndRedoes
EndUndoRedoHistory
Fore
SplineSet
486 -299 m 1,0,-1
 479 0 l 1,1,-1
 119 0 l 1,2,-1
 119 1085 l 1,3,-1
 332 1085 l 1,4,-1
 332 169 l 1,5,-1
 777 169 l 1,6,-1
 777 1085 l 1,7,-1
 989 1085 l 1,8,-1
 989 0 l 1,9,-1
 669 0 l 1,10,-1
 661 -299 l 1,11,-1
 486 -299 l 1,0,-1
EndSplineSet
EndChar

StartChar: uni2074
Encoding: 8308 8308 572
Width: 765
Flags: W
LayerCount: 2
UndoRedoHistory
Layer: 1
Undoes
EndUndoes
Redoes
EndRedoes
EndUndoRedoHistory
Fore
SplineSet
425 625 m 1,0,-1
 425 808 l 1,1,-1
 95 808 l 1,2,-1
 95 921 l 1,3,-1
 422 1454 l 1,4,-1
 563 1454 l 1,5,-1
 563 946 l 1,6,-1
 659 946 l 1,7,-1
 670 808 l 1,8,-1
 562 808 l 1,9,-1
 561 625 l 1,10,-1
 425 625 l 1,0,-1
262 946 m 1,11,-1
 424 946 l 1,12,-1
 424 1218 l 1,13,-1
 262 946 l 1,11,-1
EndSplineSet
EndChar

StartChar: uni2206
Encoding: 8710 8710 573
Width: 1385
Flags: W
LayerCount: 2
UndoRedoHistory
Layer: 1
Undoes
EndUndoes
Redoes
EndRedoes
EndUndoRedoHistory
Fore
SplineSet
108 0 m 1,0,-1
 108 85 l 1,1,-1
 600 1530 l 1,2,-1
 789 1530 l 1,3,-1
 1280 85 l 1,4,-1
 1280 0 l 1,5,-1
 108 0 l 1,0,-1
308 172 m 1,6,-1
 1080 172 l 1,7,-1
 724 1186 l 1,8,-1
 690 1304 l 1,9,-1
 657 1186 l 1,10,-1
 308 172 l 1,6,-1
EndSplineSet
EndChar

StartChar: uni030C
Encoding: 780 780 592
Width: 735
Flags: W
LayerCount: 2
UndoRedoHistory
Layer: 1
Undoes
EndUndoes
Redoes
EndRedoes
EndUndoRedoHistory
Fore
SplineSet
41 1460 m 1,0,-1
 201 1460 l 1,1,-1
 357 1221 l 1,2,-1
 521 1460 l 1,3,-1
 683 1460 l 1,4,-1
 465 1072 l 1,5,-1
 263 1072 l 1,6,-1
 41 1460 l 1,0,-1
EndSplineSet
EndChar

StartChar: uni0302
Encoding: 770 770 593
Width: 735
Flags: W
LayerCount: 2
UndoRedoHistory
Layer: 1
Undoes
EndUndoes
Redoes
EndRedoes
EndUndoRedoHistory
Fore
SplineSet
41 1072 m 1,0,-1
 263 1460 l 1,1,-1
 465 1460 l 1,2,-1
 683 1072 l 1,3,-1
 521 1072 l 1,4,-1
 357 1311 l 1,5,-1
 201 1072 l 1,6,-1
 41 1072 l 1,0,-1
EndSplineSet
EndChar

StartChar: gravecomb
Encoding: 768 768 594
Width: 544
Flags: W
LayerCount: 2
UndoRedoHistory
Layer: 1
Undoes
EndUndoes
Redoes
EndRedoes
EndUndoRedoHistory
Fore
SplineSet
360 1058 m 1,0,-1
 51 1460 l 1,1,-1
 316 1460 l 1,2,-1
 501 1058 l 1,3,-1
 360 1058 l 1,0,-1
EndSplineSet
EndChar

StartChar: uni0306
Encoding: 774 774 595
Width: 684
Flags: W
LayerCount: 2
UndoRedoHistory
Layer: 1
Undoes
EndUndoes
Redoes
EndRedoes
EndUndoRedoHistory
Fore
SplineSet
149 1272.5 m 128,-1,1
 75 1336 75 1336 75 1460 c 1,2,-1
 223 1460 l 1,3,4
 223 1349 223 1349 342 1349 c 128,-1,5
 461 1349 461 1349 461 1460 c 1,6,-1
 608 1460 l 1,7,8
 608 1335 608 1335 534 1272 c 128,-1,9
 460 1209 460 1209 341.5 1209 c 128,-1,0
 223 1209 223 1209 149 1272.5 c 128,-1,1
EndSplineSet
EndChar

StartChar: uni0304
Encoding: 772 772 596
Width: 929
Flags: W
LayerCount: 2
UndoRedoHistory
Layer: 1
Undoes
EndUndoes
Redoes
EndRedoes
EndUndoRedoHistory
Fore
SplineSet
133 1310 m 1,0,-1
 133 1460 l 1,1,-1
 786 1460 l 1,2,-1
 786 1310 l 1,3,-1
 133 1310 l 1,0,-1
EndSplineSet
EndChar

StartChar: acutecomb
Encoding: 769 769 597
Width: 585
Flags: W
LayerCount: 2
UndoRedoHistory
Layer: 1
Undoes
EndUndoes
Redoes
EndRedoes
EndUndoRedoHistory
Fore
SplineSet
149 1058 m 1,0,-1
 327 1460 l 1,1,-1
 596 1460 l 1,2,-1
 287 1058 l 1,3,-1
 149 1058 l 1,0,-1
EndSplineSet
EndChar

StartChar: ring.cap
Encoding: 65541 -1 598
Width: 602
Flags: W
LayerCount: 2
UndoRedoHistory
Layer: 1
Undoes
EndUndoes
Redoes
EndRedoes
EndUndoRedoHistory
Fore
SplineSet
368.5 1210.5 m 128,-1,1
 395 1240 395 1240 395 1282 c 128,-1,2
 395 1324 395 1324 368.5 1354 c 128,-1,3
 342 1384 342 1384 300.5 1384 c 128,-1,4
 259 1384 259 1384 233 1354 c 128,-1,5
 207 1324 207 1324 207 1281.5 c 128,-1,6
 207 1239 207 1239 232 1210 c 128,-1,7
 257 1181 257 1181 299.5 1181 c 128,-1,0
 342 1181 342 1181 368.5 1210.5 c 128,-1,1
300 1086 m 128,-1,9
 209 1086 209 1086 151.5 1144 c 128,-1,10
 94 1202 94 1202 94 1284 c 128,-1,11
 94 1366 94 1366 151 1423 c 128,-1,12
 208 1480 208 1480 300 1480 c 128,-1,13
 392 1480 392 1480 449.5 1423 c 128,-1,14
 507 1366 507 1366 507 1284 c 128,-1,15
 507 1202 507 1202 449 1144 c 128,-1,8
 391 1086 391 1086 300 1086 c 128,-1,9
EndSplineSet
EndChar

StartChar: acute.cap
Encoding: 65542 -1 599
Width: 585
Flags: W
LayerCount: 2
UndoRedoHistory
Layer: 1
Undoes
EndUndoes
Redoes
EndRedoes
EndUndoRedoHistory
Fore
SplineSet
149 1058 m 1,0,-1
 447 1359 l 1,1,-1
 726 1359 l 1,2,-1
 347 1058 l 1,3,-1
 149 1058 l 1,0,-1
EndSplineSet
EndChar

StartChar: circumflex.cap
Encoding: 65543 -1 600
Width: 735
Flags: W
LayerCount: 2
UndoRedoHistory
Layer: 1
Undoes
EndUndoes
Redoes
EndRedoes
EndUndoRedoHistory
Fore
SplineSet
31 1072 m 1,0,-1
 263 1430 l 1,1,-1
 465 1430 l 1,2,-1
 693 1072 l 1,3,-1
 531 1072 l 1,4,-1
 357 1281 l 1,5,-1
 191 1072 l 1,6,-1
 31 1072 l 1,0,-1
EndSplineSet
EndChar

StartChar: caron.cap
Encoding: 65544 -1 601
Width: 735
Flags: W
LayerCount: 2
UndoRedoHistory
Layer: 1
Undoes
EndUndoes
Redoes
EndRedoes
EndUndoRedoHistory
Fore
SplineSet
41 1394 m 1,0,-1
 201 1394 l 1,1,-1
 357 1221 l 1,2,-1
 521 1394 l 1,3,-1
 683 1394 l 1,4,-1
 465 1072 l 1,5,-1
 263 1072 l 1,6,-1
 41 1394 l 1,0,-1
EndSplineSet
EndChar

StartChar: grave.cap
Encoding: 65545 -1 602
Width: 544
Flags: W
LayerCount: 2
UndoRedoHistory
Layer: 1
Undoes
EndUndoes
Redoes
EndRedoes
EndUndoRedoHistory
Fore
SplineSet
324 1058 m 1,0,-1
 -45 1359 l 1,1,-1
 226 1359 l 1,2,-1
 501 1058 l 1,3,-1
 324 1058 l 1,0,-1
EndSplineSet
EndChar

StartChar: hungarumlaut.cap
Encoding: 65546 -1 603
Width: 831
Flags: W
LayerCount: 2
UndoRedoHistory
Layer: 1
Undoes
EndUndoes
Redoes
EndRedoes
EndUndoRedoHistory
Fore
SplineSet
65 1058 m 1,0,-1
 403 1399 l 1,1,-1
 609 1399 l 1,2,-1
 239 1058 l 1,3,-1
 65 1058 l 1,0,-1
396 1058 m 1,4,-1
 750 1399 l 1,5,-1
 962 1399 l 1,6,-1
 570 1058 l 1,7,-1
 396 1058 l 1,4,-1
EndSplineSet
EndChar

StartChar: uni030F.cap
Encoding: 65547 -1 604
Width: 831
Flags: W
LayerCount: 2
UndoRedoHistory
Layer: 1
Undoes
EndUndoes
Redoes
EndRedoes
EndUndoRedoHistory
Fore
SplineSet
832 1058 m 1,0,-1
 658 1058 l 1,1,-1
 288 1399 l 1,2,-1
 494 1399 l 1,3,-1
 832 1058 l 1,0,-1
501 1058 m 1,4,-1
 327 1058 l 1,5,-1
 -65 1399 l 1,6,-1
 147 1399 l 1,7,-1
 501 1058 l 1,4,-1
EndSplineSet
EndChar
